%TF.GenerationSoftware,KiCad,Pcbnew,8.0.5*%
%TF.CreationDate,2024-10-23T12:28:58+01:00*%
%TF.ProjectId,PLCC to DIP 44 True,504c4343-2074-46f2-9044-495020343420,rev?*%
%TF.SameCoordinates,Original*%
%TF.FileFunction,Drillmap*%
%TF.FilePolarity,Positive*%
%FSLAX45Y45*%
G04 Gerber Fmt 4.5, Leading zero omitted, Abs format (unit mm)*
G04 Created by KiCad (PCBNEW 8.0.5) date 2024-10-23 12:28:58*
%MOMM*%
%LPD*%
G01*
G04 APERTURE LIST*
%ADD10C,0.050000*%
%ADD11C,0.200000*%
G04 APERTURE END LIST*
D10*
X11400000Y-5300000D02*
X14600000Y-5300000D01*
X14600000Y-11300000D01*
X11400000Y-11300000D01*
X11400000Y-5300000D01*
X11400000Y-5300000D02*
X14600000Y-5300000D01*
X14600000Y-11300000D01*
X11400000Y-11300000D01*
X11400000Y-5300000D01*
D11*
X11658277Y-11613984D02*
X11658277Y-11413984D01*
X11658277Y-11413984D02*
X11705896Y-11413984D01*
X11705896Y-11413984D02*
X11734467Y-11423508D01*
X11734467Y-11423508D02*
X11753515Y-11442555D01*
X11753515Y-11442555D02*
X11763039Y-11461603D01*
X11763039Y-11461603D02*
X11772562Y-11499698D01*
X11772562Y-11499698D02*
X11772562Y-11528269D01*
X11772562Y-11528269D02*
X11763039Y-11566365D01*
X11763039Y-11566365D02*
X11753515Y-11585412D01*
X11753515Y-11585412D02*
X11734467Y-11604460D01*
X11734467Y-11604460D02*
X11705896Y-11613984D01*
X11705896Y-11613984D02*
X11658277Y-11613984D01*
X11858277Y-11613984D02*
X11858277Y-11480650D01*
X11858277Y-11518746D02*
X11867801Y-11499698D01*
X11867801Y-11499698D02*
X11877324Y-11490174D01*
X11877324Y-11490174D02*
X11896372Y-11480650D01*
X11896372Y-11480650D02*
X11915420Y-11480650D01*
X11982086Y-11613984D02*
X11982086Y-11480650D01*
X11982086Y-11413984D02*
X11972562Y-11423508D01*
X11972562Y-11423508D02*
X11982086Y-11433031D01*
X11982086Y-11433031D02*
X11991610Y-11423508D01*
X11991610Y-11423508D02*
X11982086Y-11413984D01*
X11982086Y-11413984D02*
X11982086Y-11433031D01*
X12105896Y-11613984D02*
X12086848Y-11604460D01*
X12086848Y-11604460D02*
X12077324Y-11585412D01*
X12077324Y-11585412D02*
X12077324Y-11413984D01*
X12210658Y-11613984D02*
X12191610Y-11604460D01*
X12191610Y-11604460D02*
X12182086Y-11585412D01*
X12182086Y-11585412D02*
X12182086Y-11413984D01*
X12439229Y-11613984D02*
X12439229Y-11413984D01*
X12439229Y-11413984D02*
X12505896Y-11556841D01*
X12505896Y-11556841D02*
X12572562Y-11413984D01*
X12572562Y-11413984D02*
X12572562Y-11613984D01*
X12753515Y-11613984D02*
X12753515Y-11509222D01*
X12753515Y-11509222D02*
X12743991Y-11490174D01*
X12743991Y-11490174D02*
X12724943Y-11480650D01*
X12724943Y-11480650D02*
X12686848Y-11480650D01*
X12686848Y-11480650D02*
X12667801Y-11490174D01*
X12753515Y-11604460D02*
X12734467Y-11613984D01*
X12734467Y-11613984D02*
X12686848Y-11613984D01*
X12686848Y-11613984D02*
X12667801Y-11604460D01*
X12667801Y-11604460D02*
X12658277Y-11585412D01*
X12658277Y-11585412D02*
X12658277Y-11566365D01*
X12658277Y-11566365D02*
X12667801Y-11547317D01*
X12667801Y-11547317D02*
X12686848Y-11537793D01*
X12686848Y-11537793D02*
X12734467Y-11537793D01*
X12734467Y-11537793D02*
X12753515Y-11528269D01*
X12848753Y-11480650D02*
X12848753Y-11680650D01*
X12848753Y-11490174D02*
X12867801Y-11480650D01*
X12867801Y-11480650D02*
X12905896Y-11480650D01*
X12905896Y-11480650D02*
X12924943Y-11490174D01*
X12924943Y-11490174D02*
X12934467Y-11499698D01*
X12934467Y-11499698D02*
X12943991Y-11518746D01*
X12943991Y-11518746D02*
X12943991Y-11575888D01*
X12943991Y-11575888D02*
X12934467Y-11594936D01*
X12934467Y-11594936D02*
X12924943Y-11604460D01*
X12924943Y-11604460D02*
X12905896Y-11613984D01*
X12905896Y-11613984D02*
X12867801Y-11613984D01*
X12867801Y-11613984D02*
X12848753Y-11604460D01*
X13029705Y-11594936D02*
X13039229Y-11604460D01*
X13039229Y-11604460D02*
X13029705Y-11613984D01*
X13029705Y-11613984D02*
X13020182Y-11604460D01*
X13020182Y-11604460D02*
X13029705Y-11594936D01*
X13029705Y-11594936D02*
X13029705Y-11613984D01*
X13029705Y-11490174D02*
X13039229Y-11499698D01*
X13039229Y-11499698D02*
X13029705Y-11509222D01*
X13029705Y-11509222D02*
X13020182Y-11499698D01*
X13020182Y-11499698D02*
X13029705Y-11490174D01*
X13029705Y-11490174D02*
X13029705Y-11509222D01*
M02*
