M48
; DRILL file {KiCad 8.0.5} date 2024-10-23T12:28:56+0100
; FORMAT={-:-/ absolute / inch / decimal}
; #@! TF.CreationDate,2024-10-23T12:28:56+01:00
; #@! TF.GenerationSoftware,Kicad,Pcbnew,8.0.5
; #@! TF.FileFunction,Plated,1,2,PTH
FMAT,2
INCH
; #@! TA.AperFunction,Plated,PTH,ComponentDrill
T1C0.0402
; #@! TA.AperFunction,Plated,PTH,ComponentDrill
T2C0.0433
%
G90
G05
T1
X4.626Y-2.2177
X4.626Y-2.3177
X4.626Y-2.4177
X4.626Y-2.5177
X4.626Y-2.6177
X4.626Y-2.7177
X4.626Y-2.8177
X4.626Y-2.9177
X4.626Y-3.0177
X4.626Y-3.1177
X4.626Y-3.2177
X4.626Y-3.3177
X4.626Y-3.4177
X4.626Y-3.5177
X4.626Y-3.6177
X4.626Y-3.7177
X4.626Y-3.8177
X4.626Y-3.9177
X4.626Y-4.0177
X4.626Y-4.1177
X4.626Y-4.2177
X4.626Y-4.3177
X5.6102Y-2.2177
X5.6102Y-2.3177
X5.6102Y-2.4177
X5.6102Y-2.5177
X5.6102Y-2.6177
X5.6102Y-2.7177
X5.6102Y-2.8177
X5.6102Y-2.9177
X5.6102Y-3.0177
X5.6102Y-3.1177
X5.6102Y-3.2177
X5.6102Y-3.3177
X5.6102Y-3.4177
X5.6102Y-3.5177
X5.6102Y-3.6177
X5.6102Y-3.7177
X5.6102Y-3.8177
X5.6102Y-3.9177
X5.6102Y-4.0177
X5.6102Y-4.1177
X5.6102Y-4.2177
X5.6102Y-4.3177
T2
X4.7681Y-3.0177
X4.7681Y-3.1177
X4.7681Y-3.2177
X4.7681Y-3.3177
X4.7681Y-3.4177
X4.7681Y-3.5177
X4.8681Y-2.9177
X4.8681Y-3.0177
X4.8681Y-3.1177
X4.8681Y-3.2177
X4.8681Y-3.3177
X4.8681Y-3.4177
X4.8681Y-3.5177
X4.8681Y-3.6177
X4.9681Y-2.9177
X4.9681Y-3.0177
X4.9681Y-3.5177
X4.9681Y-3.6177
X5.0681Y-2.9177
X5.0681Y-3.0177
X5.0681Y-3.5177
X5.0681Y-3.6177
X5.1681Y-2.9177
X5.1681Y-3.0177
X5.1681Y-3.5177
X5.1681Y-3.6177
X5.2681Y-2.9177
X5.2681Y-3.0177
X5.2681Y-3.5177
X5.2681Y-3.6177
X5.3681Y-2.9177
X5.3681Y-3.0177
X5.3681Y-3.1177
X5.3681Y-3.2177
X5.3681Y-3.3177
X5.3681Y-3.4177
X5.3681Y-3.5177
X5.3681Y-3.6177
X5.4681Y-3.0177
X5.4681Y-3.1177
X5.4681Y-3.2177
X5.4681Y-3.3177
X5.4681Y-3.4177
X5.4681Y-3.5177
M30
