%TF.GenerationSoftware,KiCad,Pcbnew,8.0.5*%
%TF.CreationDate,2024-10-23T12:28:58+01:00*%
%TF.ProjectId,PLCC to DIP 44 True,504c4343-2074-46f2-9044-495020343420,rev?*%
%TF.SameCoordinates,Original*%
%TF.FileFunction,Drillmap*%
%TF.FilePolarity,Positive*%
%FSLAX45Y45*%
G04 Gerber Fmt 4.5, Leading zero omitted, Abs format (unit mm)*
G04 Created by KiCad (PCBNEW 8.0.5) date 2024-10-23 12:28:58*
%MOMM*%
%LPD*%
G01*
G04 APERTURE LIST*
%ADD10C,0.050000*%
%ADD11C,0.200000*%
%ADD12C,0.102000*%
%ADD13C,0.110000*%
G04 APERTURE END LIST*
D10*
X11400000Y-5300000D02*
X14600000Y-5300000D01*
X14600000Y-11300000D01*
X11400000Y-11300000D01*
X11400000Y-5300000D01*
X11400000Y-5300000D02*
X14600000Y-5300000D01*
X14600000Y-11300000D01*
X11400000Y-11300000D01*
X11400000Y-5300000D01*
D11*
D12*
X11699000Y-5582000D02*
X11801000Y-5684000D01*
X11801000Y-5582000D02*
X11699000Y-5684000D01*
X11699000Y-5836000D02*
X11801000Y-5938000D01*
X11801000Y-5836000D02*
X11699000Y-5938000D01*
X11699000Y-6090000D02*
X11801000Y-6192000D01*
X11801000Y-6090000D02*
X11699000Y-6192000D01*
X11699000Y-6344000D02*
X11801000Y-6446000D01*
X11801000Y-6344000D02*
X11699000Y-6446000D01*
X11699000Y-6598000D02*
X11801000Y-6700000D01*
X11801000Y-6598000D02*
X11699000Y-6700000D01*
X11699000Y-6852000D02*
X11801000Y-6954000D01*
X11801000Y-6852000D02*
X11699000Y-6954000D01*
X11699000Y-7106000D02*
X11801000Y-7208000D01*
X11801000Y-7106000D02*
X11699000Y-7208000D01*
X11699000Y-7360000D02*
X11801000Y-7462000D01*
X11801000Y-7360000D02*
X11699000Y-7462000D01*
X11699000Y-7614000D02*
X11801000Y-7716000D01*
X11801000Y-7614000D02*
X11699000Y-7716000D01*
X11699000Y-7868000D02*
X11801000Y-7970000D01*
X11801000Y-7868000D02*
X11699000Y-7970000D01*
X11699000Y-8122000D02*
X11801000Y-8224000D01*
X11801000Y-8122000D02*
X11699000Y-8224000D01*
X11699000Y-8376000D02*
X11801000Y-8478000D01*
X11801000Y-8376000D02*
X11699000Y-8478000D01*
X11699000Y-8630000D02*
X11801000Y-8732000D01*
X11801000Y-8630000D02*
X11699000Y-8732000D01*
X11699000Y-8884000D02*
X11801000Y-8986000D01*
X11801000Y-8884000D02*
X11699000Y-8986000D01*
X11699000Y-9138000D02*
X11801000Y-9240000D01*
X11801000Y-9138000D02*
X11699000Y-9240000D01*
X11699000Y-9392000D02*
X11801000Y-9494000D01*
X11801000Y-9392000D02*
X11699000Y-9494000D01*
X11699000Y-9646000D02*
X11801000Y-9748000D01*
X11801000Y-9646000D02*
X11699000Y-9748000D01*
X11699000Y-9900000D02*
X11801000Y-10002000D01*
X11801000Y-9900000D02*
X11699000Y-10002000D01*
X11699000Y-10154000D02*
X11801000Y-10256000D01*
X11801000Y-10154000D02*
X11699000Y-10256000D01*
X11699000Y-10408000D02*
X11801000Y-10510000D01*
X11801000Y-10408000D02*
X11699000Y-10510000D01*
X11699000Y-10662000D02*
X11801000Y-10764000D01*
X11801000Y-10662000D02*
X11699000Y-10764000D01*
X11699000Y-10916000D02*
X11801000Y-11018000D01*
X11801000Y-10916000D02*
X11699000Y-11018000D01*
X14199000Y-5582000D02*
X14301000Y-5684000D01*
X14301000Y-5582000D02*
X14199000Y-5684000D01*
X14199000Y-5836000D02*
X14301000Y-5938000D01*
X14301000Y-5836000D02*
X14199000Y-5938000D01*
X14199000Y-6090000D02*
X14301000Y-6192000D01*
X14301000Y-6090000D02*
X14199000Y-6192000D01*
X14199000Y-6344000D02*
X14301000Y-6446000D01*
X14301000Y-6344000D02*
X14199000Y-6446000D01*
X14199000Y-6598000D02*
X14301000Y-6700000D01*
X14301000Y-6598000D02*
X14199000Y-6700000D01*
X14199000Y-6852000D02*
X14301000Y-6954000D01*
X14301000Y-6852000D02*
X14199000Y-6954000D01*
X14199000Y-7106000D02*
X14301000Y-7208000D01*
X14301000Y-7106000D02*
X14199000Y-7208000D01*
X14199000Y-7360000D02*
X14301000Y-7462000D01*
X14301000Y-7360000D02*
X14199000Y-7462000D01*
X14199000Y-7614000D02*
X14301000Y-7716000D01*
X14301000Y-7614000D02*
X14199000Y-7716000D01*
X14199000Y-7868000D02*
X14301000Y-7970000D01*
X14301000Y-7868000D02*
X14199000Y-7970000D01*
X14199000Y-8122000D02*
X14301000Y-8224000D01*
X14301000Y-8122000D02*
X14199000Y-8224000D01*
X14199000Y-8376000D02*
X14301000Y-8478000D01*
X14301000Y-8376000D02*
X14199000Y-8478000D01*
X14199000Y-8630000D02*
X14301000Y-8732000D01*
X14301000Y-8630000D02*
X14199000Y-8732000D01*
X14199000Y-8884000D02*
X14301000Y-8986000D01*
X14301000Y-8884000D02*
X14199000Y-8986000D01*
X14199000Y-9138000D02*
X14301000Y-9240000D01*
X14301000Y-9138000D02*
X14199000Y-9240000D01*
X14199000Y-9392000D02*
X14301000Y-9494000D01*
X14301000Y-9392000D02*
X14199000Y-9494000D01*
X14199000Y-9646000D02*
X14301000Y-9748000D01*
X14301000Y-9646000D02*
X14199000Y-9748000D01*
X14199000Y-9900000D02*
X14301000Y-10002000D01*
X14301000Y-9900000D02*
X14199000Y-10002000D01*
X14199000Y-10154000D02*
X14301000Y-10256000D01*
X14301000Y-10154000D02*
X14199000Y-10256000D01*
X14199000Y-10408000D02*
X14301000Y-10510000D01*
X14301000Y-10408000D02*
X14199000Y-10510000D01*
X14199000Y-10662000D02*
X14301000Y-10764000D01*
X14301000Y-10662000D02*
X14199000Y-10764000D01*
X14199000Y-10916000D02*
X14301000Y-11018000D01*
X14301000Y-10916000D02*
X14199000Y-11018000D01*
D13*
X12166000Y-7665000D02*
G75*
G02*
X12056000Y-7665000I-55000J0D01*
G01*
X12056000Y-7665000D02*
G75*
G02*
X12166000Y-7665000I55000J0D01*
G01*
X12166000Y-7919000D02*
G75*
G02*
X12056000Y-7919000I-55000J0D01*
G01*
X12056000Y-7919000D02*
G75*
G02*
X12166000Y-7919000I55000J0D01*
G01*
X12166000Y-8173000D02*
G75*
G02*
X12056000Y-8173000I-55000J0D01*
G01*
X12056000Y-8173000D02*
G75*
G02*
X12166000Y-8173000I55000J0D01*
G01*
X12166000Y-8427000D02*
G75*
G02*
X12056000Y-8427000I-55000J0D01*
G01*
X12056000Y-8427000D02*
G75*
G02*
X12166000Y-8427000I55000J0D01*
G01*
X12166000Y-8681000D02*
G75*
G02*
X12056000Y-8681000I-55000J0D01*
G01*
X12056000Y-8681000D02*
G75*
G02*
X12166000Y-8681000I55000J0D01*
G01*
X12166000Y-8935000D02*
G75*
G02*
X12056000Y-8935000I-55000J0D01*
G01*
X12056000Y-8935000D02*
G75*
G02*
X12166000Y-8935000I55000J0D01*
G01*
X12420000Y-7411000D02*
G75*
G02*
X12310000Y-7411000I-55000J0D01*
G01*
X12310000Y-7411000D02*
G75*
G02*
X12420000Y-7411000I55000J0D01*
G01*
X12420000Y-7665000D02*
G75*
G02*
X12310000Y-7665000I-55000J0D01*
G01*
X12310000Y-7665000D02*
G75*
G02*
X12420000Y-7665000I55000J0D01*
G01*
X12420000Y-7919000D02*
G75*
G02*
X12310000Y-7919000I-55000J0D01*
G01*
X12310000Y-7919000D02*
G75*
G02*
X12420000Y-7919000I55000J0D01*
G01*
X12420000Y-8173000D02*
G75*
G02*
X12310000Y-8173000I-55000J0D01*
G01*
X12310000Y-8173000D02*
G75*
G02*
X12420000Y-8173000I55000J0D01*
G01*
X12420000Y-8427000D02*
G75*
G02*
X12310000Y-8427000I-55000J0D01*
G01*
X12310000Y-8427000D02*
G75*
G02*
X12420000Y-8427000I55000J0D01*
G01*
X12420000Y-8681000D02*
G75*
G02*
X12310000Y-8681000I-55000J0D01*
G01*
X12310000Y-8681000D02*
G75*
G02*
X12420000Y-8681000I55000J0D01*
G01*
X12420000Y-8935000D02*
G75*
G02*
X12310000Y-8935000I-55000J0D01*
G01*
X12310000Y-8935000D02*
G75*
G02*
X12420000Y-8935000I55000J0D01*
G01*
X12420000Y-9189000D02*
G75*
G02*
X12310000Y-9189000I-55000J0D01*
G01*
X12310000Y-9189000D02*
G75*
G02*
X12420000Y-9189000I55000J0D01*
G01*
X12674000Y-7411000D02*
G75*
G02*
X12564000Y-7411000I-55000J0D01*
G01*
X12564000Y-7411000D02*
G75*
G02*
X12674000Y-7411000I55000J0D01*
G01*
X12674000Y-7665000D02*
G75*
G02*
X12564000Y-7665000I-55000J0D01*
G01*
X12564000Y-7665000D02*
G75*
G02*
X12674000Y-7665000I55000J0D01*
G01*
X12674000Y-8935000D02*
G75*
G02*
X12564000Y-8935000I-55000J0D01*
G01*
X12564000Y-8935000D02*
G75*
G02*
X12674000Y-8935000I55000J0D01*
G01*
X12674000Y-9189000D02*
G75*
G02*
X12564000Y-9189000I-55000J0D01*
G01*
X12564000Y-9189000D02*
G75*
G02*
X12674000Y-9189000I55000J0D01*
G01*
X12928000Y-7411000D02*
G75*
G02*
X12818000Y-7411000I-55000J0D01*
G01*
X12818000Y-7411000D02*
G75*
G02*
X12928000Y-7411000I55000J0D01*
G01*
X12928000Y-7665000D02*
G75*
G02*
X12818000Y-7665000I-55000J0D01*
G01*
X12818000Y-7665000D02*
G75*
G02*
X12928000Y-7665000I55000J0D01*
G01*
X12928000Y-8935000D02*
G75*
G02*
X12818000Y-8935000I-55000J0D01*
G01*
X12818000Y-8935000D02*
G75*
G02*
X12928000Y-8935000I55000J0D01*
G01*
X12928000Y-9189000D02*
G75*
G02*
X12818000Y-9189000I-55000J0D01*
G01*
X12818000Y-9189000D02*
G75*
G02*
X12928000Y-9189000I55000J0D01*
G01*
X13182000Y-7411000D02*
G75*
G02*
X13072000Y-7411000I-55000J0D01*
G01*
X13072000Y-7411000D02*
G75*
G02*
X13182000Y-7411000I55000J0D01*
G01*
X13182000Y-7665000D02*
G75*
G02*
X13072000Y-7665000I-55000J0D01*
G01*
X13072000Y-7665000D02*
G75*
G02*
X13182000Y-7665000I55000J0D01*
G01*
X13182000Y-8935000D02*
G75*
G02*
X13072000Y-8935000I-55000J0D01*
G01*
X13072000Y-8935000D02*
G75*
G02*
X13182000Y-8935000I55000J0D01*
G01*
X13182000Y-9189000D02*
G75*
G02*
X13072000Y-9189000I-55000J0D01*
G01*
X13072000Y-9189000D02*
G75*
G02*
X13182000Y-9189000I55000J0D01*
G01*
X13436000Y-7411000D02*
G75*
G02*
X13326000Y-7411000I-55000J0D01*
G01*
X13326000Y-7411000D02*
G75*
G02*
X13436000Y-7411000I55000J0D01*
G01*
X13436000Y-7665000D02*
G75*
G02*
X13326000Y-7665000I-55000J0D01*
G01*
X13326000Y-7665000D02*
G75*
G02*
X13436000Y-7665000I55000J0D01*
G01*
X13436000Y-8935000D02*
G75*
G02*
X13326000Y-8935000I-55000J0D01*
G01*
X13326000Y-8935000D02*
G75*
G02*
X13436000Y-8935000I55000J0D01*
G01*
X13436000Y-9189000D02*
G75*
G02*
X13326000Y-9189000I-55000J0D01*
G01*
X13326000Y-9189000D02*
G75*
G02*
X13436000Y-9189000I55000J0D01*
G01*
X13690000Y-7411000D02*
G75*
G02*
X13580000Y-7411000I-55000J0D01*
G01*
X13580000Y-7411000D02*
G75*
G02*
X13690000Y-7411000I55000J0D01*
G01*
X13690000Y-7665000D02*
G75*
G02*
X13580000Y-7665000I-55000J0D01*
G01*
X13580000Y-7665000D02*
G75*
G02*
X13690000Y-7665000I55000J0D01*
G01*
X13690000Y-7919000D02*
G75*
G02*
X13580000Y-7919000I-55000J0D01*
G01*
X13580000Y-7919000D02*
G75*
G02*
X13690000Y-7919000I55000J0D01*
G01*
X13690000Y-8173000D02*
G75*
G02*
X13580000Y-8173000I-55000J0D01*
G01*
X13580000Y-8173000D02*
G75*
G02*
X13690000Y-8173000I55000J0D01*
G01*
X13690000Y-8427000D02*
G75*
G02*
X13580000Y-8427000I-55000J0D01*
G01*
X13580000Y-8427000D02*
G75*
G02*
X13690000Y-8427000I55000J0D01*
G01*
X13690000Y-8681000D02*
G75*
G02*
X13580000Y-8681000I-55000J0D01*
G01*
X13580000Y-8681000D02*
G75*
G02*
X13690000Y-8681000I55000J0D01*
G01*
X13690000Y-8935000D02*
G75*
G02*
X13580000Y-8935000I-55000J0D01*
G01*
X13580000Y-8935000D02*
G75*
G02*
X13690000Y-8935000I55000J0D01*
G01*
X13690000Y-9189000D02*
G75*
G02*
X13580000Y-9189000I-55000J0D01*
G01*
X13580000Y-9189000D02*
G75*
G02*
X13690000Y-9189000I55000J0D01*
G01*
X13944000Y-7665000D02*
G75*
G02*
X13834000Y-7665000I-55000J0D01*
G01*
X13834000Y-7665000D02*
G75*
G02*
X13944000Y-7665000I55000J0D01*
G01*
X13944000Y-7919000D02*
G75*
G02*
X13834000Y-7919000I-55000J0D01*
G01*
X13834000Y-7919000D02*
G75*
G02*
X13944000Y-7919000I55000J0D01*
G01*
X13944000Y-8173000D02*
G75*
G02*
X13834000Y-8173000I-55000J0D01*
G01*
X13834000Y-8173000D02*
G75*
G02*
X13944000Y-8173000I55000J0D01*
G01*
X13944000Y-8427000D02*
G75*
G02*
X13834000Y-8427000I-55000J0D01*
G01*
X13834000Y-8427000D02*
G75*
G02*
X13944000Y-8427000I55000J0D01*
G01*
X13944000Y-8681000D02*
G75*
G02*
X13834000Y-8681000I-55000J0D01*
G01*
X13834000Y-8681000D02*
G75*
G02*
X13944000Y-8681000I55000J0D01*
G01*
X13944000Y-8935000D02*
G75*
G02*
X13834000Y-8935000I-55000J0D01*
G01*
X13834000Y-8935000D02*
G75*
G02*
X13944000Y-8935000I55000J0D01*
G01*
D11*
X11658277Y-11613984D02*
X11658277Y-11413984D01*
X11658277Y-11413984D02*
X11705896Y-11413984D01*
X11705896Y-11413984D02*
X11734467Y-11423508D01*
X11734467Y-11423508D02*
X11753515Y-11442555D01*
X11753515Y-11442555D02*
X11763039Y-11461603D01*
X11763039Y-11461603D02*
X11772562Y-11499698D01*
X11772562Y-11499698D02*
X11772562Y-11528269D01*
X11772562Y-11528269D02*
X11763039Y-11566365D01*
X11763039Y-11566365D02*
X11753515Y-11585412D01*
X11753515Y-11585412D02*
X11734467Y-11604460D01*
X11734467Y-11604460D02*
X11705896Y-11613984D01*
X11705896Y-11613984D02*
X11658277Y-11613984D01*
X11858277Y-11613984D02*
X11858277Y-11480650D01*
X11858277Y-11518746D02*
X11867801Y-11499698D01*
X11867801Y-11499698D02*
X11877324Y-11490174D01*
X11877324Y-11490174D02*
X11896372Y-11480650D01*
X11896372Y-11480650D02*
X11915420Y-11480650D01*
X11982086Y-11613984D02*
X11982086Y-11480650D01*
X11982086Y-11413984D02*
X11972562Y-11423508D01*
X11972562Y-11423508D02*
X11982086Y-11433031D01*
X11982086Y-11433031D02*
X11991610Y-11423508D01*
X11991610Y-11423508D02*
X11982086Y-11413984D01*
X11982086Y-11413984D02*
X11982086Y-11433031D01*
X12105896Y-11613984D02*
X12086848Y-11604460D01*
X12086848Y-11604460D02*
X12077324Y-11585412D01*
X12077324Y-11585412D02*
X12077324Y-11413984D01*
X12210658Y-11613984D02*
X12191610Y-11604460D01*
X12191610Y-11604460D02*
X12182086Y-11585412D01*
X12182086Y-11585412D02*
X12182086Y-11413984D01*
X12439229Y-11613984D02*
X12439229Y-11413984D01*
X12439229Y-11413984D02*
X12505896Y-11556841D01*
X12505896Y-11556841D02*
X12572562Y-11413984D01*
X12572562Y-11413984D02*
X12572562Y-11613984D01*
X12753515Y-11613984D02*
X12753515Y-11509222D01*
X12753515Y-11509222D02*
X12743991Y-11490174D01*
X12743991Y-11490174D02*
X12724943Y-11480650D01*
X12724943Y-11480650D02*
X12686848Y-11480650D01*
X12686848Y-11480650D02*
X12667801Y-11490174D01*
X12753515Y-11604460D02*
X12734467Y-11613984D01*
X12734467Y-11613984D02*
X12686848Y-11613984D01*
X12686848Y-11613984D02*
X12667801Y-11604460D01*
X12667801Y-11604460D02*
X12658277Y-11585412D01*
X12658277Y-11585412D02*
X12658277Y-11566365D01*
X12658277Y-11566365D02*
X12667801Y-11547317D01*
X12667801Y-11547317D02*
X12686848Y-11537793D01*
X12686848Y-11537793D02*
X12734467Y-11537793D01*
X12734467Y-11537793D02*
X12753515Y-11528269D01*
X12848753Y-11480650D02*
X12848753Y-11680650D01*
X12848753Y-11490174D02*
X12867801Y-11480650D01*
X12867801Y-11480650D02*
X12905896Y-11480650D01*
X12905896Y-11480650D02*
X12924943Y-11490174D01*
X12924943Y-11490174D02*
X12934467Y-11499698D01*
X12934467Y-11499698D02*
X12943991Y-11518746D01*
X12943991Y-11518746D02*
X12943991Y-11575888D01*
X12943991Y-11575888D02*
X12934467Y-11594936D01*
X12934467Y-11594936D02*
X12924943Y-11604460D01*
X12924943Y-11604460D02*
X12905896Y-11613984D01*
X12905896Y-11613984D02*
X12867801Y-11613984D01*
X12867801Y-11613984D02*
X12848753Y-11604460D01*
X13029705Y-11594936D02*
X13039229Y-11604460D01*
X13039229Y-11604460D02*
X13029705Y-11613984D01*
X13029705Y-11613984D02*
X13020182Y-11604460D01*
X13020182Y-11604460D02*
X13029705Y-11594936D01*
X13029705Y-11594936D02*
X13029705Y-11613984D01*
X13029705Y-11490174D02*
X13039229Y-11499698D01*
X13039229Y-11499698D02*
X13029705Y-11509222D01*
X13029705Y-11509222D02*
X13020182Y-11499698D01*
X13020182Y-11499698D02*
X13029705Y-11490174D01*
X13029705Y-11490174D02*
X13029705Y-11509222D01*
D12*
X11295500Y-11891500D02*
X11397500Y-11993500D01*
X11397500Y-11891500D02*
X11295500Y-11993500D01*
D11*
X11763039Y-12033984D02*
X11648753Y-12033984D01*
X11705896Y-12033984D02*
X11705896Y-11833984D01*
X11705896Y-11833984D02*
X11686848Y-11862555D01*
X11686848Y-11862555D02*
X11667801Y-11881603D01*
X11667801Y-11881603D02*
X11648753Y-11891127D01*
X11848753Y-12014936D02*
X11858277Y-12024460D01*
X11858277Y-12024460D02*
X11848753Y-12033984D01*
X11848753Y-12033984D02*
X11839229Y-12024460D01*
X11839229Y-12024460D02*
X11848753Y-12014936D01*
X11848753Y-12014936D02*
X11848753Y-12033984D01*
X11982086Y-11833984D02*
X12001134Y-11833984D01*
X12001134Y-11833984D02*
X12020182Y-11843508D01*
X12020182Y-11843508D02*
X12029705Y-11853031D01*
X12029705Y-11853031D02*
X12039229Y-11872079D01*
X12039229Y-11872079D02*
X12048753Y-11910174D01*
X12048753Y-11910174D02*
X12048753Y-11957793D01*
X12048753Y-11957793D02*
X12039229Y-11995888D01*
X12039229Y-11995888D02*
X12029705Y-12014936D01*
X12029705Y-12014936D02*
X12020182Y-12024460D01*
X12020182Y-12024460D02*
X12001134Y-12033984D01*
X12001134Y-12033984D02*
X11982086Y-12033984D01*
X11982086Y-12033984D02*
X11963039Y-12024460D01*
X11963039Y-12024460D02*
X11953515Y-12014936D01*
X11953515Y-12014936D02*
X11943991Y-11995888D01*
X11943991Y-11995888D02*
X11934467Y-11957793D01*
X11934467Y-11957793D02*
X11934467Y-11910174D01*
X11934467Y-11910174D02*
X11943991Y-11872079D01*
X11943991Y-11872079D02*
X11953515Y-11853031D01*
X11953515Y-11853031D02*
X11963039Y-11843508D01*
X11963039Y-11843508D02*
X11982086Y-11833984D01*
X12124943Y-11853031D02*
X12134467Y-11843508D01*
X12134467Y-11843508D02*
X12153515Y-11833984D01*
X12153515Y-11833984D02*
X12201134Y-11833984D01*
X12201134Y-11833984D02*
X12220182Y-11843508D01*
X12220182Y-11843508D02*
X12229705Y-11853031D01*
X12229705Y-11853031D02*
X12239229Y-11872079D01*
X12239229Y-11872079D02*
X12239229Y-11891127D01*
X12239229Y-11891127D02*
X12229705Y-11919698D01*
X12229705Y-11919698D02*
X12115420Y-12033984D01*
X12115420Y-12033984D02*
X12239229Y-12033984D01*
X12363039Y-11833984D02*
X12382086Y-11833984D01*
X12382086Y-11833984D02*
X12401134Y-11843508D01*
X12401134Y-11843508D02*
X12410658Y-11853031D01*
X12410658Y-11853031D02*
X12420182Y-11872079D01*
X12420182Y-11872079D02*
X12429705Y-11910174D01*
X12429705Y-11910174D02*
X12429705Y-11957793D01*
X12429705Y-11957793D02*
X12420182Y-11995888D01*
X12420182Y-11995888D02*
X12410658Y-12014936D01*
X12410658Y-12014936D02*
X12401134Y-12024460D01*
X12401134Y-12024460D02*
X12382086Y-12033984D01*
X12382086Y-12033984D02*
X12363039Y-12033984D01*
X12363039Y-12033984D02*
X12343991Y-12024460D01*
X12343991Y-12024460D02*
X12334467Y-12014936D01*
X12334467Y-12014936D02*
X12324943Y-11995888D01*
X12324943Y-11995888D02*
X12315420Y-11957793D01*
X12315420Y-11957793D02*
X12315420Y-11910174D01*
X12315420Y-11910174D02*
X12324943Y-11872079D01*
X12324943Y-11872079D02*
X12334467Y-11853031D01*
X12334467Y-11853031D02*
X12343991Y-11843508D01*
X12343991Y-11843508D02*
X12363039Y-11833984D01*
X12515420Y-12033984D02*
X12515420Y-11900650D01*
X12515420Y-11919698D02*
X12524943Y-11910174D01*
X12524943Y-11910174D02*
X12543991Y-11900650D01*
X12543991Y-11900650D02*
X12572563Y-11900650D01*
X12572563Y-11900650D02*
X12591610Y-11910174D01*
X12591610Y-11910174D02*
X12601134Y-11929222D01*
X12601134Y-11929222D02*
X12601134Y-12033984D01*
X12601134Y-11929222D02*
X12610658Y-11910174D01*
X12610658Y-11910174D02*
X12629705Y-11900650D01*
X12629705Y-11900650D02*
X12658277Y-11900650D01*
X12658277Y-11900650D02*
X12677324Y-11910174D01*
X12677324Y-11910174D02*
X12686848Y-11929222D01*
X12686848Y-11929222D02*
X12686848Y-12033984D01*
X12782086Y-12033984D02*
X12782086Y-11900650D01*
X12782086Y-11919698D02*
X12791610Y-11910174D01*
X12791610Y-11910174D02*
X12810658Y-11900650D01*
X12810658Y-11900650D02*
X12839229Y-11900650D01*
X12839229Y-11900650D02*
X12858277Y-11910174D01*
X12858277Y-11910174D02*
X12867801Y-11929222D01*
X12867801Y-11929222D02*
X12867801Y-12033984D01*
X12867801Y-11929222D02*
X12877324Y-11910174D01*
X12877324Y-11910174D02*
X12896372Y-11900650D01*
X12896372Y-11900650D02*
X12924943Y-11900650D01*
X12924943Y-11900650D02*
X12943991Y-11910174D01*
X12943991Y-11910174D02*
X12953515Y-11929222D01*
X12953515Y-11929222D02*
X12953515Y-12033984D01*
X13343991Y-11824460D02*
X13172563Y-12081603D01*
X13601134Y-11833984D02*
X13620182Y-11833984D01*
X13620182Y-11833984D02*
X13639229Y-11843508D01*
X13639229Y-11843508D02*
X13648753Y-11853031D01*
X13648753Y-11853031D02*
X13658277Y-11872079D01*
X13658277Y-11872079D02*
X13667801Y-11910174D01*
X13667801Y-11910174D02*
X13667801Y-11957793D01*
X13667801Y-11957793D02*
X13658277Y-11995888D01*
X13658277Y-11995888D02*
X13648753Y-12014936D01*
X13648753Y-12014936D02*
X13639229Y-12024460D01*
X13639229Y-12024460D02*
X13620182Y-12033984D01*
X13620182Y-12033984D02*
X13601134Y-12033984D01*
X13601134Y-12033984D02*
X13582086Y-12024460D01*
X13582086Y-12024460D02*
X13572563Y-12014936D01*
X13572563Y-12014936D02*
X13563039Y-11995888D01*
X13563039Y-11995888D02*
X13553515Y-11957793D01*
X13553515Y-11957793D02*
X13553515Y-11910174D01*
X13553515Y-11910174D02*
X13563039Y-11872079D01*
X13563039Y-11872079D02*
X13572563Y-11853031D01*
X13572563Y-11853031D02*
X13582086Y-11843508D01*
X13582086Y-11843508D02*
X13601134Y-11833984D01*
X13753515Y-12014936D02*
X13763039Y-12024460D01*
X13763039Y-12024460D02*
X13753515Y-12033984D01*
X13753515Y-12033984D02*
X13743991Y-12024460D01*
X13743991Y-12024460D02*
X13753515Y-12014936D01*
X13753515Y-12014936D02*
X13753515Y-12033984D01*
X13886848Y-11833984D02*
X13905896Y-11833984D01*
X13905896Y-11833984D02*
X13924944Y-11843508D01*
X13924944Y-11843508D02*
X13934467Y-11853031D01*
X13934467Y-11853031D02*
X13943991Y-11872079D01*
X13943991Y-11872079D02*
X13953515Y-11910174D01*
X13953515Y-11910174D02*
X13953515Y-11957793D01*
X13953515Y-11957793D02*
X13943991Y-11995888D01*
X13943991Y-11995888D02*
X13934467Y-12014936D01*
X13934467Y-12014936D02*
X13924944Y-12024460D01*
X13924944Y-12024460D02*
X13905896Y-12033984D01*
X13905896Y-12033984D02*
X13886848Y-12033984D01*
X13886848Y-12033984D02*
X13867801Y-12024460D01*
X13867801Y-12024460D02*
X13858277Y-12014936D01*
X13858277Y-12014936D02*
X13848753Y-11995888D01*
X13848753Y-11995888D02*
X13839229Y-11957793D01*
X13839229Y-11957793D02*
X13839229Y-11910174D01*
X13839229Y-11910174D02*
X13848753Y-11872079D01*
X13848753Y-11872079D02*
X13858277Y-11853031D01*
X13858277Y-11853031D02*
X13867801Y-11843508D01*
X13867801Y-11843508D02*
X13886848Y-11833984D01*
X14124944Y-11900650D02*
X14124944Y-12033984D01*
X14077325Y-11824460D02*
X14029706Y-11967317D01*
X14029706Y-11967317D02*
X14153515Y-11967317D01*
X14267801Y-11833984D02*
X14286848Y-11833984D01*
X14286848Y-11833984D02*
X14305896Y-11843508D01*
X14305896Y-11843508D02*
X14315420Y-11853031D01*
X14315420Y-11853031D02*
X14324944Y-11872079D01*
X14324944Y-11872079D02*
X14334467Y-11910174D01*
X14334467Y-11910174D02*
X14334467Y-11957793D01*
X14334467Y-11957793D02*
X14324944Y-11995888D01*
X14324944Y-11995888D02*
X14315420Y-12014936D01*
X14315420Y-12014936D02*
X14305896Y-12024460D01*
X14305896Y-12024460D02*
X14286848Y-12033984D01*
X14286848Y-12033984D02*
X14267801Y-12033984D01*
X14267801Y-12033984D02*
X14248753Y-12024460D01*
X14248753Y-12024460D02*
X14239229Y-12014936D01*
X14239229Y-12014936D02*
X14229706Y-11995888D01*
X14229706Y-11995888D02*
X14220182Y-11957793D01*
X14220182Y-11957793D02*
X14220182Y-11910174D01*
X14220182Y-11910174D02*
X14229706Y-11872079D01*
X14229706Y-11872079D02*
X14239229Y-11853031D01*
X14239229Y-11853031D02*
X14248753Y-11843508D01*
X14248753Y-11843508D02*
X14267801Y-11833984D01*
X14410658Y-11853031D02*
X14420182Y-11843508D01*
X14420182Y-11843508D02*
X14439229Y-11833984D01*
X14439229Y-11833984D02*
X14486848Y-11833984D01*
X14486848Y-11833984D02*
X14505896Y-11843508D01*
X14505896Y-11843508D02*
X14515420Y-11853031D01*
X14515420Y-11853031D02*
X14524944Y-11872079D01*
X14524944Y-11872079D02*
X14524944Y-11891127D01*
X14524944Y-11891127D02*
X14515420Y-11919698D01*
X14515420Y-11919698D02*
X14401134Y-12033984D01*
X14401134Y-12033984D02*
X14524944Y-12033984D01*
X14601134Y-11833984D02*
X14601134Y-11872079D01*
X14677325Y-11833984D02*
X14677325Y-11872079D01*
X14972563Y-12110174D02*
X14963039Y-12100650D01*
X14963039Y-12100650D02*
X14943991Y-12072079D01*
X14943991Y-12072079D02*
X14934468Y-12053031D01*
X14934468Y-12053031D02*
X14924944Y-12024460D01*
X14924944Y-12024460D02*
X14915420Y-11976841D01*
X14915420Y-11976841D02*
X14915420Y-11938746D01*
X14915420Y-11938746D02*
X14924944Y-11891127D01*
X14924944Y-11891127D02*
X14934468Y-11862555D01*
X14934468Y-11862555D02*
X14943991Y-11843508D01*
X14943991Y-11843508D02*
X14963039Y-11814936D01*
X14963039Y-11814936D02*
X14972563Y-11805412D01*
X15134468Y-11900650D02*
X15134468Y-12033984D01*
X15086848Y-11824460D02*
X15039229Y-11967317D01*
X15039229Y-11967317D02*
X15163039Y-11967317D01*
X15324944Y-11900650D02*
X15324944Y-12033984D01*
X15277325Y-11824460D02*
X15229706Y-11967317D01*
X15229706Y-11967317D02*
X15353515Y-11967317D01*
X15582087Y-12033984D02*
X15582087Y-11833984D01*
X15667801Y-12033984D02*
X15667801Y-11929222D01*
X15667801Y-11929222D02*
X15658277Y-11910174D01*
X15658277Y-11910174D02*
X15639230Y-11900650D01*
X15639230Y-11900650D02*
X15610658Y-11900650D01*
X15610658Y-11900650D02*
X15591610Y-11910174D01*
X15591610Y-11910174D02*
X15582087Y-11919698D01*
X15791610Y-12033984D02*
X15772563Y-12024460D01*
X15772563Y-12024460D02*
X15763039Y-12014936D01*
X15763039Y-12014936D02*
X15753515Y-11995888D01*
X15753515Y-11995888D02*
X15753515Y-11938746D01*
X15753515Y-11938746D02*
X15763039Y-11919698D01*
X15763039Y-11919698D02*
X15772563Y-11910174D01*
X15772563Y-11910174D02*
X15791610Y-11900650D01*
X15791610Y-11900650D02*
X15820182Y-11900650D01*
X15820182Y-11900650D02*
X15839230Y-11910174D01*
X15839230Y-11910174D02*
X15848753Y-11919698D01*
X15848753Y-11919698D02*
X15858277Y-11938746D01*
X15858277Y-11938746D02*
X15858277Y-11995888D01*
X15858277Y-11995888D02*
X15848753Y-12014936D01*
X15848753Y-12014936D02*
X15839230Y-12024460D01*
X15839230Y-12024460D02*
X15820182Y-12033984D01*
X15820182Y-12033984D02*
X15791610Y-12033984D01*
X15972563Y-12033984D02*
X15953515Y-12024460D01*
X15953515Y-12024460D02*
X15943991Y-12005412D01*
X15943991Y-12005412D02*
X15943991Y-11833984D01*
X16124944Y-12024460D02*
X16105896Y-12033984D01*
X16105896Y-12033984D02*
X16067801Y-12033984D01*
X16067801Y-12033984D02*
X16048753Y-12024460D01*
X16048753Y-12024460D02*
X16039230Y-12005412D01*
X16039230Y-12005412D02*
X16039230Y-11929222D01*
X16039230Y-11929222D02*
X16048753Y-11910174D01*
X16048753Y-11910174D02*
X16067801Y-11900650D01*
X16067801Y-11900650D02*
X16105896Y-11900650D01*
X16105896Y-11900650D02*
X16124944Y-11910174D01*
X16124944Y-11910174D02*
X16134468Y-11929222D01*
X16134468Y-11929222D02*
X16134468Y-11948269D01*
X16134468Y-11948269D02*
X16039230Y-11967317D01*
X16210658Y-12024460D02*
X16229706Y-12033984D01*
X16229706Y-12033984D02*
X16267801Y-12033984D01*
X16267801Y-12033984D02*
X16286849Y-12024460D01*
X16286849Y-12024460D02*
X16296372Y-12005412D01*
X16296372Y-12005412D02*
X16296372Y-11995888D01*
X16296372Y-11995888D02*
X16286849Y-11976841D01*
X16286849Y-11976841D02*
X16267801Y-11967317D01*
X16267801Y-11967317D02*
X16239230Y-11967317D01*
X16239230Y-11967317D02*
X16220182Y-11957793D01*
X16220182Y-11957793D02*
X16210658Y-11938746D01*
X16210658Y-11938746D02*
X16210658Y-11929222D01*
X16210658Y-11929222D02*
X16220182Y-11910174D01*
X16220182Y-11910174D02*
X16239230Y-11900650D01*
X16239230Y-11900650D02*
X16267801Y-11900650D01*
X16267801Y-11900650D02*
X16286849Y-11910174D01*
X16363039Y-12110174D02*
X16372563Y-12100650D01*
X16372563Y-12100650D02*
X16391611Y-12072079D01*
X16391611Y-12072079D02*
X16401134Y-12053031D01*
X16401134Y-12053031D02*
X16410658Y-12024460D01*
X16410658Y-12024460D02*
X16420182Y-11976841D01*
X16420182Y-11976841D02*
X16420182Y-11938746D01*
X16420182Y-11938746D02*
X16410658Y-11891127D01*
X16410658Y-11891127D02*
X16401134Y-11862555D01*
X16401134Y-11862555D02*
X16391611Y-11843508D01*
X16391611Y-11843508D02*
X16372563Y-11814936D01*
X16372563Y-11814936D02*
X16363039Y-11805412D01*
D13*
X11397500Y-12206500D02*
G75*
G02*
X11287500Y-12206500I-55000J0D01*
G01*
X11287500Y-12206500D02*
G75*
G02*
X11397500Y-12206500I55000J0D01*
G01*
D11*
X11763039Y-12297984D02*
X11648753Y-12297984D01*
X11705896Y-12297984D02*
X11705896Y-12097984D01*
X11705896Y-12097984D02*
X11686848Y-12126555D01*
X11686848Y-12126555D02*
X11667801Y-12145603D01*
X11667801Y-12145603D02*
X11648753Y-12155127D01*
X11848753Y-12278936D02*
X11858277Y-12288460D01*
X11858277Y-12288460D02*
X11848753Y-12297984D01*
X11848753Y-12297984D02*
X11839229Y-12288460D01*
X11839229Y-12288460D02*
X11848753Y-12278936D01*
X11848753Y-12278936D02*
X11848753Y-12297984D01*
X12048753Y-12297984D02*
X11934467Y-12297984D01*
X11991610Y-12297984D02*
X11991610Y-12097984D01*
X11991610Y-12097984D02*
X11972562Y-12126555D01*
X11972562Y-12126555D02*
X11953515Y-12145603D01*
X11953515Y-12145603D02*
X11934467Y-12155127D01*
X12172562Y-12097984D02*
X12191610Y-12097984D01*
X12191610Y-12097984D02*
X12210658Y-12107508D01*
X12210658Y-12107508D02*
X12220182Y-12117031D01*
X12220182Y-12117031D02*
X12229705Y-12136079D01*
X12229705Y-12136079D02*
X12239229Y-12174174D01*
X12239229Y-12174174D02*
X12239229Y-12221793D01*
X12239229Y-12221793D02*
X12229705Y-12259888D01*
X12229705Y-12259888D02*
X12220182Y-12278936D01*
X12220182Y-12278936D02*
X12210658Y-12288460D01*
X12210658Y-12288460D02*
X12191610Y-12297984D01*
X12191610Y-12297984D02*
X12172562Y-12297984D01*
X12172562Y-12297984D02*
X12153515Y-12288460D01*
X12153515Y-12288460D02*
X12143991Y-12278936D01*
X12143991Y-12278936D02*
X12134467Y-12259888D01*
X12134467Y-12259888D02*
X12124943Y-12221793D01*
X12124943Y-12221793D02*
X12124943Y-12174174D01*
X12124943Y-12174174D02*
X12134467Y-12136079D01*
X12134467Y-12136079D02*
X12143991Y-12117031D01*
X12143991Y-12117031D02*
X12153515Y-12107508D01*
X12153515Y-12107508D02*
X12172562Y-12097984D01*
X12363039Y-12097984D02*
X12382086Y-12097984D01*
X12382086Y-12097984D02*
X12401134Y-12107508D01*
X12401134Y-12107508D02*
X12410658Y-12117031D01*
X12410658Y-12117031D02*
X12420182Y-12136079D01*
X12420182Y-12136079D02*
X12429705Y-12174174D01*
X12429705Y-12174174D02*
X12429705Y-12221793D01*
X12429705Y-12221793D02*
X12420182Y-12259888D01*
X12420182Y-12259888D02*
X12410658Y-12278936D01*
X12410658Y-12278936D02*
X12401134Y-12288460D01*
X12401134Y-12288460D02*
X12382086Y-12297984D01*
X12382086Y-12297984D02*
X12363039Y-12297984D01*
X12363039Y-12297984D02*
X12343991Y-12288460D01*
X12343991Y-12288460D02*
X12334467Y-12278936D01*
X12334467Y-12278936D02*
X12324943Y-12259888D01*
X12324943Y-12259888D02*
X12315420Y-12221793D01*
X12315420Y-12221793D02*
X12315420Y-12174174D01*
X12315420Y-12174174D02*
X12324943Y-12136079D01*
X12324943Y-12136079D02*
X12334467Y-12117031D01*
X12334467Y-12117031D02*
X12343991Y-12107508D01*
X12343991Y-12107508D02*
X12363039Y-12097984D01*
X12515420Y-12297984D02*
X12515420Y-12164650D01*
X12515420Y-12183698D02*
X12524943Y-12174174D01*
X12524943Y-12174174D02*
X12543991Y-12164650D01*
X12543991Y-12164650D02*
X12572563Y-12164650D01*
X12572563Y-12164650D02*
X12591610Y-12174174D01*
X12591610Y-12174174D02*
X12601134Y-12193222D01*
X12601134Y-12193222D02*
X12601134Y-12297984D01*
X12601134Y-12193222D02*
X12610658Y-12174174D01*
X12610658Y-12174174D02*
X12629705Y-12164650D01*
X12629705Y-12164650D02*
X12658277Y-12164650D01*
X12658277Y-12164650D02*
X12677324Y-12174174D01*
X12677324Y-12174174D02*
X12686848Y-12193222D01*
X12686848Y-12193222D02*
X12686848Y-12297984D01*
X12782086Y-12297984D02*
X12782086Y-12164650D01*
X12782086Y-12183698D02*
X12791610Y-12174174D01*
X12791610Y-12174174D02*
X12810658Y-12164650D01*
X12810658Y-12164650D02*
X12839229Y-12164650D01*
X12839229Y-12164650D02*
X12858277Y-12174174D01*
X12858277Y-12174174D02*
X12867801Y-12193222D01*
X12867801Y-12193222D02*
X12867801Y-12297984D01*
X12867801Y-12193222D02*
X12877324Y-12174174D01*
X12877324Y-12174174D02*
X12896372Y-12164650D01*
X12896372Y-12164650D02*
X12924943Y-12164650D01*
X12924943Y-12164650D02*
X12943991Y-12174174D01*
X12943991Y-12174174D02*
X12953515Y-12193222D01*
X12953515Y-12193222D02*
X12953515Y-12297984D01*
X13343991Y-12088460D02*
X13172563Y-12345603D01*
X13601134Y-12097984D02*
X13620182Y-12097984D01*
X13620182Y-12097984D02*
X13639229Y-12107508D01*
X13639229Y-12107508D02*
X13648753Y-12117031D01*
X13648753Y-12117031D02*
X13658277Y-12136079D01*
X13658277Y-12136079D02*
X13667801Y-12174174D01*
X13667801Y-12174174D02*
X13667801Y-12221793D01*
X13667801Y-12221793D02*
X13658277Y-12259888D01*
X13658277Y-12259888D02*
X13648753Y-12278936D01*
X13648753Y-12278936D02*
X13639229Y-12288460D01*
X13639229Y-12288460D02*
X13620182Y-12297984D01*
X13620182Y-12297984D02*
X13601134Y-12297984D01*
X13601134Y-12297984D02*
X13582086Y-12288460D01*
X13582086Y-12288460D02*
X13572563Y-12278936D01*
X13572563Y-12278936D02*
X13563039Y-12259888D01*
X13563039Y-12259888D02*
X13553515Y-12221793D01*
X13553515Y-12221793D02*
X13553515Y-12174174D01*
X13553515Y-12174174D02*
X13563039Y-12136079D01*
X13563039Y-12136079D02*
X13572563Y-12117031D01*
X13572563Y-12117031D02*
X13582086Y-12107508D01*
X13582086Y-12107508D02*
X13601134Y-12097984D01*
X13753515Y-12278936D02*
X13763039Y-12288460D01*
X13763039Y-12288460D02*
X13753515Y-12297984D01*
X13753515Y-12297984D02*
X13743991Y-12288460D01*
X13743991Y-12288460D02*
X13753515Y-12278936D01*
X13753515Y-12278936D02*
X13753515Y-12297984D01*
X13886848Y-12097984D02*
X13905896Y-12097984D01*
X13905896Y-12097984D02*
X13924944Y-12107508D01*
X13924944Y-12107508D02*
X13934467Y-12117031D01*
X13934467Y-12117031D02*
X13943991Y-12136079D01*
X13943991Y-12136079D02*
X13953515Y-12174174D01*
X13953515Y-12174174D02*
X13953515Y-12221793D01*
X13953515Y-12221793D02*
X13943991Y-12259888D01*
X13943991Y-12259888D02*
X13934467Y-12278936D01*
X13934467Y-12278936D02*
X13924944Y-12288460D01*
X13924944Y-12288460D02*
X13905896Y-12297984D01*
X13905896Y-12297984D02*
X13886848Y-12297984D01*
X13886848Y-12297984D02*
X13867801Y-12288460D01*
X13867801Y-12288460D02*
X13858277Y-12278936D01*
X13858277Y-12278936D02*
X13848753Y-12259888D01*
X13848753Y-12259888D02*
X13839229Y-12221793D01*
X13839229Y-12221793D02*
X13839229Y-12174174D01*
X13839229Y-12174174D02*
X13848753Y-12136079D01*
X13848753Y-12136079D02*
X13858277Y-12117031D01*
X13858277Y-12117031D02*
X13867801Y-12107508D01*
X13867801Y-12107508D02*
X13886848Y-12097984D01*
X14124944Y-12164650D02*
X14124944Y-12297984D01*
X14077325Y-12088460D02*
X14029706Y-12231317D01*
X14029706Y-12231317D02*
X14153515Y-12231317D01*
X14210658Y-12097984D02*
X14334467Y-12097984D01*
X14334467Y-12097984D02*
X14267801Y-12174174D01*
X14267801Y-12174174D02*
X14296372Y-12174174D01*
X14296372Y-12174174D02*
X14315420Y-12183698D01*
X14315420Y-12183698D02*
X14324944Y-12193222D01*
X14324944Y-12193222D02*
X14334467Y-12212269D01*
X14334467Y-12212269D02*
X14334467Y-12259888D01*
X14334467Y-12259888D02*
X14324944Y-12278936D01*
X14324944Y-12278936D02*
X14315420Y-12288460D01*
X14315420Y-12288460D02*
X14296372Y-12297984D01*
X14296372Y-12297984D02*
X14239229Y-12297984D01*
X14239229Y-12297984D02*
X14220182Y-12288460D01*
X14220182Y-12288460D02*
X14210658Y-12278936D01*
X14401134Y-12097984D02*
X14524944Y-12097984D01*
X14524944Y-12097984D02*
X14458277Y-12174174D01*
X14458277Y-12174174D02*
X14486848Y-12174174D01*
X14486848Y-12174174D02*
X14505896Y-12183698D01*
X14505896Y-12183698D02*
X14515420Y-12193222D01*
X14515420Y-12193222D02*
X14524944Y-12212269D01*
X14524944Y-12212269D02*
X14524944Y-12259888D01*
X14524944Y-12259888D02*
X14515420Y-12278936D01*
X14515420Y-12278936D02*
X14505896Y-12288460D01*
X14505896Y-12288460D02*
X14486848Y-12297984D01*
X14486848Y-12297984D02*
X14429706Y-12297984D01*
X14429706Y-12297984D02*
X14410658Y-12288460D01*
X14410658Y-12288460D02*
X14401134Y-12278936D01*
X14601134Y-12097984D02*
X14601134Y-12136079D01*
X14677325Y-12097984D02*
X14677325Y-12136079D01*
X14972563Y-12374174D02*
X14963039Y-12364650D01*
X14963039Y-12364650D02*
X14943991Y-12336079D01*
X14943991Y-12336079D02*
X14934468Y-12317031D01*
X14934468Y-12317031D02*
X14924944Y-12288460D01*
X14924944Y-12288460D02*
X14915420Y-12240841D01*
X14915420Y-12240841D02*
X14915420Y-12202746D01*
X14915420Y-12202746D02*
X14924944Y-12155127D01*
X14924944Y-12155127D02*
X14934468Y-12126555D01*
X14934468Y-12126555D02*
X14943991Y-12107508D01*
X14943991Y-12107508D02*
X14963039Y-12078936D01*
X14963039Y-12078936D02*
X14972563Y-12069412D01*
X15134468Y-12164650D02*
X15134468Y-12297984D01*
X15086848Y-12088460D02*
X15039229Y-12231317D01*
X15039229Y-12231317D02*
X15163039Y-12231317D01*
X15324944Y-12164650D02*
X15324944Y-12297984D01*
X15277325Y-12088460D02*
X15229706Y-12231317D01*
X15229706Y-12231317D02*
X15353515Y-12231317D01*
X15582087Y-12297984D02*
X15582087Y-12097984D01*
X15667801Y-12297984D02*
X15667801Y-12193222D01*
X15667801Y-12193222D02*
X15658277Y-12174174D01*
X15658277Y-12174174D02*
X15639230Y-12164650D01*
X15639230Y-12164650D02*
X15610658Y-12164650D01*
X15610658Y-12164650D02*
X15591610Y-12174174D01*
X15591610Y-12174174D02*
X15582087Y-12183698D01*
X15791610Y-12297984D02*
X15772563Y-12288460D01*
X15772563Y-12288460D02*
X15763039Y-12278936D01*
X15763039Y-12278936D02*
X15753515Y-12259888D01*
X15753515Y-12259888D02*
X15753515Y-12202746D01*
X15753515Y-12202746D02*
X15763039Y-12183698D01*
X15763039Y-12183698D02*
X15772563Y-12174174D01*
X15772563Y-12174174D02*
X15791610Y-12164650D01*
X15791610Y-12164650D02*
X15820182Y-12164650D01*
X15820182Y-12164650D02*
X15839230Y-12174174D01*
X15839230Y-12174174D02*
X15848753Y-12183698D01*
X15848753Y-12183698D02*
X15858277Y-12202746D01*
X15858277Y-12202746D02*
X15858277Y-12259888D01*
X15858277Y-12259888D02*
X15848753Y-12278936D01*
X15848753Y-12278936D02*
X15839230Y-12288460D01*
X15839230Y-12288460D02*
X15820182Y-12297984D01*
X15820182Y-12297984D02*
X15791610Y-12297984D01*
X15972563Y-12297984D02*
X15953515Y-12288460D01*
X15953515Y-12288460D02*
X15943991Y-12269412D01*
X15943991Y-12269412D02*
X15943991Y-12097984D01*
X16124944Y-12288460D02*
X16105896Y-12297984D01*
X16105896Y-12297984D02*
X16067801Y-12297984D01*
X16067801Y-12297984D02*
X16048753Y-12288460D01*
X16048753Y-12288460D02*
X16039230Y-12269412D01*
X16039230Y-12269412D02*
X16039230Y-12193222D01*
X16039230Y-12193222D02*
X16048753Y-12174174D01*
X16048753Y-12174174D02*
X16067801Y-12164650D01*
X16067801Y-12164650D02*
X16105896Y-12164650D01*
X16105896Y-12164650D02*
X16124944Y-12174174D01*
X16124944Y-12174174D02*
X16134468Y-12193222D01*
X16134468Y-12193222D02*
X16134468Y-12212269D01*
X16134468Y-12212269D02*
X16039230Y-12231317D01*
X16210658Y-12288460D02*
X16229706Y-12297984D01*
X16229706Y-12297984D02*
X16267801Y-12297984D01*
X16267801Y-12297984D02*
X16286849Y-12288460D01*
X16286849Y-12288460D02*
X16296372Y-12269412D01*
X16296372Y-12269412D02*
X16296372Y-12259888D01*
X16296372Y-12259888D02*
X16286849Y-12240841D01*
X16286849Y-12240841D02*
X16267801Y-12231317D01*
X16267801Y-12231317D02*
X16239230Y-12231317D01*
X16239230Y-12231317D02*
X16220182Y-12221793D01*
X16220182Y-12221793D02*
X16210658Y-12202746D01*
X16210658Y-12202746D02*
X16210658Y-12193222D01*
X16210658Y-12193222D02*
X16220182Y-12174174D01*
X16220182Y-12174174D02*
X16239230Y-12164650D01*
X16239230Y-12164650D02*
X16267801Y-12164650D01*
X16267801Y-12164650D02*
X16286849Y-12174174D01*
X16363039Y-12374174D02*
X16372563Y-12364650D01*
X16372563Y-12364650D02*
X16391611Y-12336079D01*
X16391611Y-12336079D02*
X16401134Y-12317031D01*
X16401134Y-12317031D02*
X16410658Y-12288460D01*
X16410658Y-12288460D02*
X16420182Y-12240841D01*
X16420182Y-12240841D02*
X16420182Y-12202746D01*
X16420182Y-12202746D02*
X16410658Y-12155127D01*
X16410658Y-12155127D02*
X16401134Y-12126555D01*
X16401134Y-12126555D02*
X16391611Y-12107508D01*
X16391611Y-12107508D02*
X16372563Y-12078936D01*
X16372563Y-12078936D02*
X16363039Y-12069412D01*
M02*
