%TF.GenerationSoftware,KiCad,Pcbnew,8.0.5*%
%TF.CreationDate,2024-10-23T12:28:47+01:00*%
%TF.ProjectId,PLCC to DIP 44 True,504c4343-2074-46f2-9044-495020343420,rev?*%
%TF.SameCoordinates,Original*%
%TF.FileFunction,Legend,Bot*%
%TF.FilePolarity,Positive*%
%FSLAX46Y46*%
G04 Gerber Fmt 4.6, Leading zero omitted, Abs format (unit mm)*
G04 Created by KiCad (PCBNEW 8.0.5) date 2024-10-23 12:28:47*
%MOMM*%
%LPD*%
G01*
G04 APERTURE LIST*
%ADD10C,0.100000*%
%ADD11C,0.150000*%
%ADD12C,0.000000*%
%ADD13C,0.200000*%
G04 APERTURE END LIST*
D10*
G36*
X115269060Y-105379054D02*
G01*
X115352130Y-105420589D01*
X115388277Y-105456735D01*
X115426988Y-105534157D01*
X115426988Y-105605788D01*
X115388277Y-105683210D01*
X115352130Y-105719356D01*
X115269060Y-105760892D01*
X115089880Y-105805687D01*
X114864095Y-105805687D01*
X114684916Y-105760892D01*
X114601844Y-105719356D01*
X114565699Y-105683212D01*
X114526988Y-105605789D01*
X114526988Y-105534157D01*
X114565699Y-105456733D01*
X114601844Y-105420589D01*
X114684916Y-105379053D01*
X114864095Y-105334259D01*
X115089880Y-105334259D01*
X115269060Y-105379054D01*
G37*
G36*
X114971179Y-102706303D02*
G01*
X115007323Y-102742448D01*
X115046035Y-102819871D01*
X115046035Y-102986740D01*
X115007323Y-103064163D01*
X114971179Y-103100308D01*
X114893756Y-103139020D01*
X114679268Y-103139020D01*
X114601844Y-103100308D01*
X114565699Y-103064164D01*
X114526988Y-102986741D01*
X114526988Y-102819871D01*
X114565699Y-102742447D01*
X114601844Y-102706303D01*
X114679268Y-102667592D01*
X114893756Y-102667592D01*
X114971179Y-102706303D01*
G37*
G36*
X114780703Y-100039636D02*
G01*
X114816847Y-100075781D01*
X114855559Y-100153204D01*
X114855559Y-100320073D01*
X114816847Y-100397496D01*
X114780703Y-100433641D01*
X114703280Y-100472353D01*
X114679268Y-100472353D01*
X114601844Y-100433641D01*
X114565699Y-100397497D01*
X114526988Y-100320074D01*
X114526988Y-100153204D01*
X114565699Y-100075780D01*
X114601844Y-100039636D01*
X114679268Y-100000925D01*
X114703280Y-100000925D01*
X114780703Y-100039636D01*
G37*
G36*
X115352130Y-100039636D02*
G01*
X115388277Y-100075782D01*
X115426988Y-100153204D01*
X115426988Y-100320073D01*
X115388277Y-100397495D01*
X115352130Y-100433641D01*
X115274708Y-100472353D01*
X115107839Y-100472353D01*
X115030415Y-100433641D01*
X114994270Y-100397497D01*
X114955559Y-100320074D01*
X114955559Y-100153204D01*
X114994270Y-100075780D01*
X115030415Y-100039636D01*
X115107839Y-100000925D01*
X115274708Y-100000925D01*
X115352130Y-100039636D01*
G37*
G36*
X115352130Y-94706302D02*
G01*
X115388277Y-94742448D01*
X115426988Y-94819870D01*
X115426988Y-94986739D01*
X115388277Y-95064161D01*
X115352130Y-95100307D01*
X115274708Y-95139019D01*
X115060220Y-95139019D01*
X114982796Y-95100307D01*
X114946651Y-95064163D01*
X114907940Y-94986740D01*
X114907940Y-94819870D01*
X114946651Y-94742446D01*
X114982796Y-94706302D01*
X115060220Y-94667591D01*
X115274708Y-94667591D01*
X115352130Y-94706302D01*
G37*
G36*
X115638099Y-106016798D02*
G01*
X114315877Y-106016798D01*
X114315877Y-105522354D01*
X114426988Y-105522354D01*
X114426988Y-105617592D01*
X114427476Y-105620048D01*
X114427114Y-105621137D01*
X114429230Y-105628864D01*
X114430794Y-105636726D01*
X114431605Y-105637537D01*
X114432267Y-105639953D01*
X114479885Y-105735190D01*
X114484800Y-105741523D01*
X114489252Y-105748185D01*
X114536870Y-105795804D01*
X114543536Y-105800258D01*
X114549865Y-105805170D01*
X114645103Y-105852789D01*
X114650384Y-105854235D01*
X114655337Y-105856575D01*
X114845813Y-105904194D01*
X114851930Y-105904491D01*
X114857940Y-105905687D01*
X115096035Y-105905687D01*
X115102044Y-105904491D01*
X115108162Y-105904194D01*
X115298638Y-105856575D01*
X115303590Y-105854235D01*
X115308872Y-105852789D01*
X115404109Y-105805171D01*
X115410437Y-105800259D01*
X115417104Y-105795805D01*
X115464724Y-105748186D01*
X115469178Y-105741519D01*
X115474090Y-105735191D01*
X115521709Y-105639953D01*
X115522370Y-105637537D01*
X115523182Y-105636726D01*
X115524745Y-105628864D01*
X115526862Y-105621137D01*
X115526499Y-105620048D01*
X115526988Y-105617592D01*
X115526988Y-105522354D01*
X115526499Y-105519897D01*
X115526862Y-105518809D01*
X115524745Y-105511081D01*
X115523182Y-105503220D01*
X115522370Y-105502408D01*
X115521709Y-105499993D01*
X115474090Y-105404755D01*
X115469178Y-105398426D01*
X115464724Y-105391760D01*
X115417104Y-105344141D01*
X115410437Y-105339686D01*
X115404109Y-105334775D01*
X115308872Y-105287157D01*
X115303590Y-105285710D01*
X115298638Y-105283371D01*
X115108162Y-105235752D01*
X115102044Y-105235454D01*
X115096035Y-105234259D01*
X114857940Y-105234259D01*
X114851930Y-105235454D01*
X114845813Y-105235752D01*
X114655337Y-105283371D01*
X114650384Y-105285710D01*
X114645103Y-105287157D01*
X114549865Y-105334776D01*
X114543536Y-105339687D01*
X114536870Y-105344142D01*
X114489252Y-105391761D01*
X114484800Y-105398422D01*
X114479885Y-105404756D01*
X114432267Y-105499993D01*
X114431605Y-105502408D01*
X114430794Y-105503220D01*
X114429230Y-105511081D01*
X114427114Y-105518809D01*
X114427476Y-105519897D01*
X114426988Y-105522354D01*
X114315877Y-105522354D01*
X114315877Y-104474735D01*
X114426988Y-104474735D01*
X114426988Y-104712830D01*
X114427476Y-104715286D01*
X114427114Y-104716375D01*
X114429230Y-104724102D01*
X114430794Y-104731964D01*
X114431605Y-104732775D01*
X114432267Y-104735191D01*
X114479885Y-104830428D01*
X114484800Y-104836761D01*
X114489252Y-104843423D01*
X114536870Y-104891042D01*
X114543536Y-104895496D01*
X114549865Y-104900408D01*
X114645103Y-104948027D01*
X114647518Y-104948688D01*
X114648330Y-104949500D01*
X114656191Y-104951063D01*
X114663919Y-104953180D01*
X114665007Y-104952817D01*
X114667464Y-104953306D01*
X114762702Y-104953306D01*
X114770564Y-104951742D01*
X114778513Y-104950740D01*
X114921370Y-104903121D01*
X114923545Y-104901881D01*
X114924693Y-104901881D01*
X114931357Y-104897427D01*
X114938318Y-104893460D01*
X114938831Y-104892433D01*
X114940914Y-104891042D01*
X115426988Y-104404968D01*
X115426988Y-104903306D01*
X115430794Y-104922440D01*
X115457854Y-104949500D01*
X115496122Y-104949500D01*
X115523182Y-104922440D01*
X115526988Y-104903306D01*
X115526988Y-104284259D01*
X115523182Y-104265125D01*
X115496122Y-104238065D01*
X115457854Y-104238065D01*
X115441633Y-104248904D01*
X114878550Y-104811985D01*
X114754589Y-104853306D01*
X114679268Y-104853306D01*
X114601844Y-104814594D01*
X114565699Y-104778450D01*
X114526988Y-104701027D01*
X114526988Y-104486538D01*
X114565699Y-104409114D01*
X114607581Y-104367234D01*
X114618420Y-104351013D01*
X114618420Y-104312744D01*
X114591360Y-104285684D01*
X114553091Y-104285684D01*
X114536870Y-104296523D01*
X114489252Y-104344142D01*
X114484800Y-104350803D01*
X114479885Y-104357137D01*
X114432267Y-104452374D01*
X114431605Y-104454789D01*
X114430794Y-104455601D01*
X114429230Y-104463462D01*
X114427114Y-104471190D01*
X114427476Y-104472278D01*
X114426988Y-104474735D01*
X114315877Y-104474735D01*
X114315877Y-102808068D01*
X114426988Y-102808068D01*
X114426988Y-102998544D01*
X114427476Y-103001000D01*
X114427114Y-103002089D01*
X114429230Y-103009816D01*
X114430794Y-103017678D01*
X114431605Y-103018489D01*
X114432267Y-103020905D01*
X114479885Y-103116142D01*
X114484800Y-103122475D01*
X114489252Y-103129137D01*
X114536870Y-103176756D01*
X114543536Y-103181210D01*
X114549865Y-103186122D01*
X114645103Y-103233741D01*
X114647518Y-103234402D01*
X114648330Y-103235214D01*
X114656191Y-103236777D01*
X114663919Y-103238894D01*
X114665007Y-103238531D01*
X114667464Y-103239020D01*
X115048416Y-103239020D01*
X115054425Y-103237824D01*
X115060543Y-103237527D01*
X115251019Y-103189908D01*
X115258734Y-103186263D01*
X115266627Y-103183004D01*
X115409484Y-103087765D01*
X115412985Y-103084270D01*
X115417104Y-103081519D01*
X115464724Y-103033900D01*
X115469178Y-103027233D01*
X115474090Y-103020905D01*
X115521709Y-102925667D01*
X115522370Y-102923251D01*
X115523182Y-102922440D01*
X115524745Y-102914578D01*
X115526862Y-102906851D01*
X115526499Y-102905762D01*
X115526988Y-102903306D01*
X115526988Y-102712830D01*
X115523182Y-102693696D01*
X115496122Y-102666636D01*
X115457854Y-102666636D01*
X115430794Y-102693696D01*
X115426988Y-102712830D01*
X115426988Y-102891502D01*
X115388277Y-102968924D01*
X115349895Y-103007305D01*
X115218361Y-103094994D01*
X115084168Y-103128543D01*
X115088225Y-103122471D01*
X115093137Y-103116143D01*
X115140756Y-103020905D01*
X115141417Y-103018489D01*
X115142229Y-103017678D01*
X115143792Y-103009816D01*
X115145909Y-103002089D01*
X115145546Y-103001000D01*
X115146035Y-102998544D01*
X115146035Y-102808068D01*
X115145546Y-102805611D01*
X115145909Y-102804523D01*
X115143792Y-102796795D01*
X115142229Y-102788934D01*
X115141417Y-102788122D01*
X115140756Y-102785707D01*
X115093137Y-102690469D01*
X115088225Y-102684140D01*
X115083771Y-102677474D01*
X115036152Y-102629856D01*
X115029490Y-102625404D01*
X115023157Y-102620489D01*
X114927920Y-102572871D01*
X114925504Y-102572209D01*
X114924693Y-102571398D01*
X114916831Y-102569834D01*
X114909104Y-102567718D01*
X114908015Y-102568080D01*
X114905559Y-102567592D01*
X114667464Y-102567592D01*
X114665007Y-102568080D01*
X114663919Y-102567718D01*
X114656191Y-102569834D01*
X114648330Y-102571398D01*
X114647518Y-102572209D01*
X114645103Y-102572871D01*
X114549865Y-102620490D01*
X114543536Y-102625401D01*
X114536870Y-102629856D01*
X114489252Y-102677475D01*
X114484800Y-102684136D01*
X114479885Y-102690470D01*
X114432267Y-102785707D01*
X114431605Y-102788122D01*
X114430794Y-102788934D01*
X114429230Y-102796795D01*
X114427114Y-102804523D01*
X114427476Y-102805611D01*
X114426988Y-102808068D01*
X114315877Y-102808068D01*
X114315877Y-101960628D01*
X114427939Y-101960628D01*
X114430794Y-101964910D01*
X114430794Y-101970059D01*
X114441090Y-101980355D01*
X114449166Y-101992469D01*
X114454213Y-101993478D01*
X114457854Y-101997119D01*
X114476988Y-102000925D01*
X115426988Y-102000925D01*
X115426988Y-102236639D01*
X115430794Y-102255773D01*
X115457854Y-102282833D01*
X115496122Y-102282833D01*
X115523182Y-102255773D01*
X115526988Y-102236639D01*
X115526988Y-101665211D01*
X115523182Y-101646077D01*
X115496122Y-101619017D01*
X115457854Y-101619017D01*
X115430794Y-101646077D01*
X115426988Y-101665211D01*
X115426988Y-101900925D01*
X114642126Y-101900925D01*
X114647580Y-101897289D01*
X114651084Y-101893792D01*
X114655200Y-101891042D01*
X114750438Y-101795804D01*
X114754888Y-101789144D01*
X114759804Y-101782810D01*
X114807423Y-101687572D01*
X114812576Y-101668756D01*
X114800474Y-101632451D01*
X114766246Y-101615337D01*
X114729942Y-101627439D01*
X114717980Y-101642851D01*
X114673989Y-101730832D01*
X114587994Y-101816828D01*
X114449253Y-101909322D01*
X114435444Y-101923103D01*
X114434434Y-101928150D01*
X114430794Y-101931791D01*
X114430794Y-101946353D01*
X114427939Y-101960628D01*
X114315877Y-101960628D01*
X114315877Y-100141401D01*
X114426988Y-100141401D01*
X114426988Y-100331877D01*
X114427476Y-100334333D01*
X114427114Y-100335422D01*
X114429230Y-100343149D01*
X114430794Y-100351011D01*
X114431605Y-100351822D01*
X114432267Y-100354238D01*
X114479885Y-100449475D01*
X114484800Y-100455808D01*
X114489252Y-100462470D01*
X114536870Y-100510089D01*
X114543536Y-100514543D01*
X114549865Y-100519455D01*
X114645103Y-100567074D01*
X114647518Y-100567735D01*
X114648330Y-100568547D01*
X114656191Y-100570110D01*
X114663919Y-100572227D01*
X114665007Y-100571864D01*
X114667464Y-100572353D01*
X114715083Y-100572353D01*
X114717539Y-100571864D01*
X114718628Y-100572227D01*
X114726355Y-100570110D01*
X114734217Y-100568547D01*
X114735028Y-100567735D01*
X114737444Y-100567074D01*
X114832681Y-100519456D01*
X114839014Y-100514540D01*
X114845676Y-100510089D01*
X114893295Y-100462471D01*
X114897749Y-100455804D01*
X114902661Y-100449476D01*
X114905558Y-100443680D01*
X114908456Y-100449475D01*
X114913371Y-100455808D01*
X114917823Y-100462470D01*
X114965441Y-100510089D01*
X114972107Y-100514543D01*
X114978436Y-100519455D01*
X115073674Y-100567074D01*
X115076089Y-100567735D01*
X115076901Y-100568547D01*
X115084762Y-100570110D01*
X115092490Y-100572227D01*
X115093578Y-100571864D01*
X115096035Y-100572353D01*
X115286511Y-100572353D01*
X115288967Y-100571864D01*
X115290056Y-100572227D01*
X115297783Y-100570110D01*
X115305645Y-100568547D01*
X115306456Y-100567735D01*
X115308872Y-100567074D01*
X115404109Y-100519456D01*
X115410437Y-100514544D01*
X115417104Y-100510090D01*
X115464724Y-100462471D01*
X115469178Y-100455804D01*
X115474090Y-100449476D01*
X115521709Y-100354238D01*
X115522370Y-100351822D01*
X115523182Y-100351011D01*
X115524745Y-100343149D01*
X115526862Y-100335422D01*
X115526499Y-100334333D01*
X115526988Y-100331877D01*
X115526988Y-100141401D01*
X115526499Y-100138944D01*
X115526862Y-100137856D01*
X115524745Y-100130128D01*
X115523182Y-100122267D01*
X115522370Y-100121455D01*
X115521709Y-100119040D01*
X115474090Y-100023802D01*
X115469178Y-100017473D01*
X115464724Y-100010807D01*
X115417104Y-99963188D01*
X115410437Y-99958733D01*
X115404109Y-99953822D01*
X115308872Y-99906204D01*
X115306456Y-99905542D01*
X115305645Y-99904731D01*
X115297783Y-99903167D01*
X115290056Y-99901051D01*
X115288967Y-99901413D01*
X115286511Y-99900925D01*
X115096035Y-99900925D01*
X115093578Y-99901413D01*
X115092490Y-99901051D01*
X115084762Y-99903167D01*
X115076901Y-99904731D01*
X115076089Y-99905542D01*
X115073674Y-99906204D01*
X114978436Y-99953823D01*
X114972107Y-99958734D01*
X114965441Y-99963189D01*
X114917823Y-100010808D01*
X114913371Y-100017469D01*
X114908456Y-100023803D01*
X114905558Y-100029597D01*
X114902661Y-100023802D01*
X114897749Y-100017473D01*
X114893295Y-100010807D01*
X114845676Y-99963189D01*
X114839014Y-99958737D01*
X114832681Y-99953822D01*
X114737444Y-99906204D01*
X114735028Y-99905542D01*
X114734217Y-99904731D01*
X114726355Y-99903167D01*
X114718628Y-99901051D01*
X114717539Y-99901413D01*
X114715083Y-99900925D01*
X114667464Y-99900925D01*
X114665007Y-99901413D01*
X114663919Y-99901051D01*
X114656191Y-99903167D01*
X114648330Y-99904731D01*
X114647518Y-99905542D01*
X114645103Y-99906204D01*
X114549865Y-99953823D01*
X114543536Y-99958734D01*
X114536870Y-99963189D01*
X114489252Y-100010808D01*
X114484800Y-100017469D01*
X114479885Y-100023803D01*
X114432267Y-100119040D01*
X114431605Y-100121455D01*
X114430794Y-100122267D01*
X114429230Y-100130128D01*
X114427114Y-100137856D01*
X114427476Y-100138944D01*
X114426988Y-100141401D01*
X114315877Y-100141401D01*
X114315877Y-99293961D01*
X114427939Y-99293961D01*
X114430794Y-99298243D01*
X114430794Y-99303392D01*
X114441090Y-99313688D01*
X114449166Y-99325802D01*
X114454213Y-99326811D01*
X114457854Y-99330452D01*
X114476988Y-99334258D01*
X115426988Y-99334258D01*
X115426988Y-99569972D01*
X115430794Y-99589106D01*
X115457854Y-99616166D01*
X115496122Y-99616166D01*
X115523182Y-99589106D01*
X115526988Y-99569972D01*
X115526988Y-98998544D01*
X115523182Y-98979410D01*
X115496122Y-98952350D01*
X115457854Y-98952350D01*
X115430794Y-98979410D01*
X115426988Y-98998544D01*
X115426988Y-99234258D01*
X114642126Y-99234258D01*
X114647580Y-99230622D01*
X114651084Y-99227125D01*
X114655200Y-99224375D01*
X114750438Y-99129137D01*
X114754888Y-99122477D01*
X114759804Y-99116143D01*
X114807423Y-99020905D01*
X114812576Y-99002089D01*
X114800474Y-98965784D01*
X114766246Y-98948670D01*
X114729942Y-98960772D01*
X114717980Y-98976184D01*
X114673989Y-99064165D01*
X114587994Y-99150161D01*
X114449253Y-99242655D01*
X114435444Y-99256436D01*
X114434434Y-99261483D01*
X114430794Y-99265124D01*
X114430794Y-99279686D01*
X114427939Y-99293961D01*
X114315877Y-99293961D01*
X114315877Y-97236639D01*
X114426988Y-97236639D01*
X114426988Y-97903305D01*
X114427070Y-97903719D01*
X114426992Y-97903915D01*
X114427210Y-97904425D01*
X114430794Y-97922439D01*
X114438032Y-97929677D01*
X114442066Y-97939089D01*
X114451028Y-97942673D01*
X114457854Y-97949499D01*
X114468092Y-97949499D01*
X114477598Y-97953301D01*
X114495564Y-97949499D01*
X114496122Y-97949499D01*
X114496271Y-97949349D01*
X114496684Y-97949262D01*
X115496684Y-97520691D01*
X115512771Y-97509656D01*
X115526984Y-97474124D01*
X115511909Y-97438951D01*
X115476378Y-97424738D01*
X115457292Y-97428777D01*
X114526988Y-97827478D01*
X114526988Y-97236639D01*
X114523182Y-97217505D01*
X114496122Y-97190445D01*
X114457854Y-97190445D01*
X114430794Y-97217505D01*
X114426988Y-97236639D01*
X114315877Y-97236639D01*
X114315877Y-96627294D01*
X114427939Y-96627294D01*
X114430794Y-96631576D01*
X114430794Y-96636725D01*
X114441090Y-96647021D01*
X114449166Y-96659135D01*
X114454213Y-96660144D01*
X114457854Y-96663785D01*
X114476988Y-96667591D01*
X115426988Y-96667591D01*
X115426988Y-96903305D01*
X115430794Y-96922439D01*
X115457854Y-96949499D01*
X115496122Y-96949499D01*
X115523182Y-96922439D01*
X115526988Y-96903305D01*
X115526988Y-96331877D01*
X115523182Y-96312743D01*
X115496122Y-96285683D01*
X115457854Y-96285683D01*
X115430794Y-96312743D01*
X115426988Y-96331877D01*
X115426988Y-96567591D01*
X114642126Y-96567591D01*
X114647580Y-96563955D01*
X114651084Y-96560458D01*
X114655200Y-96557708D01*
X114750438Y-96462470D01*
X114754888Y-96455810D01*
X114759804Y-96449476D01*
X114807423Y-96354238D01*
X114812576Y-96335422D01*
X114800474Y-96299117D01*
X114766246Y-96282003D01*
X114729942Y-96294105D01*
X114717980Y-96309517D01*
X114673989Y-96397498D01*
X114587994Y-96483494D01*
X114449253Y-96575988D01*
X114435444Y-96589769D01*
X114434434Y-96594816D01*
X114430794Y-96598457D01*
X114430794Y-96613019D01*
X114427939Y-96627294D01*
X114315877Y-96627294D01*
X114315877Y-94903305D01*
X114426988Y-94903305D01*
X114426988Y-95093781D01*
X114430794Y-95112915D01*
X114457854Y-95139975D01*
X114496122Y-95139975D01*
X114523182Y-95112915D01*
X114526988Y-95093781D01*
X114526988Y-94915108D01*
X114565699Y-94837684D01*
X114604079Y-94799305D01*
X114735610Y-94711616D01*
X114869807Y-94678067D01*
X114865752Y-94684135D01*
X114860837Y-94690469D01*
X114813219Y-94785706D01*
X114812557Y-94788121D01*
X114811746Y-94788933D01*
X114810182Y-94796794D01*
X114808066Y-94804522D01*
X114808428Y-94805610D01*
X114807940Y-94808067D01*
X114807940Y-94998543D01*
X114808428Y-95000999D01*
X114808066Y-95002088D01*
X114810182Y-95009815D01*
X114811746Y-95017677D01*
X114812557Y-95018488D01*
X114813219Y-95020904D01*
X114860837Y-95116141D01*
X114865752Y-95122474D01*
X114870204Y-95129136D01*
X114917822Y-95176755D01*
X114924488Y-95181209D01*
X114930817Y-95186121D01*
X115026055Y-95233740D01*
X115028470Y-95234401D01*
X115029282Y-95235213D01*
X115037143Y-95236776D01*
X115044871Y-95238893D01*
X115045959Y-95238530D01*
X115048416Y-95239019D01*
X115286511Y-95239019D01*
X115288967Y-95238530D01*
X115290056Y-95238893D01*
X115297783Y-95236776D01*
X115305645Y-95235213D01*
X115306456Y-95234401D01*
X115308872Y-95233740D01*
X115404109Y-95186122D01*
X115410437Y-95181210D01*
X115417104Y-95176756D01*
X115464724Y-95129137D01*
X115469178Y-95122470D01*
X115474090Y-95116142D01*
X115521709Y-95020904D01*
X115522370Y-95018488D01*
X115523182Y-95017677D01*
X115524745Y-95009815D01*
X115526862Y-95002088D01*
X115526499Y-95000999D01*
X115526988Y-94998543D01*
X115526988Y-94808067D01*
X115526499Y-94805610D01*
X115526862Y-94804522D01*
X115524745Y-94796794D01*
X115523182Y-94788933D01*
X115522370Y-94788121D01*
X115521709Y-94785706D01*
X115474090Y-94690468D01*
X115469178Y-94684139D01*
X115464724Y-94677473D01*
X115417104Y-94629854D01*
X115410437Y-94625399D01*
X115404109Y-94620488D01*
X115308872Y-94572870D01*
X115306456Y-94572208D01*
X115305645Y-94571397D01*
X115297783Y-94569833D01*
X115290056Y-94567717D01*
X115288967Y-94568079D01*
X115286511Y-94567591D01*
X114905559Y-94567591D01*
X114899549Y-94568786D01*
X114893432Y-94569084D01*
X114702956Y-94616703D01*
X114695248Y-94620344D01*
X114687348Y-94623607D01*
X114544491Y-94718845D01*
X114540986Y-94722342D01*
X114536870Y-94725093D01*
X114489252Y-94772712D01*
X114484800Y-94779373D01*
X114479885Y-94785707D01*
X114432267Y-94880944D01*
X114431605Y-94883359D01*
X114430794Y-94884171D01*
X114429230Y-94892032D01*
X114427114Y-94899760D01*
X114427476Y-94900848D01*
X114426988Y-94903305D01*
X114315877Y-94903305D01*
X114315877Y-93960627D01*
X114427939Y-93960627D01*
X114430794Y-93964909D01*
X114430794Y-93970058D01*
X114441090Y-93980354D01*
X114449166Y-93992468D01*
X114454213Y-93993477D01*
X114457854Y-93997118D01*
X114476988Y-94000924D01*
X115426988Y-94000924D01*
X115426988Y-94236638D01*
X115430794Y-94255772D01*
X115457854Y-94282832D01*
X115496122Y-94282832D01*
X115523182Y-94255772D01*
X115526988Y-94236638D01*
X115526988Y-93665210D01*
X115523182Y-93646076D01*
X115496122Y-93619016D01*
X115457854Y-93619016D01*
X115430794Y-93646076D01*
X115426988Y-93665210D01*
X115426988Y-93900924D01*
X114642126Y-93900924D01*
X114647580Y-93897288D01*
X114651084Y-93893791D01*
X114655200Y-93891041D01*
X114750438Y-93795803D01*
X114754888Y-93789143D01*
X114759804Y-93782809D01*
X114807423Y-93687571D01*
X114812576Y-93668755D01*
X114800474Y-93632450D01*
X114766246Y-93615336D01*
X114729942Y-93627438D01*
X114717980Y-93642850D01*
X114673989Y-93730831D01*
X114587994Y-93816827D01*
X114449253Y-93909321D01*
X114435444Y-93923102D01*
X114434434Y-93928149D01*
X114430794Y-93931790D01*
X114430794Y-93946352D01*
X114427939Y-93960627D01*
X114315877Y-93960627D01*
X114315877Y-93504225D01*
X115638099Y-93504225D01*
X115638099Y-106016798D01*
G37*
G36*
X115231041Y-79424368D02*
G01*
X115314111Y-79465903D01*
X115350258Y-79502049D01*
X115388969Y-79579471D01*
X115388969Y-79651102D01*
X115350258Y-79728524D01*
X115314111Y-79764670D01*
X115231041Y-79806206D01*
X115051861Y-79851001D01*
X114826076Y-79851001D01*
X114646897Y-79806206D01*
X114563825Y-79764670D01*
X114527680Y-79728526D01*
X114488969Y-79651103D01*
X114488969Y-79579471D01*
X114527680Y-79502047D01*
X114563825Y-79465903D01*
X114646897Y-79424367D01*
X114826076Y-79379573D01*
X115051861Y-79379573D01*
X115231041Y-79424368D01*
G37*
G36*
X114933160Y-75989712D02*
G01*
X114969304Y-76025857D01*
X115008016Y-76103280D01*
X115008016Y-76270149D01*
X114969304Y-76347572D01*
X114933160Y-76383717D01*
X114855737Y-76422429D01*
X114641249Y-76422429D01*
X114563825Y-76383717D01*
X114527680Y-76347573D01*
X114488969Y-76270150D01*
X114488969Y-76103280D01*
X114527680Y-76025856D01*
X114563825Y-75989712D01*
X114641249Y-75951001D01*
X114855737Y-75951001D01*
X114933160Y-75989712D01*
G37*
G36*
X114742684Y-73513521D02*
G01*
X114778828Y-73549666D01*
X114817540Y-73627089D01*
X114817540Y-73793958D01*
X114778828Y-73871381D01*
X114742684Y-73907526D01*
X114665261Y-73946238D01*
X114641249Y-73946238D01*
X114563825Y-73907526D01*
X114527680Y-73871382D01*
X114488969Y-73793959D01*
X114488969Y-73627089D01*
X114527680Y-73549665D01*
X114563825Y-73513521D01*
X114641249Y-73474810D01*
X114665261Y-73474810D01*
X114742684Y-73513521D01*
G37*
G36*
X115314111Y-73513521D02*
G01*
X115350258Y-73549667D01*
X115388969Y-73627089D01*
X115388969Y-73793958D01*
X115350258Y-73871380D01*
X115314111Y-73907526D01*
X115236689Y-73946238D01*
X115069820Y-73946238D01*
X114992396Y-73907526D01*
X114956251Y-73871382D01*
X114917540Y-73793959D01*
X114917540Y-73627089D01*
X114956251Y-73549665D01*
X114992396Y-73513521D01*
X115069820Y-73474810D01*
X115236689Y-73474810D01*
X115314111Y-73513521D01*
G37*
G36*
X115314111Y-68561139D02*
G01*
X115350258Y-68597285D01*
X115388969Y-68674707D01*
X115388969Y-68841576D01*
X115350258Y-68918998D01*
X115314111Y-68955144D01*
X115236689Y-68993856D01*
X115022201Y-68993856D01*
X114944777Y-68955144D01*
X114908632Y-68919000D01*
X114869921Y-68841577D01*
X114869921Y-68674707D01*
X114908632Y-68597283D01*
X114944777Y-68561139D01*
X115022201Y-68522428D01*
X115236689Y-68522428D01*
X115314111Y-68561139D01*
G37*
G36*
X115600080Y-80062112D02*
G01*
X114277858Y-80062112D01*
X114277858Y-79567668D01*
X114388969Y-79567668D01*
X114388969Y-79662906D01*
X114389457Y-79665362D01*
X114389095Y-79666451D01*
X114391211Y-79674178D01*
X114392775Y-79682040D01*
X114393586Y-79682851D01*
X114394248Y-79685267D01*
X114441866Y-79780504D01*
X114446781Y-79786837D01*
X114451233Y-79793499D01*
X114498851Y-79841118D01*
X114505517Y-79845572D01*
X114511846Y-79850484D01*
X114607084Y-79898103D01*
X114612365Y-79899549D01*
X114617318Y-79901889D01*
X114807794Y-79949508D01*
X114813911Y-79949805D01*
X114819921Y-79951001D01*
X115058016Y-79951001D01*
X115064025Y-79949805D01*
X115070143Y-79949508D01*
X115260619Y-79901889D01*
X115265571Y-79899549D01*
X115270853Y-79898103D01*
X115366090Y-79850485D01*
X115372418Y-79845573D01*
X115379085Y-79841119D01*
X115426705Y-79793500D01*
X115431159Y-79786833D01*
X115436071Y-79780505D01*
X115483690Y-79685267D01*
X115484351Y-79682851D01*
X115485163Y-79682040D01*
X115486726Y-79674178D01*
X115488843Y-79666451D01*
X115488480Y-79665362D01*
X115488969Y-79662906D01*
X115488969Y-79567668D01*
X115488480Y-79565211D01*
X115488843Y-79564123D01*
X115486726Y-79556395D01*
X115485163Y-79548534D01*
X115484351Y-79547722D01*
X115483690Y-79545307D01*
X115436071Y-79450069D01*
X115431159Y-79443740D01*
X115426705Y-79437074D01*
X115379085Y-79389455D01*
X115372418Y-79385000D01*
X115366090Y-79380089D01*
X115270853Y-79332471D01*
X115265571Y-79331024D01*
X115260619Y-79328685D01*
X115070143Y-79281066D01*
X115064025Y-79280768D01*
X115058016Y-79279573D01*
X114819921Y-79279573D01*
X114813911Y-79280768D01*
X114807794Y-79281066D01*
X114617318Y-79328685D01*
X114612365Y-79331024D01*
X114607084Y-79332471D01*
X114511846Y-79380090D01*
X114505517Y-79385001D01*
X114498851Y-79389456D01*
X114451233Y-79437075D01*
X114446781Y-79443736D01*
X114441866Y-79450070D01*
X114394248Y-79545307D01*
X114393586Y-79547722D01*
X114392775Y-79548534D01*
X114391211Y-79556395D01*
X114389095Y-79564123D01*
X114389457Y-79565211D01*
X114388969Y-79567668D01*
X114277858Y-79567668D01*
X114277858Y-78672609D01*
X114389920Y-78672609D01*
X114392775Y-78676891D01*
X114392775Y-78682040D01*
X114403071Y-78692336D01*
X114411147Y-78704450D01*
X114416194Y-78705459D01*
X114419835Y-78709100D01*
X114438969Y-78712906D01*
X115388969Y-78712906D01*
X115388969Y-78948620D01*
X115392775Y-78967754D01*
X115419835Y-78994814D01*
X115458103Y-78994814D01*
X115485163Y-78967754D01*
X115488969Y-78948620D01*
X115488969Y-78377192D01*
X115485163Y-78358058D01*
X115458103Y-78330998D01*
X115419835Y-78330998D01*
X115392775Y-78358058D01*
X115388969Y-78377192D01*
X115388969Y-78612906D01*
X114604107Y-78612906D01*
X114609561Y-78609270D01*
X114613065Y-78605773D01*
X114617181Y-78603023D01*
X114712419Y-78507785D01*
X114716869Y-78501125D01*
X114721785Y-78494791D01*
X114769404Y-78399553D01*
X114774557Y-78380737D01*
X114762455Y-78344432D01*
X114728227Y-78327318D01*
X114691923Y-78339420D01*
X114679961Y-78354832D01*
X114635970Y-78442813D01*
X114549975Y-78528809D01*
X114411234Y-78621303D01*
X114397425Y-78635084D01*
X114396415Y-78640131D01*
X114392775Y-78643772D01*
X114392775Y-78658334D01*
X114389920Y-78672609D01*
X114277858Y-78672609D01*
X114277858Y-76091477D01*
X114388969Y-76091477D01*
X114388969Y-76281953D01*
X114389457Y-76284409D01*
X114389095Y-76285498D01*
X114391211Y-76293225D01*
X114392775Y-76301087D01*
X114393586Y-76301898D01*
X114394248Y-76304314D01*
X114441866Y-76399551D01*
X114446781Y-76405884D01*
X114451233Y-76412546D01*
X114498851Y-76460165D01*
X114505517Y-76464619D01*
X114511846Y-76469531D01*
X114607084Y-76517150D01*
X114609499Y-76517811D01*
X114610311Y-76518623D01*
X114618172Y-76520186D01*
X114625900Y-76522303D01*
X114626988Y-76521940D01*
X114629445Y-76522429D01*
X115010397Y-76522429D01*
X115016406Y-76521233D01*
X115022524Y-76520936D01*
X115213000Y-76473317D01*
X115220715Y-76469672D01*
X115228608Y-76466413D01*
X115371465Y-76371174D01*
X115374966Y-76367679D01*
X115379085Y-76364928D01*
X115426705Y-76317309D01*
X115431159Y-76310642D01*
X115436071Y-76304314D01*
X115483690Y-76209076D01*
X115484351Y-76206660D01*
X115485163Y-76205849D01*
X115486726Y-76197987D01*
X115488843Y-76190260D01*
X115488480Y-76189171D01*
X115488969Y-76186715D01*
X115488969Y-75996239D01*
X115485163Y-75977105D01*
X115458103Y-75950045D01*
X115419835Y-75950045D01*
X115392775Y-75977105D01*
X115388969Y-75996239D01*
X115388969Y-76174911D01*
X115350258Y-76252333D01*
X115311876Y-76290714D01*
X115180342Y-76378403D01*
X115046149Y-76411952D01*
X115050206Y-76405880D01*
X115055118Y-76399552D01*
X115102737Y-76304314D01*
X115103398Y-76301898D01*
X115104210Y-76301087D01*
X115105773Y-76293225D01*
X115107890Y-76285498D01*
X115107527Y-76284409D01*
X115108016Y-76281953D01*
X115108016Y-76091477D01*
X115107527Y-76089020D01*
X115107890Y-76087932D01*
X115105773Y-76080204D01*
X115104210Y-76072343D01*
X115103398Y-76071531D01*
X115102737Y-76069116D01*
X115055118Y-75973878D01*
X115050206Y-75967549D01*
X115045752Y-75960883D01*
X114998133Y-75913265D01*
X114991471Y-75908813D01*
X114985138Y-75903898D01*
X114889901Y-75856280D01*
X114887485Y-75855618D01*
X114886674Y-75854807D01*
X114878812Y-75853243D01*
X114871085Y-75851127D01*
X114869996Y-75851489D01*
X114867540Y-75851001D01*
X114629445Y-75851001D01*
X114626988Y-75851489D01*
X114625900Y-75851127D01*
X114618172Y-75853243D01*
X114610311Y-75854807D01*
X114609499Y-75855618D01*
X114607084Y-75856280D01*
X114511846Y-75903899D01*
X114505517Y-75908810D01*
X114498851Y-75913265D01*
X114451233Y-75960884D01*
X114446781Y-75967545D01*
X114441866Y-75973879D01*
X114394248Y-76069116D01*
X114393586Y-76071531D01*
X114392775Y-76072343D01*
X114391211Y-76080204D01*
X114389095Y-76087932D01*
X114389457Y-76089020D01*
X114388969Y-76091477D01*
X114277858Y-76091477D01*
X114277858Y-73615286D01*
X114388969Y-73615286D01*
X114388969Y-73805762D01*
X114389457Y-73808218D01*
X114389095Y-73809307D01*
X114391211Y-73817034D01*
X114392775Y-73824896D01*
X114393586Y-73825707D01*
X114394248Y-73828123D01*
X114441866Y-73923360D01*
X114446781Y-73929693D01*
X114451233Y-73936355D01*
X114498851Y-73983974D01*
X114505517Y-73988428D01*
X114511846Y-73993340D01*
X114607084Y-74040959D01*
X114609499Y-74041620D01*
X114610311Y-74042432D01*
X114618172Y-74043995D01*
X114625900Y-74046112D01*
X114626988Y-74045749D01*
X114629445Y-74046238D01*
X114677064Y-74046238D01*
X114679520Y-74045749D01*
X114680609Y-74046112D01*
X114688336Y-74043995D01*
X114696198Y-74042432D01*
X114697009Y-74041620D01*
X114699425Y-74040959D01*
X114794662Y-73993341D01*
X114800995Y-73988425D01*
X114807657Y-73983974D01*
X114855276Y-73936356D01*
X114859730Y-73929689D01*
X114864642Y-73923361D01*
X114867539Y-73917565D01*
X114870437Y-73923360D01*
X114875352Y-73929693D01*
X114879804Y-73936355D01*
X114927422Y-73983974D01*
X114934088Y-73988428D01*
X114940417Y-73993340D01*
X115035655Y-74040959D01*
X115038070Y-74041620D01*
X115038882Y-74042432D01*
X115046743Y-74043995D01*
X115054471Y-74046112D01*
X115055559Y-74045749D01*
X115058016Y-74046238D01*
X115248492Y-74046238D01*
X115250948Y-74045749D01*
X115252037Y-74046112D01*
X115259764Y-74043995D01*
X115267626Y-74042432D01*
X115268437Y-74041620D01*
X115270853Y-74040959D01*
X115366090Y-73993341D01*
X115372418Y-73988429D01*
X115379085Y-73983975D01*
X115426705Y-73936356D01*
X115431159Y-73929689D01*
X115436071Y-73923361D01*
X115483690Y-73828123D01*
X115484351Y-73825707D01*
X115485163Y-73824896D01*
X115486726Y-73817034D01*
X115488843Y-73809307D01*
X115488480Y-73808218D01*
X115488969Y-73805762D01*
X115488969Y-73615286D01*
X115488480Y-73612829D01*
X115488843Y-73611741D01*
X115486726Y-73604013D01*
X115485163Y-73596152D01*
X115484351Y-73595340D01*
X115483690Y-73592925D01*
X115436071Y-73497687D01*
X115431159Y-73491358D01*
X115426705Y-73484692D01*
X115379085Y-73437073D01*
X115372418Y-73432618D01*
X115366090Y-73427707D01*
X115270853Y-73380089D01*
X115268437Y-73379427D01*
X115267626Y-73378616D01*
X115259764Y-73377052D01*
X115252037Y-73374936D01*
X115250948Y-73375298D01*
X115248492Y-73374810D01*
X115058016Y-73374810D01*
X115055559Y-73375298D01*
X115054471Y-73374936D01*
X115046743Y-73377052D01*
X115038882Y-73378616D01*
X115038070Y-73379427D01*
X115035655Y-73380089D01*
X114940417Y-73427708D01*
X114934088Y-73432619D01*
X114927422Y-73437074D01*
X114879804Y-73484693D01*
X114875352Y-73491354D01*
X114870437Y-73497688D01*
X114867539Y-73503482D01*
X114864642Y-73497687D01*
X114859730Y-73491358D01*
X114855276Y-73484692D01*
X114807657Y-73437074D01*
X114800995Y-73432622D01*
X114794662Y-73427707D01*
X114699425Y-73380089D01*
X114697009Y-73379427D01*
X114696198Y-73378616D01*
X114688336Y-73377052D01*
X114680609Y-73374936D01*
X114679520Y-73375298D01*
X114677064Y-73374810D01*
X114629445Y-73374810D01*
X114626988Y-73375298D01*
X114625900Y-73374936D01*
X114618172Y-73377052D01*
X114610311Y-73378616D01*
X114609499Y-73379427D01*
X114607084Y-73380089D01*
X114511846Y-73427708D01*
X114505517Y-73432619D01*
X114498851Y-73437074D01*
X114451233Y-73484693D01*
X114446781Y-73491354D01*
X114441866Y-73497688D01*
X114394248Y-73592925D01*
X114393586Y-73595340D01*
X114392775Y-73596152D01*
X114391211Y-73604013D01*
X114389095Y-73611741D01*
X114389457Y-73612829D01*
X114388969Y-73615286D01*
X114277858Y-73615286D01*
X114277858Y-70901000D01*
X114388969Y-70901000D01*
X114388969Y-71567666D01*
X114389051Y-71568080D01*
X114388973Y-71568276D01*
X114389191Y-71568786D01*
X114392775Y-71586800D01*
X114400013Y-71594038D01*
X114404047Y-71603450D01*
X114413009Y-71607034D01*
X114419835Y-71613860D01*
X114430073Y-71613860D01*
X114439579Y-71617662D01*
X114457545Y-71613860D01*
X114458103Y-71613860D01*
X114458252Y-71613710D01*
X114458665Y-71613623D01*
X115458665Y-71185052D01*
X115474752Y-71174017D01*
X115488965Y-71138485D01*
X115473890Y-71103312D01*
X115438359Y-71089099D01*
X115419273Y-71093138D01*
X114488969Y-71491839D01*
X114488969Y-70901000D01*
X114485163Y-70881866D01*
X114458103Y-70854806D01*
X114419835Y-70854806D01*
X114392775Y-70881866D01*
X114388969Y-70901000D01*
X114277858Y-70901000D01*
X114277858Y-68758142D01*
X114388969Y-68758142D01*
X114388969Y-68948618D01*
X114392775Y-68967752D01*
X114419835Y-68994812D01*
X114458103Y-68994812D01*
X114485163Y-68967752D01*
X114488969Y-68948618D01*
X114488969Y-68769945D01*
X114527680Y-68692521D01*
X114566060Y-68654142D01*
X114697591Y-68566453D01*
X114831788Y-68532904D01*
X114827733Y-68538972D01*
X114822818Y-68545306D01*
X114775200Y-68640543D01*
X114774538Y-68642958D01*
X114773727Y-68643770D01*
X114772163Y-68651631D01*
X114770047Y-68659359D01*
X114770409Y-68660447D01*
X114769921Y-68662904D01*
X114769921Y-68853380D01*
X114770409Y-68855836D01*
X114770047Y-68856925D01*
X114772163Y-68864652D01*
X114773727Y-68872514D01*
X114774538Y-68873325D01*
X114775200Y-68875741D01*
X114822818Y-68970978D01*
X114827733Y-68977311D01*
X114832185Y-68983973D01*
X114879803Y-69031592D01*
X114886469Y-69036046D01*
X114892798Y-69040958D01*
X114988036Y-69088577D01*
X114990451Y-69089238D01*
X114991263Y-69090050D01*
X114999124Y-69091613D01*
X115006852Y-69093730D01*
X115007940Y-69093367D01*
X115010397Y-69093856D01*
X115248492Y-69093856D01*
X115250948Y-69093367D01*
X115252037Y-69093730D01*
X115259764Y-69091613D01*
X115267626Y-69090050D01*
X115268437Y-69089238D01*
X115270853Y-69088577D01*
X115366090Y-69040959D01*
X115372418Y-69036047D01*
X115379085Y-69031593D01*
X115426705Y-68983974D01*
X115431159Y-68977307D01*
X115436071Y-68970979D01*
X115483690Y-68875741D01*
X115484351Y-68873325D01*
X115485163Y-68872514D01*
X115486726Y-68864652D01*
X115488843Y-68856925D01*
X115488480Y-68855836D01*
X115488969Y-68853380D01*
X115488969Y-68662904D01*
X115488480Y-68660447D01*
X115488843Y-68659359D01*
X115486726Y-68651631D01*
X115485163Y-68643770D01*
X115484351Y-68642958D01*
X115483690Y-68640543D01*
X115436071Y-68545305D01*
X115431159Y-68538976D01*
X115426705Y-68532310D01*
X115379085Y-68484691D01*
X115372418Y-68480236D01*
X115366090Y-68475325D01*
X115270853Y-68427707D01*
X115268437Y-68427045D01*
X115267626Y-68426234D01*
X115259764Y-68424670D01*
X115252037Y-68422554D01*
X115250948Y-68422916D01*
X115248492Y-68422428D01*
X114867540Y-68422428D01*
X114861530Y-68423623D01*
X114855413Y-68423921D01*
X114664937Y-68471540D01*
X114657229Y-68475181D01*
X114649329Y-68478444D01*
X114506472Y-68573682D01*
X114502967Y-68577179D01*
X114498851Y-68579930D01*
X114451233Y-68627549D01*
X114446781Y-68634210D01*
X114441866Y-68640544D01*
X114394248Y-68735781D01*
X114393586Y-68738196D01*
X114392775Y-68739008D01*
X114391211Y-68746869D01*
X114389095Y-68754597D01*
X114389457Y-68755685D01*
X114388969Y-68758142D01*
X114277858Y-68758142D01*
X114277858Y-68311317D01*
X115600080Y-68311317D01*
X115600080Y-80062112D01*
G37*
G36*
X145090430Y-101775699D02*
G01*
X145126574Y-101811844D01*
X145165286Y-101889267D01*
X145165286Y-102056136D01*
X145126574Y-102133559D01*
X145090430Y-102169704D01*
X145013007Y-102208416D01*
X144798519Y-102208416D01*
X144721095Y-102169704D01*
X144684950Y-102133560D01*
X144646238Y-102056136D01*
X144646238Y-101889267D01*
X144684950Y-101811843D01*
X144721095Y-101775699D01*
X144798519Y-101736988D01*
X145013007Y-101736988D01*
X145090430Y-101775699D01*
G37*
G36*
X145042811Y-96442365D02*
G01*
X145078955Y-96478510D01*
X145117667Y-96555933D01*
X145117667Y-96722802D01*
X145078955Y-96800225D01*
X145042811Y-96836370D01*
X144965388Y-96875082D01*
X144798519Y-96875082D01*
X144721095Y-96836370D01*
X144684950Y-96800226D01*
X144646238Y-96722802D01*
X144646238Y-96555933D01*
X144684950Y-96478509D01*
X144721095Y-96442365D01*
X144798519Y-96403654D01*
X144965388Y-96403654D01*
X145042811Y-96442365D01*
G37*
G36*
X145471382Y-96442365D02*
G01*
X145507526Y-96478510D01*
X145546238Y-96555933D01*
X145546238Y-96722802D01*
X145507526Y-96800225D01*
X145471382Y-96836370D01*
X145393959Y-96875082D01*
X145369947Y-96875082D01*
X145292523Y-96836370D01*
X145256378Y-96800226D01*
X145217667Y-96722803D01*
X145217667Y-96555933D01*
X145256378Y-96478509D01*
X145292523Y-96442365D01*
X145369947Y-96403654D01*
X145393959Y-96403654D01*
X145471382Y-96442365D01*
G37*
G36*
X145471382Y-93775698D02*
G01*
X145507526Y-93811843D01*
X145546238Y-93889266D01*
X145546238Y-94056135D01*
X145507526Y-94133558D01*
X145471382Y-94169703D01*
X145393959Y-94208415D01*
X145179471Y-94208415D01*
X145102047Y-94169703D01*
X145065902Y-94133559D01*
X145027191Y-94056136D01*
X145027191Y-93889266D01*
X145065902Y-93811842D01*
X145102047Y-93775698D01*
X145179471Y-93736987D01*
X145393959Y-93736987D01*
X145471382Y-93775698D01*
G37*
G36*
X145388311Y-91115115D02*
G01*
X145471382Y-91156650D01*
X145507526Y-91192795D01*
X145546238Y-91270218D01*
X145546238Y-91341849D01*
X145507526Y-91419272D01*
X145471382Y-91455417D01*
X145388311Y-91496953D01*
X145209131Y-91541748D01*
X144983346Y-91541748D01*
X144804167Y-91496953D01*
X144721095Y-91455417D01*
X144684950Y-91419273D01*
X144646238Y-91341849D01*
X144646238Y-91270218D01*
X144684950Y-91192794D01*
X144721095Y-91156650D01*
X144804167Y-91115114D01*
X144983346Y-91070320D01*
X145209131Y-91070320D01*
X145388311Y-91115115D01*
G37*
G36*
X145757349Y-103415721D02*
G01*
X144435127Y-103415721D01*
X144435127Y-102639369D01*
X144546238Y-102639369D01*
X144546238Y-103258416D01*
X144550044Y-103277550D01*
X144577104Y-103304610D01*
X144615372Y-103304610D01*
X144631593Y-103293771D01*
X145194675Y-102730689D01*
X145318637Y-102689369D01*
X145393959Y-102689369D01*
X145471382Y-102728080D01*
X145507526Y-102764225D01*
X145546238Y-102841648D01*
X145546238Y-103056136D01*
X145507526Y-103133559D01*
X145465645Y-103175442D01*
X145454806Y-103191663D01*
X145454806Y-103229931D01*
X145481866Y-103256991D01*
X145520134Y-103256991D01*
X145536355Y-103246152D01*
X145583974Y-103198534D01*
X145588428Y-103191867D01*
X145593340Y-103185539D01*
X145640959Y-103090301D01*
X145641620Y-103087885D01*
X145642432Y-103087074D01*
X145643995Y-103079212D01*
X145646112Y-103071485D01*
X145645749Y-103070396D01*
X145646238Y-103067940D01*
X145646238Y-102829845D01*
X145645749Y-102827388D01*
X145646112Y-102826300D01*
X145643995Y-102818572D01*
X145642432Y-102810711D01*
X145641620Y-102809899D01*
X145640959Y-102807484D01*
X145593340Y-102712246D01*
X145588428Y-102705917D01*
X145583974Y-102699251D01*
X145536355Y-102651633D01*
X145529693Y-102647181D01*
X145523360Y-102642266D01*
X145428123Y-102594648D01*
X145425707Y-102593986D01*
X145424896Y-102593175D01*
X145417034Y-102591611D01*
X145409307Y-102589495D01*
X145408218Y-102589857D01*
X145405762Y-102589369D01*
X145310524Y-102589369D01*
X145302662Y-102590932D01*
X145294712Y-102591935D01*
X145151856Y-102639554D01*
X145149681Y-102640794D01*
X145148533Y-102640794D01*
X145141872Y-102645244D01*
X145134907Y-102649215D01*
X145134393Y-102650242D01*
X145132312Y-102651633D01*
X144646238Y-103137706D01*
X144646238Y-102639369D01*
X144642432Y-102620235D01*
X144615372Y-102593175D01*
X144577104Y-102593175D01*
X144550044Y-102620235D01*
X144546238Y-102639369D01*
X144435127Y-102639369D01*
X144435127Y-101877464D01*
X144546238Y-101877464D01*
X144546238Y-102067940D01*
X144546726Y-102070396D01*
X144546364Y-102071485D01*
X144548480Y-102079212D01*
X144550044Y-102087074D01*
X144550855Y-102087885D01*
X144551517Y-102090301D01*
X144599137Y-102185539D01*
X144604052Y-102191873D01*
X144608503Y-102198533D01*
X144656121Y-102246152D01*
X144662787Y-102250606D01*
X144669116Y-102255518D01*
X144764354Y-102303137D01*
X144766769Y-102303798D01*
X144767581Y-102304610D01*
X144775442Y-102306173D01*
X144783170Y-102308290D01*
X144784258Y-102307927D01*
X144786715Y-102308416D01*
X145167667Y-102308416D01*
X145173676Y-102307220D01*
X145179794Y-102306923D01*
X145370270Y-102259304D01*
X145377985Y-102255659D01*
X145385878Y-102252400D01*
X145528735Y-102157161D01*
X145532239Y-102153664D01*
X145536355Y-102150914D01*
X145583974Y-102103296D01*
X145588428Y-102096629D01*
X145593340Y-102090301D01*
X145640959Y-101995063D01*
X145641620Y-101992647D01*
X145642432Y-101991836D01*
X145643995Y-101983974D01*
X145646112Y-101976247D01*
X145645749Y-101975158D01*
X145646238Y-101972702D01*
X145646238Y-101782226D01*
X145642432Y-101763092D01*
X145615372Y-101736032D01*
X145577104Y-101736032D01*
X145550044Y-101763092D01*
X145546238Y-101782226D01*
X145546238Y-101960898D01*
X145507526Y-102038321D01*
X145469148Y-102076700D01*
X145337612Y-102164390D01*
X145203419Y-102197939D01*
X145207476Y-102191867D01*
X145212388Y-102185539D01*
X145260007Y-102090301D01*
X145260668Y-102087885D01*
X145261480Y-102087074D01*
X145263043Y-102079212D01*
X145265160Y-102071485D01*
X145264797Y-102070396D01*
X145265286Y-102067940D01*
X145265286Y-101877464D01*
X145264797Y-101875007D01*
X145265160Y-101873919D01*
X145263043Y-101866191D01*
X145261480Y-101858330D01*
X145260668Y-101857518D01*
X145260007Y-101855103D01*
X145212388Y-101759865D01*
X145207476Y-101753536D01*
X145203022Y-101746870D01*
X145155403Y-101699252D01*
X145148741Y-101694800D01*
X145142408Y-101689885D01*
X145047171Y-101642267D01*
X145044755Y-101641605D01*
X145043944Y-101640794D01*
X145036082Y-101639230D01*
X145028355Y-101637114D01*
X145027266Y-101637476D01*
X145024810Y-101636988D01*
X144786715Y-101636988D01*
X144784258Y-101637476D01*
X144783170Y-101637114D01*
X144775442Y-101639230D01*
X144767581Y-101640794D01*
X144766769Y-101641605D01*
X144764354Y-101642267D01*
X144669116Y-101689886D01*
X144662787Y-101694797D01*
X144656121Y-101699252D01*
X144608503Y-101746871D01*
X144604052Y-101753530D01*
X144599137Y-101759865D01*
X144551517Y-101855103D01*
X144550855Y-101857518D01*
X144550044Y-101858330D01*
X144548480Y-101866191D01*
X144546364Y-101873919D01*
X144546726Y-101875007D01*
X144546238Y-101877464D01*
X144435127Y-101877464D01*
X144435127Y-99972702D01*
X144546238Y-99972702D01*
X144546238Y-100591749D01*
X144550044Y-100610883D01*
X144577104Y-100637943D01*
X144615372Y-100637943D01*
X144631593Y-100627104D01*
X145194675Y-100064022D01*
X145318637Y-100022702D01*
X145393959Y-100022702D01*
X145471382Y-100061413D01*
X145507526Y-100097558D01*
X145546238Y-100174981D01*
X145546238Y-100389469D01*
X145507526Y-100466892D01*
X145465645Y-100508775D01*
X145454806Y-100524996D01*
X145454806Y-100563264D01*
X145481866Y-100590324D01*
X145520134Y-100590324D01*
X145536355Y-100579485D01*
X145583974Y-100531867D01*
X145588428Y-100525200D01*
X145593340Y-100518872D01*
X145640959Y-100423634D01*
X145641620Y-100421218D01*
X145642432Y-100420407D01*
X145643995Y-100412545D01*
X145646112Y-100404818D01*
X145645749Y-100403729D01*
X145646238Y-100401273D01*
X145646238Y-100163178D01*
X145645749Y-100160721D01*
X145646112Y-100159633D01*
X145643995Y-100151905D01*
X145642432Y-100144044D01*
X145641620Y-100143232D01*
X145640959Y-100140817D01*
X145593340Y-100045579D01*
X145588428Y-100039250D01*
X145583974Y-100032584D01*
X145536355Y-99984966D01*
X145529693Y-99980514D01*
X145523360Y-99975599D01*
X145428123Y-99927981D01*
X145425707Y-99927319D01*
X145424896Y-99926508D01*
X145417034Y-99924944D01*
X145409307Y-99922828D01*
X145408218Y-99923190D01*
X145405762Y-99922702D01*
X145310524Y-99922702D01*
X145302662Y-99924265D01*
X145294712Y-99925268D01*
X145151856Y-99972887D01*
X145149681Y-99974127D01*
X145148533Y-99974127D01*
X145141872Y-99978577D01*
X145134907Y-99982548D01*
X145134393Y-99983575D01*
X145132312Y-99984966D01*
X144646238Y-100471039D01*
X144646238Y-99972702D01*
X144642432Y-99953568D01*
X144615372Y-99926508D01*
X144577104Y-99926508D01*
X144550044Y-99953568D01*
X144546238Y-99972702D01*
X144435127Y-99972702D01*
X144435127Y-99401883D01*
X144546242Y-99401883D01*
X144561316Y-99437057D01*
X144596848Y-99451269D01*
X144615934Y-99447230D01*
X145546238Y-99048528D01*
X145546238Y-99639368D01*
X145550044Y-99658502D01*
X145577104Y-99685562D01*
X145615372Y-99685562D01*
X145642432Y-99658502D01*
X145646238Y-99639368D01*
X145646238Y-98972702D01*
X145646155Y-98972287D01*
X145646234Y-98972092D01*
X145646015Y-98971581D01*
X145642432Y-98953568D01*
X145635191Y-98946327D01*
X145631159Y-98936919D01*
X145622198Y-98933334D01*
X145615372Y-98926508D01*
X145605133Y-98926508D01*
X145595628Y-98922706D01*
X145577662Y-98926508D01*
X145577104Y-98926508D01*
X145576954Y-98926657D01*
X145576542Y-98926745D01*
X144576542Y-99355316D01*
X144560454Y-99366351D01*
X144546242Y-99401883D01*
X144435127Y-99401883D01*
X144435127Y-97306035D01*
X144546238Y-97306035D01*
X144546238Y-97925082D01*
X144550044Y-97944216D01*
X144577104Y-97971276D01*
X144615372Y-97971276D01*
X144631593Y-97960437D01*
X145194675Y-97397355D01*
X145318637Y-97356035D01*
X145393959Y-97356035D01*
X145471382Y-97394746D01*
X145507526Y-97430891D01*
X145546238Y-97508314D01*
X145546238Y-97722802D01*
X145507526Y-97800225D01*
X145465645Y-97842108D01*
X145454806Y-97858329D01*
X145454806Y-97896597D01*
X145481866Y-97923657D01*
X145520134Y-97923657D01*
X145536355Y-97912818D01*
X145583974Y-97865200D01*
X145588428Y-97858533D01*
X145593340Y-97852205D01*
X145640959Y-97756967D01*
X145641620Y-97754551D01*
X145642432Y-97753740D01*
X145643995Y-97745878D01*
X145646112Y-97738151D01*
X145645749Y-97737062D01*
X145646238Y-97734606D01*
X145646238Y-97496511D01*
X145645749Y-97494054D01*
X145646112Y-97492966D01*
X145643995Y-97485238D01*
X145642432Y-97477377D01*
X145641620Y-97476565D01*
X145640959Y-97474150D01*
X145593340Y-97378912D01*
X145588428Y-97372583D01*
X145583974Y-97365917D01*
X145536355Y-97318299D01*
X145529693Y-97313847D01*
X145523360Y-97308932D01*
X145428123Y-97261314D01*
X145425707Y-97260652D01*
X145424896Y-97259841D01*
X145417034Y-97258277D01*
X145409307Y-97256161D01*
X145408218Y-97256523D01*
X145405762Y-97256035D01*
X145310524Y-97256035D01*
X145302662Y-97257598D01*
X145294712Y-97258601D01*
X145151856Y-97306220D01*
X145149681Y-97307460D01*
X145148533Y-97307460D01*
X145141872Y-97311910D01*
X145134907Y-97315881D01*
X145134393Y-97316908D01*
X145132312Y-97318299D01*
X144646238Y-97804372D01*
X144646238Y-97306035D01*
X144642432Y-97286901D01*
X144615372Y-97259841D01*
X144577104Y-97259841D01*
X144550044Y-97286901D01*
X144546238Y-97306035D01*
X144435127Y-97306035D01*
X144435127Y-96544130D01*
X144546238Y-96544130D01*
X144546238Y-96734606D01*
X144546726Y-96737062D01*
X144546364Y-96738151D01*
X144548480Y-96745878D01*
X144550044Y-96753740D01*
X144550855Y-96754551D01*
X144551517Y-96756967D01*
X144599137Y-96852205D01*
X144604052Y-96858539D01*
X144608503Y-96865199D01*
X144656121Y-96912818D01*
X144662787Y-96917272D01*
X144669116Y-96922184D01*
X144764354Y-96969803D01*
X144766769Y-96970464D01*
X144767581Y-96971276D01*
X144775442Y-96972839D01*
X144783170Y-96974956D01*
X144784258Y-96974593D01*
X144786715Y-96975082D01*
X144977191Y-96975082D01*
X144979647Y-96974593D01*
X144980736Y-96974956D01*
X144988463Y-96972839D01*
X144996325Y-96971276D01*
X144997136Y-96970464D01*
X144999552Y-96969803D01*
X145094789Y-96922185D01*
X145101122Y-96917269D01*
X145107784Y-96912818D01*
X145155403Y-96865200D01*
X145159857Y-96858533D01*
X145164769Y-96852205D01*
X145167666Y-96846409D01*
X145170564Y-96852204D01*
X145175479Y-96858537D01*
X145179931Y-96865199D01*
X145227549Y-96912818D01*
X145234215Y-96917272D01*
X145240544Y-96922184D01*
X145335782Y-96969803D01*
X145338197Y-96970464D01*
X145339009Y-96971276D01*
X145346870Y-96972839D01*
X145354598Y-96974956D01*
X145355686Y-96974593D01*
X145358143Y-96975082D01*
X145405762Y-96975082D01*
X145408218Y-96974593D01*
X145409307Y-96974956D01*
X145417034Y-96972839D01*
X145424896Y-96971276D01*
X145425707Y-96970464D01*
X145428123Y-96969803D01*
X145523360Y-96922185D01*
X145529693Y-96917269D01*
X145536355Y-96912818D01*
X145583974Y-96865200D01*
X145588428Y-96858533D01*
X145593340Y-96852205D01*
X145640959Y-96756967D01*
X145641620Y-96754551D01*
X145642432Y-96753740D01*
X145643995Y-96745878D01*
X145646112Y-96738151D01*
X145645749Y-96737062D01*
X145646238Y-96734606D01*
X145646238Y-96544130D01*
X145645749Y-96541673D01*
X145646112Y-96540585D01*
X145643995Y-96532857D01*
X145642432Y-96524996D01*
X145641620Y-96524184D01*
X145640959Y-96521769D01*
X145593340Y-96426531D01*
X145588428Y-96420202D01*
X145583974Y-96413536D01*
X145536355Y-96365918D01*
X145529693Y-96361466D01*
X145523360Y-96356551D01*
X145428123Y-96308933D01*
X145425707Y-96308271D01*
X145424896Y-96307460D01*
X145417034Y-96305896D01*
X145409307Y-96303780D01*
X145408218Y-96304142D01*
X145405762Y-96303654D01*
X145358143Y-96303654D01*
X145355686Y-96304142D01*
X145354598Y-96303780D01*
X145346870Y-96305896D01*
X145339009Y-96307460D01*
X145338197Y-96308271D01*
X145335782Y-96308933D01*
X145240544Y-96356552D01*
X145234215Y-96361463D01*
X145227549Y-96365918D01*
X145179931Y-96413537D01*
X145175479Y-96420198D01*
X145170564Y-96426532D01*
X145167666Y-96432326D01*
X145164769Y-96426531D01*
X145159857Y-96420202D01*
X145155403Y-96413536D01*
X145107784Y-96365918D01*
X145101122Y-96361466D01*
X145094789Y-96356551D01*
X144999552Y-96308933D01*
X144997136Y-96308271D01*
X144996325Y-96307460D01*
X144988463Y-96305896D01*
X144980736Y-96303780D01*
X144979647Y-96304142D01*
X144977191Y-96303654D01*
X144786715Y-96303654D01*
X144784258Y-96304142D01*
X144783170Y-96303780D01*
X144775442Y-96305896D01*
X144767581Y-96307460D01*
X144766769Y-96308271D01*
X144764354Y-96308933D01*
X144669116Y-96356552D01*
X144662787Y-96361463D01*
X144656121Y-96365918D01*
X144608503Y-96413537D01*
X144604052Y-96420196D01*
X144599137Y-96426531D01*
X144551517Y-96521769D01*
X144550855Y-96524184D01*
X144550044Y-96524996D01*
X144548480Y-96532857D01*
X144546364Y-96540585D01*
X144546726Y-96541673D01*
X144546238Y-96544130D01*
X144435127Y-96544130D01*
X144435127Y-94639368D01*
X144546238Y-94639368D01*
X144546238Y-95258415D01*
X144550044Y-95277549D01*
X144577104Y-95304609D01*
X144615372Y-95304609D01*
X144631593Y-95293770D01*
X145194675Y-94730688D01*
X145318637Y-94689368D01*
X145393959Y-94689368D01*
X145471382Y-94728079D01*
X145507526Y-94764224D01*
X145546238Y-94841647D01*
X145546238Y-95056135D01*
X145507526Y-95133558D01*
X145465645Y-95175441D01*
X145454806Y-95191662D01*
X145454806Y-95229930D01*
X145481866Y-95256990D01*
X145520134Y-95256990D01*
X145536355Y-95246151D01*
X145583974Y-95198533D01*
X145588428Y-95191866D01*
X145593340Y-95185538D01*
X145640959Y-95090300D01*
X145641620Y-95087884D01*
X145642432Y-95087073D01*
X145643995Y-95079211D01*
X145646112Y-95071484D01*
X145645749Y-95070395D01*
X145646238Y-95067939D01*
X145646238Y-94829844D01*
X145645749Y-94827387D01*
X145646112Y-94826299D01*
X145643995Y-94818571D01*
X145642432Y-94810710D01*
X145641620Y-94809898D01*
X145640959Y-94807483D01*
X145593340Y-94712245D01*
X145588428Y-94705916D01*
X145583974Y-94699250D01*
X145536355Y-94651632D01*
X145529693Y-94647180D01*
X145523360Y-94642265D01*
X145428123Y-94594647D01*
X145425707Y-94593985D01*
X145424896Y-94593174D01*
X145417034Y-94591610D01*
X145409307Y-94589494D01*
X145408218Y-94589856D01*
X145405762Y-94589368D01*
X145310524Y-94589368D01*
X145302662Y-94590931D01*
X145294712Y-94591934D01*
X145151856Y-94639553D01*
X145149681Y-94640793D01*
X145148533Y-94640793D01*
X145141872Y-94645243D01*
X145134907Y-94649214D01*
X145134393Y-94650241D01*
X145132312Y-94651632D01*
X144646238Y-95137705D01*
X144646238Y-94639368D01*
X144642432Y-94620234D01*
X144615372Y-94593174D01*
X144577104Y-94593174D01*
X144550044Y-94620234D01*
X144546238Y-94639368D01*
X144435127Y-94639368D01*
X144435127Y-93972701D01*
X144546238Y-93972701D01*
X144546238Y-94163177D01*
X144550044Y-94182311D01*
X144577104Y-94209371D01*
X144615372Y-94209371D01*
X144642432Y-94182311D01*
X144646238Y-94163177D01*
X144646238Y-93984504D01*
X144684950Y-93907080D01*
X144723330Y-93868701D01*
X144854861Y-93781012D01*
X144989058Y-93747463D01*
X144985003Y-93753531D01*
X144980088Y-93759865D01*
X144932470Y-93855102D01*
X144931808Y-93857517D01*
X144930997Y-93858329D01*
X144929433Y-93866190D01*
X144927317Y-93873918D01*
X144927679Y-93875006D01*
X144927191Y-93877463D01*
X144927191Y-94067939D01*
X144927679Y-94070395D01*
X144927317Y-94071484D01*
X144929433Y-94079211D01*
X144930997Y-94087073D01*
X144931808Y-94087884D01*
X144932470Y-94090300D01*
X144980088Y-94185537D01*
X144985003Y-94191870D01*
X144989455Y-94198532D01*
X145037073Y-94246151D01*
X145043739Y-94250605D01*
X145050068Y-94255517D01*
X145145306Y-94303136D01*
X145147721Y-94303797D01*
X145148533Y-94304609D01*
X145156394Y-94306172D01*
X145164122Y-94308289D01*
X145165210Y-94307926D01*
X145167667Y-94308415D01*
X145405762Y-94308415D01*
X145408218Y-94307926D01*
X145409307Y-94308289D01*
X145417034Y-94306172D01*
X145424896Y-94304609D01*
X145425707Y-94303797D01*
X145428123Y-94303136D01*
X145523360Y-94255518D01*
X145529693Y-94250602D01*
X145536355Y-94246151D01*
X145583974Y-94198533D01*
X145588428Y-94191866D01*
X145593340Y-94185538D01*
X145640959Y-94090300D01*
X145641620Y-94087884D01*
X145642432Y-94087073D01*
X145643995Y-94079211D01*
X145646112Y-94071484D01*
X145645749Y-94070395D01*
X145646238Y-94067939D01*
X145646238Y-93877463D01*
X145645749Y-93875006D01*
X145646112Y-93873918D01*
X145643995Y-93866190D01*
X145642432Y-93858329D01*
X145641620Y-93857517D01*
X145640959Y-93855102D01*
X145593340Y-93759864D01*
X145588428Y-93753535D01*
X145583974Y-93746869D01*
X145536355Y-93699251D01*
X145529693Y-93694799D01*
X145523360Y-93689884D01*
X145428123Y-93642266D01*
X145425707Y-93641604D01*
X145424896Y-93640793D01*
X145417034Y-93639229D01*
X145409307Y-93637113D01*
X145408218Y-93637475D01*
X145405762Y-93636987D01*
X145024810Y-93636987D01*
X145018800Y-93638182D01*
X145012683Y-93638480D01*
X144822207Y-93686099D01*
X144814499Y-93689740D01*
X144806599Y-93693003D01*
X144663742Y-93788241D01*
X144660237Y-93791738D01*
X144656121Y-93794489D01*
X144608503Y-93842108D01*
X144604052Y-93848767D01*
X144599137Y-93855102D01*
X144551517Y-93950340D01*
X144550855Y-93952755D01*
X144550044Y-93953567D01*
X144548480Y-93961428D01*
X144546364Y-93969156D01*
X144546726Y-93970244D01*
X144546238Y-93972701D01*
X144435127Y-93972701D01*
X144435127Y-92163177D01*
X144546238Y-92163177D01*
X144546238Y-92448891D01*
X144546726Y-92451347D01*
X144546364Y-92452436D01*
X144548480Y-92460163D01*
X144550044Y-92468025D01*
X144550855Y-92468836D01*
X144551517Y-92471252D01*
X144599137Y-92566490D01*
X144604052Y-92572824D01*
X144608503Y-92579484D01*
X144656121Y-92627103D01*
X144672342Y-92637942D01*
X144710611Y-92637942D01*
X144737671Y-92610882D01*
X144737671Y-92572613D01*
X144726832Y-92556392D01*
X144684950Y-92514511D01*
X144646238Y-92437087D01*
X144646238Y-92174980D01*
X144684950Y-92097556D01*
X144721095Y-92061412D01*
X144798519Y-92022701D01*
X145013007Y-92022701D01*
X145090430Y-92061412D01*
X145126574Y-92097557D01*
X145165286Y-92174980D01*
X145165286Y-92306034D01*
X145168060Y-92319980D01*
X145167922Y-92322053D01*
X145168634Y-92322867D01*
X145169092Y-92325168D01*
X145181532Y-92337608D01*
X145193121Y-92350853D01*
X145194895Y-92350971D01*
X145196152Y-92352228D01*
X145213751Y-92352228D01*
X145231305Y-92353398D01*
X145233337Y-92352228D01*
X145234420Y-92352228D01*
X145235890Y-92350757D01*
X145248211Y-92343663D01*
X145546238Y-92082889D01*
X145546238Y-92591748D01*
X145550044Y-92610882D01*
X145577104Y-92637942D01*
X145615372Y-92637942D01*
X145642432Y-92610882D01*
X145646238Y-92591748D01*
X145646238Y-91972701D01*
X145643463Y-91958754D01*
X145643602Y-91956682D01*
X145642889Y-91955867D01*
X145642432Y-91953567D01*
X145629991Y-91941126D01*
X145618403Y-91927882D01*
X145616628Y-91927763D01*
X145615372Y-91926507D01*
X145597773Y-91926507D01*
X145580219Y-91925337D01*
X145578187Y-91926507D01*
X145577104Y-91926507D01*
X145575633Y-91927977D01*
X145563313Y-91935072D01*
X145265286Y-92195845D01*
X145265286Y-92163177D01*
X145264797Y-92160720D01*
X145265160Y-92159632D01*
X145263043Y-92151904D01*
X145261480Y-92144043D01*
X145260668Y-92143231D01*
X145260007Y-92140816D01*
X145212388Y-92045578D01*
X145207476Y-92039249D01*
X145203022Y-92032583D01*
X145155403Y-91984965D01*
X145148741Y-91980513D01*
X145142408Y-91975598D01*
X145047171Y-91927980D01*
X145044755Y-91927318D01*
X145043944Y-91926507D01*
X145036082Y-91924943D01*
X145028355Y-91922827D01*
X145027266Y-91923189D01*
X145024810Y-91922701D01*
X144786715Y-91922701D01*
X144784258Y-91923189D01*
X144783170Y-91922827D01*
X144775442Y-91924943D01*
X144767581Y-91926507D01*
X144766769Y-91927318D01*
X144764354Y-91927980D01*
X144669116Y-91975599D01*
X144662787Y-91980510D01*
X144656121Y-91984965D01*
X144608503Y-92032584D01*
X144604052Y-92039243D01*
X144599137Y-92045578D01*
X144551517Y-92140816D01*
X144550855Y-92143231D01*
X144550044Y-92144043D01*
X144548480Y-92151904D01*
X144546364Y-92159632D01*
X144546726Y-92160720D01*
X144546238Y-92163177D01*
X144435127Y-92163177D01*
X144435127Y-91258415D01*
X144546238Y-91258415D01*
X144546238Y-91353653D01*
X144546726Y-91356109D01*
X144546364Y-91357198D01*
X144548480Y-91364925D01*
X144550044Y-91372787D01*
X144550855Y-91373598D01*
X144551517Y-91376014D01*
X144599137Y-91471252D01*
X144604052Y-91477586D01*
X144608503Y-91484246D01*
X144656121Y-91531865D01*
X144662787Y-91536319D01*
X144669116Y-91541231D01*
X144764354Y-91588850D01*
X144769635Y-91590296D01*
X144774588Y-91592636D01*
X144965064Y-91640255D01*
X144971181Y-91640552D01*
X144977191Y-91641748D01*
X145215286Y-91641748D01*
X145221295Y-91640552D01*
X145227413Y-91640255D01*
X145417889Y-91592636D01*
X145422841Y-91590296D01*
X145428123Y-91588850D01*
X145523360Y-91541232D01*
X145529693Y-91536316D01*
X145536355Y-91531865D01*
X145583974Y-91484247D01*
X145588428Y-91477580D01*
X145593340Y-91471252D01*
X145640959Y-91376014D01*
X145641620Y-91373598D01*
X145642432Y-91372787D01*
X145643995Y-91364925D01*
X145646112Y-91357198D01*
X145645749Y-91356109D01*
X145646238Y-91353653D01*
X145646238Y-91258415D01*
X145645749Y-91255958D01*
X145646112Y-91254870D01*
X145643995Y-91247142D01*
X145642432Y-91239281D01*
X145641620Y-91238469D01*
X145640959Y-91236054D01*
X145593340Y-91140816D01*
X145588428Y-91134487D01*
X145583974Y-91127821D01*
X145536355Y-91080203D01*
X145529693Y-91075751D01*
X145523360Y-91070836D01*
X145428123Y-91023218D01*
X145422841Y-91021771D01*
X145417889Y-91019432D01*
X145227413Y-90971813D01*
X145221295Y-90971515D01*
X145215286Y-90970320D01*
X144977191Y-90970320D01*
X144971181Y-90971515D01*
X144965064Y-90971813D01*
X144774588Y-91019432D01*
X144769635Y-91021771D01*
X144764354Y-91023218D01*
X144669116Y-91070837D01*
X144662787Y-91075748D01*
X144656121Y-91080203D01*
X144608503Y-91127822D01*
X144604052Y-91134481D01*
X144599137Y-91140816D01*
X144551517Y-91236054D01*
X144550855Y-91238469D01*
X144550044Y-91239281D01*
X144548480Y-91247142D01*
X144546364Y-91254870D01*
X144546726Y-91255958D01*
X144546238Y-91258415D01*
X144435127Y-91258415D01*
X144435127Y-90859209D01*
X145757349Y-90859209D01*
X145757349Y-103415721D01*
G37*
G36*
X145110184Y-76133441D02*
G01*
X145146328Y-76169586D01*
X145185040Y-76247009D01*
X145185040Y-76413878D01*
X145146328Y-76491301D01*
X145110184Y-76527446D01*
X145032761Y-76566158D01*
X144818273Y-76566158D01*
X144740849Y-76527446D01*
X144704704Y-76491302D01*
X144665992Y-76413878D01*
X144665992Y-76247009D01*
X144704704Y-76169585D01*
X144740849Y-76133441D01*
X144818273Y-76094730D01*
X145032761Y-76094730D01*
X145110184Y-76133441D01*
G37*
G36*
X145062565Y-70800107D02*
G01*
X145098709Y-70836252D01*
X145137421Y-70913675D01*
X145137421Y-71080544D01*
X145098709Y-71157967D01*
X145062565Y-71194112D01*
X144985142Y-71232824D01*
X144818273Y-71232824D01*
X144740849Y-71194112D01*
X144704704Y-71157968D01*
X144665992Y-71080544D01*
X144665992Y-70913675D01*
X144704704Y-70836251D01*
X144740849Y-70800107D01*
X144818273Y-70761396D01*
X144985142Y-70761396D01*
X145062565Y-70800107D01*
G37*
G36*
X145491136Y-70800107D02*
G01*
X145527280Y-70836252D01*
X145565992Y-70913675D01*
X145565992Y-71080544D01*
X145527280Y-71157967D01*
X145491136Y-71194112D01*
X145413713Y-71232824D01*
X145389701Y-71232824D01*
X145312277Y-71194112D01*
X145276132Y-71157968D01*
X145237421Y-71080545D01*
X145237421Y-70913675D01*
X145276132Y-70836251D01*
X145312277Y-70800107D01*
X145389701Y-70761396D01*
X145413713Y-70761396D01*
X145491136Y-70800107D01*
G37*
G36*
X145491136Y-68133440D02*
G01*
X145527280Y-68169585D01*
X145565992Y-68247008D01*
X145565992Y-68413877D01*
X145527280Y-68491300D01*
X145491136Y-68527445D01*
X145413713Y-68566157D01*
X145199225Y-68566157D01*
X145121801Y-68527445D01*
X145085656Y-68491301D01*
X145046945Y-68413878D01*
X145046945Y-68247008D01*
X145085656Y-68169584D01*
X145121801Y-68133440D01*
X145199225Y-68094729D01*
X145413713Y-68094729D01*
X145491136Y-68133440D01*
G37*
G36*
X145408065Y-65472857D02*
G01*
X145491136Y-65514392D01*
X145527280Y-65550537D01*
X145565992Y-65627960D01*
X145565992Y-65699591D01*
X145527280Y-65777014D01*
X145491136Y-65813159D01*
X145408065Y-65854695D01*
X145228885Y-65899490D01*
X145003100Y-65899490D01*
X144823921Y-65854695D01*
X144740849Y-65813159D01*
X144704704Y-65777015D01*
X144665992Y-65699591D01*
X144665992Y-65627960D01*
X144704704Y-65550536D01*
X144740849Y-65514392D01*
X144823921Y-65472856D01*
X145003100Y-65428062D01*
X145228885Y-65428062D01*
X145408065Y-65472857D01*
G37*
G36*
X145824597Y-77773463D02*
G01*
X144454881Y-77773463D01*
X144454881Y-77187587D01*
X144565992Y-77187587D01*
X144565992Y-77473301D01*
X144566480Y-77475757D01*
X144566118Y-77476846D01*
X144568234Y-77484573D01*
X144569798Y-77492435D01*
X144570609Y-77493246D01*
X144571271Y-77495662D01*
X144618891Y-77590900D01*
X144623806Y-77597234D01*
X144628257Y-77603894D01*
X144675875Y-77651513D01*
X144692096Y-77662352D01*
X144730365Y-77662352D01*
X144757425Y-77635292D01*
X144757425Y-77597023D01*
X144746586Y-77580802D01*
X144704704Y-77538921D01*
X144665992Y-77461497D01*
X144665992Y-77199390D01*
X144704704Y-77121966D01*
X144740849Y-77085822D01*
X144818273Y-77047111D01*
X145032761Y-77047111D01*
X145110184Y-77085822D01*
X145146328Y-77121967D01*
X145185040Y-77199390D01*
X145185040Y-77330444D01*
X145187814Y-77344390D01*
X145187676Y-77346463D01*
X145188388Y-77347277D01*
X145188846Y-77349578D01*
X145201286Y-77362018D01*
X145212875Y-77375263D01*
X145214649Y-77375381D01*
X145215906Y-77376638D01*
X145233505Y-77376638D01*
X145251059Y-77377808D01*
X145253091Y-77376638D01*
X145254174Y-77376638D01*
X145255644Y-77375167D01*
X145267965Y-77368073D01*
X145565992Y-77107299D01*
X145565992Y-77616158D01*
X145569798Y-77635292D01*
X145596858Y-77662352D01*
X145635126Y-77662352D01*
X145662186Y-77635292D01*
X145665992Y-77616158D01*
X145665992Y-76997111D01*
X145663217Y-76983164D01*
X145663356Y-76981092D01*
X145662643Y-76980277D01*
X145662186Y-76977977D01*
X145649745Y-76965536D01*
X145638157Y-76952292D01*
X145636382Y-76952173D01*
X145635126Y-76950917D01*
X145617527Y-76950917D01*
X145599973Y-76949747D01*
X145597941Y-76950917D01*
X145596858Y-76950917D01*
X145595387Y-76952387D01*
X145583067Y-76959482D01*
X145285040Y-77220255D01*
X145285040Y-77187587D01*
X145284551Y-77185130D01*
X145284914Y-77184042D01*
X145282797Y-77176314D01*
X145281234Y-77168453D01*
X145280422Y-77167641D01*
X145279761Y-77165226D01*
X145232142Y-77069988D01*
X145227230Y-77063659D01*
X145222776Y-77056993D01*
X145175157Y-77009375D01*
X145168495Y-77004923D01*
X145162162Y-77000008D01*
X145066925Y-76952390D01*
X145064509Y-76951728D01*
X145063698Y-76950917D01*
X145055836Y-76949353D01*
X145048109Y-76947237D01*
X145047020Y-76947599D01*
X145044564Y-76947111D01*
X144806469Y-76947111D01*
X144804012Y-76947599D01*
X144802924Y-76947237D01*
X144795196Y-76949353D01*
X144787335Y-76950917D01*
X144786523Y-76951728D01*
X144784108Y-76952390D01*
X144688870Y-77000009D01*
X144682541Y-77004920D01*
X144675875Y-77009375D01*
X144628257Y-77056994D01*
X144623806Y-77063653D01*
X144618891Y-77069988D01*
X144571271Y-77165226D01*
X144570609Y-77167641D01*
X144569798Y-77168453D01*
X144568234Y-77176314D01*
X144566118Y-77184042D01*
X144566480Y-77185130D01*
X144565992Y-77187587D01*
X144454881Y-77187587D01*
X144454881Y-76235206D01*
X144565992Y-76235206D01*
X144565992Y-76425682D01*
X144566480Y-76428138D01*
X144566118Y-76429227D01*
X144568234Y-76436954D01*
X144569798Y-76444816D01*
X144570609Y-76445627D01*
X144571271Y-76448043D01*
X144618891Y-76543281D01*
X144623806Y-76549615D01*
X144628257Y-76556275D01*
X144675875Y-76603894D01*
X144682541Y-76608348D01*
X144688870Y-76613260D01*
X144784108Y-76660879D01*
X144786523Y-76661540D01*
X144787335Y-76662352D01*
X144795196Y-76663915D01*
X144802924Y-76666032D01*
X144804012Y-76665669D01*
X144806469Y-76666158D01*
X145187421Y-76666158D01*
X145193430Y-76664962D01*
X145199548Y-76664665D01*
X145390024Y-76617046D01*
X145397739Y-76613401D01*
X145405632Y-76610142D01*
X145548489Y-76514903D01*
X145551993Y-76511406D01*
X145556109Y-76508656D01*
X145603728Y-76461038D01*
X145608182Y-76454371D01*
X145613094Y-76448043D01*
X145660713Y-76352805D01*
X145661374Y-76350389D01*
X145662186Y-76349578D01*
X145663749Y-76341716D01*
X145665866Y-76333989D01*
X145665503Y-76332900D01*
X145665992Y-76330444D01*
X145665992Y-76139968D01*
X145662186Y-76120834D01*
X145635126Y-76093774D01*
X145596858Y-76093774D01*
X145569798Y-76120834D01*
X145565992Y-76139968D01*
X145565992Y-76318640D01*
X145527280Y-76396063D01*
X145488902Y-76434442D01*
X145357366Y-76522132D01*
X145223173Y-76555681D01*
X145227230Y-76549609D01*
X145232142Y-76543281D01*
X145279761Y-76448043D01*
X145280422Y-76445627D01*
X145281234Y-76444816D01*
X145282797Y-76436954D01*
X145284914Y-76429227D01*
X145284551Y-76428138D01*
X145285040Y-76425682D01*
X145285040Y-76235206D01*
X145284551Y-76232749D01*
X145284914Y-76231661D01*
X145282797Y-76223933D01*
X145281234Y-76216072D01*
X145280422Y-76215260D01*
X145279761Y-76212845D01*
X145232142Y-76117607D01*
X145227230Y-76111278D01*
X145222776Y-76104612D01*
X145175157Y-76056994D01*
X145168495Y-76052542D01*
X145162162Y-76047627D01*
X145066925Y-76000009D01*
X145064509Y-75999347D01*
X145063698Y-75998536D01*
X145055836Y-75996972D01*
X145048109Y-75994856D01*
X145047020Y-75995218D01*
X145044564Y-75994730D01*
X144806469Y-75994730D01*
X144804012Y-75995218D01*
X144802924Y-75994856D01*
X144795196Y-75996972D01*
X144787335Y-75998536D01*
X144786523Y-75999347D01*
X144784108Y-76000009D01*
X144688870Y-76047628D01*
X144682541Y-76052539D01*
X144675875Y-76056994D01*
X144628257Y-76104613D01*
X144623806Y-76111272D01*
X144618891Y-76117607D01*
X144571271Y-76212845D01*
X144570609Y-76215260D01*
X144569798Y-76216072D01*
X144568234Y-76223933D01*
X144566118Y-76231661D01*
X144566480Y-76232749D01*
X144565992Y-76235206D01*
X144454881Y-76235206D01*
X144454881Y-74520920D01*
X144565992Y-74520920D01*
X144565992Y-74806634D01*
X144566480Y-74809090D01*
X144566118Y-74810179D01*
X144568234Y-74817906D01*
X144569798Y-74825768D01*
X144570609Y-74826579D01*
X144571271Y-74828995D01*
X144618891Y-74924233D01*
X144623806Y-74930567D01*
X144628257Y-74937227D01*
X144675875Y-74984846D01*
X144692096Y-74995685D01*
X144730365Y-74995685D01*
X144757425Y-74968625D01*
X144757425Y-74930356D01*
X144746586Y-74914135D01*
X144704704Y-74872254D01*
X144665992Y-74794830D01*
X144665992Y-74532723D01*
X144704704Y-74455299D01*
X144740849Y-74419155D01*
X144818273Y-74380444D01*
X145032761Y-74380444D01*
X145110184Y-74419155D01*
X145146328Y-74455300D01*
X145185040Y-74532723D01*
X145185040Y-74663777D01*
X145187814Y-74677723D01*
X145187676Y-74679796D01*
X145188388Y-74680610D01*
X145188846Y-74682911D01*
X145201286Y-74695351D01*
X145212875Y-74708596D01*
X145214649Y-74708714D01*
X145215906Y-74709971D01*
X145233505Y-74709971D01*
X145251059Y-74711141D01*
X145253091Y-74709971D01*
X145254174Y-74709971D01*
X145255644Y-74708500D01*
X145267965Y-74701406D01*
X145565992Y-74440632D01*
X145565992Y-74949491D01*
X145569798Y-74968625D01*
X145596858Y-74995685D01*
X145635126Y-74995685D01*
X145662186Y-74968625D01*
X145665992Y-74949491D01*
X145665992Y-74330444D01*
X145663217Y-74316497D01*
X145663356Y-74314425D01*
X145662643Y-74313610D01*
X145662186Y-74311310D01*
X145649745Y-74298869D01*
X145638157Y-74285625D01*
X145636382Y-74285506D01*
X145635126Y-74284250D01*
X145617527Y-74284250D01*
X145599973Y-74283080D01*
X145597941Y-74284250D01*
X145596858Y-74284250D01*
X145595387Y-74285720D01*
X145583067Y-74292815D01*
X145285040Y-74553588D01*
X145285040Y-74520920D01*
X145284551Y-74518463D01*
X145284914Y-74517375D01*
X145282797Y-74509647D01*
X145281234Y-74501786D01*
X145280422Y-74500974D01*
X145279761Y-74498559D01*
X145232142Y-74403321D01*
X145227230Y-74396992D01*
X145222776Y-74390326D01*
X145175157Y-74342708D01*
X145168495Y-74338256D01*
X145162162Y-74333341D01*
X145066925Y-74285723D01*
X145064509Y-74285061D01*
X145063698Y-74284250D01*
X145055836Y-74282686D01*
X145048109Y-74280570D01*
X145047020Y-74280932D01*
X145044564Y-74280444D01*
X144806469Y-74280444D01*
X144804012Y-74280932D01*
X144802924Y-74280570D01*
X144795196Y-74282686D01*
X144787335Y-74284250D01*
X144786523Y-74285061D01*
X144784108Y-74285723D01*
X144688870Y-74333342D01*
X144682541Y-74338253D01*
X144675875Y-74342708D01*
X144628257Y-74390327D01*
X144623806Y-74396986D01*
X144618891Y-74403321D01*
X144571271Y-74498559D01*
X144570609Y-74500974D01*
X144569798Y-74501786D01*
X144568234Y-74509647D01*
X144566118Y-74517375D01*
X144566480Y-74518463D01*
X144565992Y-74520920D01*
X144454881Y-74520920D01*
X144454881Y-73759625D01*
X144565996Y-73759625D01*
X144581070Y-73794799D01*
X144616602Y-73809011D01*
X144635688Y-73804972D01*
X145565992Y-73406270D01*
X145565992Y-73997110D01*
X145569798Y-74016244D01*
X145596858Y-74043304D01*
X145635126Y-74043304D01*
X145662186Y-74016244D01*
X145665992Y-73997110D01*
X145665992Y-73330444D01*
X145665909Y-73330029D01*
X145665988Y-73329834D01*
X145665769Y-73329323D01*
X145662186Y-73311310D01*
X145654945Y-73304069D01*
X145650913Y-73294661D01*
X145641952Y-73291076D01*
X145635126Y-73284250D01*
X145624887Y-73284250D01*
X145615382Y-73280448D01*
X145597416Y-73284250D01*
X145596858Y-73284250D01*
X145596708Y-73284399D01*
X145596296Y-73284487D01*
X144596296Y-73713058D01*
X144580208Y-73724093D01*
X144565996Y-73759625D01*
X144454881Y-73759625D01*
X144454881Y-71854253D01*
X144565992Y-71854253D01*
X144565992Y-72139967D01*
X144566480Y-72142423D01*
X144566118Y-72143512D01*
X144568234Y-72151239D01*
X144569798Y-72159101D01*
X144570609Y-72159912D01*
X144571271Y-72162328D01*
X144618891Y-72257566D01*
X144623806Y-72263900D01*
X144628257Y-72270560D01*
X144675875Y-72318179D01*
X144692096Y-72329018D01*
X144730365Y-72329018D01*
X144757425Y-72301958D01*
X144757425Y-72263689D01*
X144746586Y-72247468D01*
X144704704Y-72205587D01*
X144665992Y-72128163D01*
X144665992Y-71866056D01*
X144704704Y-71788632D01*
X144740849Y-71752488D01*
X144818273Y-71713777D01*
X145032761Y-71713777D01*
X145110184Y-71752488D01*
X145146328Y-71788633D01*
X145185040Y-71866056D01*
X145185040Y-71997110D01*
X145187814Y-72011056D01*
X145187676Y-72013129D01*
X145188388Y-72013943D01*
X145188846Y-72016244D01*
X145201286Y-72028684D01*
X145212875Y-72041929D01*
X145214649Y-72042047D01*
X145215906Y-72043304D01*
X145233505Y-72043304D01*
X145251059Y-72044474D01*
X145253091Y-72043304D01*
X145254174Y-72043304D01*
X145255644Y-72041833D01*
X145267965Y-72034739D01*
X145565992Y-71773965D01*
X145565992Y-72282824D01*
X145569798Y-72301958D01*
X145596858Y-72329018D01*
X145635126Y-72329018D01*
X145662186Y-72301958D01*
X145665992Y-72282824D01*
X145665992Y-71663777D01*
X145663217Y-71649830D01*
X145663356Y-71647758D01*
X145662643Y-71646943D01*
X145662186Y-71644643D01*
X145649745Y-71632202D01*
X145638157Y-71618958D01*
X145636382Y-71618839D01*
X145635126Y-71617583D01*
X145617527Y-71617583D01*
X145599973Y-71616413D01*
X145597941Y-71617583D01*
X145596858Y-71617583D01*
X145595387Y-71619053D01*
X145583067Y-71626148D01*
X145285040Y-71886921D01*
X145285040Y-71854253D01*
X145284551Y-71851796D01*
X145284914Y-71850708D01*
X145282797Y-71842980D01*
X145281234Y-71835119D01*
X145280422Y-71834307D01*
X145279761Y-71831892D01*
X145232142Y-71736654D01*
X145227230Y-71730325D01*
X145222776Y-71723659D01*
X145175157Y-71676041D01*
X145168495Y-71671589D01*
X145162162Y-71666674D01*
X145066925Y-71619056D01*
X145064509Y-71618394D01*
X145063698Y-71617583D01*
X145055836Y-71616019D01*
X145048109Y-71613903D01*
X145047020Y-71614265D01*
X145044564Y-71613777D01*
X144806469Y-71613777D01*
X144804012Y-71614265D01*
X144802924Y-71613903D01*
X144795196Y-71616019D01*
X144787335Y-71617583D01*
X144786523Y-71618394D01*
X144784108Y-71619056D01*
X144688870Y-71666675D01*
X144682541Y-71671586D01*
X144675875Y-71676041D01*
X144628257Y-71723660D01*
X144623806Y-71730319D01*
X144618891Y-71736654D01*
X144571271Y-71831892D01*
X144570609Y-71834307D01*
X144569798Y-71835119D01*
X144568234Y-71842980D01*
X144566118Y-71850708D01*
X144566480Y-71851796D01*
X144565992Y-71854253D01*
X144454881Y-71854253D01*
X144454881Y-70901872D01*
X144565992Y-70901872D01*
X144565992Y-71092348D01*
X144566480Y-71094804D01*
X144566118Y-71095893D01*
X144568234Y-71103620D01*
X144569798Y-71111482D01*
X144570609Y-71112293D01*
X144571271Y-71114709D01*
X144618891Y-71209947D01*
X144623806Y-71216281D01*
X144628257Y-71222941D01*
X144675875Y-71270560D01*
X144682541Y-71275014D01*
X144688870Y-71279926D01*
X144784108Y-71327545D01*
X144786523Y-71328206D01*
X144787335Y-71329018D01*
X144795196Y-71330581D01*
X144802924Y-71332698D01*
X144804012Y-71332335D01*
X144806469Y-71332824D01*
X144996945Y-71332824D01*
X144999401Y-71332335D01*
X145000490Y-71332698D01*
X145008217Y-71330581D01*
X145016079Y-71329018D01*
X145016890Y-71328206D01*
X145019306Y-71327545D01*
X145114543Y-71279927D01*
X145120876Y-71275011D01*
X145127538Y-71270560D01*
X145175157Y-71222942D01*
X145179611Y-71216275D01*
X145184523Y-71209947D01*
X145187420Y-71204151D01*
X145190318Y-71209946D01*
X145195233Y-71216279D01*
X145199685Y-71222941D01*
X145247303Y-71270560D01*
X145253969Y-71275014D01*
X145260298Y-71279926D01*
X145355536Y-71327545D01*
X145357951Y-71328206D01*
X145358763Y-71329018D01*
X145366624Y-71330581D01*
X145374352Y-71332698D01*
X145375440Y-71332335D01*
X145377897Y-71332824D01*
X145425516Y-71332824D01*
X145427972Y-71332335D01*
X145429061Y-71332698D01*
X145436788Y-71330581D01*
X145444650Y-71329018D01*
X145445461Y-71328206D01*
X145447877Y-71327545D01*
X145543114Y-71279927D01*
X145549447Y-71275011D01*
X145556109Y-71270560D01*
X145603728Y-71222942D01*
X145608182Y-71216275D01*
X145613094Y-71209947D01*
X145660713Y-71114709D01*
X145661374Y-71112293D01*
X145662186Y-71111482D01*
X145663749Y-71103620D01*
X145665866Y-71095893D01*
X145665503Y-71094804D01*
X145665992Y-71092348D01*
X145665992Y-70901872D01*
X145665503Y-70899415D01*
X145665866Y-70898327D01*
X145663749Y-70890599D01*
X145662186Y-70882738D01*
X145661374Y-70881926D01*
X145660713Y-70879511D01*
X145613094Y-70784273D01*
X145608182Y-70777944D01*
X145603728Y-70771278D01*
X145556109Y-70723660D01*
X145549447Y-70719208D01*
X145543114Y-70714293D01*
X145447877Y-70666675D01*
X145445461Y-70666013D01*
X145444650Y-70665202D01*
X145436788Y-70663638D01*
X145429061Y-70661522D01*
X145427972Y-70661884D01*
X145425516Y-70661396D01*
X145377897Y-70661396D01*
X145375440Y-70661884D01*
X145374352Y-70661522D01*
X145366624Y-70663638D01*
X145358763Y-70665202D01*
X145357951Y-70666013D01*
X145355536Y-70666675D01*
X145260298Y-70714294D01*
X145253969Y-70719205D01*
X145247303Y-70723660D01*
X145199685Y-70771279D01*
X145195233Y-70777940D01*
X145190318Y-70784274D01*
X145187420Y-70790068D01*
X145184523Y-70784273D01*
X145179611Y-70777944D01*
X145175157Y-70771278D01*
X145127538Y-70723660D01*
X145120876Y-70719208D01*
X145114543Y-70714293D01*
X145019306Y-70666675D01*
X145016890Y-70666013D01*
X145016079Y-70665202D01*
X145008217Y-70663638D01*
X145000490Y-70661522D01*
X144999401Y-70661884D01*
X144996945Y-70661396D01*
X144806469Y-70661396D01*
X144804012Y-70661884D01*
X144802924Y-70661522D01*
X144795196Y-70663638D01*
X144787335Y-70665202D01*
X144786523Y-70666013D01*
X144784108Y-70666675D01*
X144688870Y-70714294D01*
X144682541Y-70719205D01*
X144675875Y-70723660D01*
X144628257Y-70771279D01*
X144623806Y-70777938D01*
X144618891Y-70784273D01*
X144571271Y-70879511D01*
X144570609Y-70881926D01*
X144569798Y-70882738D01*
X144568234Y-70890599D01*
X144566118Y-70898327D01*
X144566480Y-70899415D01*
X144565992Y-70901872D01*
X144454881Y-70901872D01*
X144454881Y-69187586D01*
X144565992Y-69187586D01*
X144565992Y-69473300D01*
X144566480Y-69475756D01*
X144566118Y-69476845D01*
X144568234Y-69484572D01*
X144569798Y-69492434D01*
X144570609Y-69493245D01*
X144571271Y-69495661D01*
X144618891Y-69590899D01*
X144623806Y-69597233D01*
X144628257Y-69603893D01*
X144675875Y-69651512D01*
X144692096Y-69662351D01*
X144730365Y-69662351D01*
X144757425Y-69635291D01*
X144757425Y-69597022D01*
X144746586Y-69580801D01*
X144704704Y-69538920D01*
X144665992Y-69461496D01*
X144665992Y-69199389D01*
X144704704Y-69121965D01*
X144740849Y-69085821D01*
X144818273Y-69047110D01*
X145032761Y-69047110D01*
X145110184Y-69085821D01*
X145146328Y-69121966D01*
X145185040Y-69199389D01*
X145185040Y-69330443D01*
X145187814Y-69344389D01*
X145187676Y-69346462D01*
X145188388Y-69347276D01*
X145188846Y-69349577D01*
X145201286Y-69362017D01*
X145212875Y-69375262D01*
X145214649Y-69375380D01*
X145215906Y-69376637D01*
X145233505Y-69376637D01*
X145251059Y-69377807D01*
X145253091Y-69376637D01*
X145254174Y-69376637D01*
X145255644Y-69375166D01*
X145267965Y-69368072D01*
X145565992Y-69107298D01*
X145565992Y-69616157D01*
X145569798Y-69635291D01*
X145596858Y-69662351D01*
X145635126Y-69662351D01*
X145662186Y-69635291D01*
X145665992Y-69616157D01*
X145665992Y-68997110D01*
X145663217Y-68983163D01*
X145663356Y-68981091D01*
X145662643Y-68980276D01*
X145662186Y-68977976D01*
X145649745Y-68965535D01*
X145638157Y-68952291D01*
X145636382Y-68952172D01*
X145635126Y-68950916D01*
X145617527Y-68950916D01*
X145599973Y-68949746D01*
X145597941Y-68950916D01*
X145596858Y-68950916D01*
X145595387Y-68952386D01*
X145583067Y-68959481D01*
X145285040Y-69220254D01*
X145285040Y-69187586D01*
X145284551Y-69185129D01*
X145284914Y-69184041D01*
X145282797Y-69176313D01*
X145281234Y-69168452D01*
X145280422Y-69167640D01*
X145279761Y-69165225D01*
X145232142Y-69069987D01*
X145227230Y-69063658D01*
X145222776Y-69056992D01*
X145175157Y-69009374D01*
X145168495Y-69004922D01*
X145162162Y-69000007D01*
X145066925Y-68952389D01*
X145064509Y-68951727D01*
X145063698Y-68950916D01*
X145055836Y-68949352D01*
X145048109Y-68947236D01*
X145047020Y-68947598D01*
X145044564Y-68947110D01*
X144806469Y-68947110D01*
X144804012Y-68947598D01*
X144802924Y-68947236D01*
X144795196Y-68949352D01*
X144787335Y-68950916D01*
X144786523Y-68951727D01*
X144784108Y-68952389D01*
X144688870Y-69000008D01*
X144682541Y-69004919D01*
X144675875Y-69009374D01*
X144628257Y-69056993D01*
X144623806Y-69063652D01*
X144618891Y-69069987D01*
X144571271Y-69165225D01*
X144570609Y-69167640D01*
X144569798Y-69168452D01*
X144568234Y-69176313D01*
X144566118Y-69184041D01*
X144566480Y-69185129D01*
X144565992Y-69187586D01*
X144454881Y-69187586D01*
X144454881Y-68330443D01*
X144565992Y-68330443D01*
X144565992Y-68520919D01*
X144569798Y-68540053D01*
X144596858Y-68567113D01*
X144635126Y-68567113D01*
X144662186Y-68540053D01*
X144665992Y-68520919D01*
X144665992Y-68342246D01*
X144704704Y-68264822D01*
X144743084Y-68226443D01*
X144874615Y-68138754D01*
X145008812Y-68105205D01*
X145004757Y-68111273D01*
X144999842Y-68117607D01*
X144952224Y-68212844D01*
X144951562Y-68215259D01*
X144950751Y-68216071D01*
X144949187Y-68223932D01*
X144947071Y-68231660D01*
X144947433Y-68232748D01*
X144946945Y-68235205D01*
X144946945Y-68425681D01*
X144947433Y-68428137D01*
X144947071Y-68429226D01*
X144949187Y-68436953D01*
X144950751Y-68444815D01*
X144951562Y-68445626D01*
X144952224Y-68448042D01*
X144999842Y-68543279D01*
X145004757Y-68549612D01*
X145009209Y-68556274D01*
X145056827Y-68603893D01*
X145063493Y-68608347D01*
X145069822Y-68613259D01*
X145165060Y-68660878D01*
X145167475Y-68661539D01*
X145168287Y-68662351D01*
X145176148Y-68663914D01*
X145183876Y-68666031D01*
X145184964Y-68665668D01*
X145187421Y-68666157D01*
X145425516Y-68666157D01*
X145427972Y-68665668D01*
X145429061Y-68666031D01*
X145436788Y-68663914D01*
X145444650Y-68662351D01*
X145445461Y-68661539D01*
X145447877Y-68660878D01*
X145543114Y-68613260D01*
X145549447Y-68608344D01*
X145556109Y-68603893D01*
X145603728Y-68556275D01*
X145608182Y-68549608D01*
X145613094Y-68543280D01*
X145660713Y-68448042D01*
X145661374Y-68445626D01*
X145662186Y-68444815D01*
X145663749Y-68436953D01*
X145665866Y-68429226D01*
X145665503Y-68428137D01*
X145665992Y-68425681D01*
X145665992Y-68235205D01*
X145665503Y-68232748D01*
X145665866Y-68231660D01*
X145663749Y-68223932D01*
X145662186Y-68216071D01*
X145661374Y-68215259D01*
X145660713Y-68212844D01*
X145613094Y-68117606D01*
X145608182Y-68111277D01*
X145603728Y-68104611D01*
X145556109Y-68056993D01*
X145549447Y-68052541D01*
X145543114Y-68047626D01*
X145447877Y-68000008D01*
X145445461Y-67999346D01*
X145444650Y-67998535D01*
X145436788Y-67996971D01*
X145429061Y-67994855D01*
X145427972Y-67995217D01*
X145425516Y-67994729D01*
X145044564Y-67994729D01*
X145038554Y-67995924D01*
X145032437Y-67996222D01*
X144841961Y-68043841D01*
X144834253Y-68047482D01*
X144826353Y-68050745D01*
X144683496Y-68145983D01*
X144679991Y-68149480D01*
X144675875Y-68152231D01*
X144628257Y-68199850D01*
X144623806Y-68206509D01*
X144618891Y-68212844D01*
X144571271Y-68308082D01*
X144570609Y-68310497D01*
X144569798Y-68311309D01*
X144568234Y-68319170D01*
X144566118Y-68326898D01*
X144566480Y-68327986D01*
X144565992Y-68330443D01*
X144454881Y-68330443D01*
X144454881Y-66406547D01*
X144569798Y-66406547D01*
X144569798Y-66444815D01*
X144596858Y-66471875D01*
X144615992Y-66475681D01*
X144899326Y-66475681D01*
X144899326Y-66901871D01*
X144903132Y-66921005D01*
X144908950Y-66926823D01*
X144911553Y-66934631D01*
X144921962Y-66939835D01*
X144930192Y-66948065D01*
X144938422Y-66948065D01*
X144945782Y-66951745D01*
X144965137Y-66949305D01*
X145679423Y-66711210D01*
X145696371Y-66701549D01*
X145713486Y-66667320D01*
X145701384Y-66631016D01*
X145667156Y-66613902D01*
X145647800Y-66616342D01*
X144999326Y-66832500D01*
X144999326Y-66475681D01*
X145282659Y-66475681D01*
X145301793Y-66471875D01*
X145328853Y-66444815D01*
X145328853Y-66406547D01*
X145301793Y-66379487D01*
X145282659Y-66375681D01*
X144999326Y-66375681D01*
X144999326Y-66282824D01*
X144995520Y-66263690D01*
X144968460Y-66236630D01*
X144930192Y-66236630D01*
X144903132Y-66263690D01*
X144899326Y-66282824D01*
X144899326Y-66375681D01*
X144615992Y-66375681D01*
X144596858Y-66379487D01*
X144569798Y-66406547D01*
X144454881Y-66406547D01*
X144454881Y-65616157D01*
X144565992Y-65616157D01*
X144565992Y-65711395D01*
X144566480Y-65713851D01*
X144566118Y-65714940D01*
X144568234Y-65722667D01*
X144569798Y-65730529D01*
X144570609Y-65731340D01*
X144571271Y-65733756D01*
X144618891Y-65828994D01*
X144623806Y-65835328D01*
X144628257Y-65841988D01*
X144675875Y-65889607D01*
X144682541Y-65894061D01*
X144688870Y-65898973D01*
X144784108Y-65946592D01*
X144789389Y-65948038D01*
X144794342Y-65950378D01*
X144984818Y-65997997D01*
X144990935Y-65998294D01*
X144996945Y-65999490D01*
X145235040Y-65999490D01*
X145241049Y-65998294D01*
X145247167Y-65997997D01*
X145437643Y-65950378D01*
X145442595Y-65948038D01*
X145447877Y-65946592D01*
X145543114Y-65898974D01*
X145549447Y-65894058D01*
X145556109Y-65889607D01*
X145603728Y-65841989D01*
X145608182Y-65835322D01*
X145613094Y-65828994D01*
X145660713Y-65733756D01*
X145661374Y-65731340D01*
X145662186Y-65730529D01*
X145663749Y-65722667D01*
X145665866Y-65714940D01*
X145665503Y-65713851D01*
X145665992Y-65711395D01*
X145665992Y-65616157D01*
X145665503Y-65613700D01*
X145665866Y-65612612D01*
X145663749Y-65604884D01*
X145662186Y-65597023D01*
X145661374Y-65596211D01*
X145660713Y-65593796D01*
X145613094Y-65498558D01*
X145608182Y-65492229D01*
X145603728Y-65485563D01*
X145556109Y-65437945D01*
X145549447Y-65433493D01*
X145543114Y-65428578D01*
X145447877Y-65380960D01*
X145442595Y-65379513D01*
X145437643Y-65377174D01*
X145247167Y-65329555D01*
X145241049Y-65329257D01*
X145235040Y-65328062D01*
X144996945Y-65328062D01*
X144990935Y-65329257D01*
X144984818Y-65329555D01*
X144794342Y-65377174D01*
X144789389Y-65379513D01*
X144784108Y-65380960D01*
X144688870Y-65428579D01*
X144682541Y-65433490D01*
X144675875Y-65437945D01*
X144628257Y-65485564D01*
X144623806Y-65492223D01*
X144618891Y-65498558D01*
X144571271Y-65593796D01*
X144570609Y-65596211D01*
X144569798Y-65597023D01*
X144568234Y-65604884D01*
X144566118Y-65612612D01*
X144566480Y-65613700D01*
X144565992Y-65616157D01*
X144454881Y-65616157D01*
X144454881Y-65216951D01*
X145824597Y-65216951D01*
X145824597Y-77773463D01*
G37*
D11*
X129869819Y-79241541D02*
X130869819Y-79479636D01*
X130869819Y-79479636D02*
X130155533Y-79670112D01*
X130155533Y-79670112D02*
X130869819Y-79860588D01*
X130869819Y-79860588D02*
X129869819Y-80098684D01*
X130869819Y-80908207D02*
X130346009Y-80908207D01*
X130346009Y-80908207D02*
X130250771Y-80860588D01*
X130250771Y-80860588D02*
X130203152Y-80765350D01*
X130203152Y-80765350D02*
X130203152Y-80574874D01*
X130203152Y-80574874D02*
X130250771Y-80479636D01*
X130822200Y-80908207D02*
X130869819Y-80812969D01*
X130869819Y-80812969D02*
X130869819Y-80574874D01*
X130869819Y-80574874D02*
X130822200Y-80479636D01*
X130822200Y-80479636D02*
X130726961Y-80432017D01*
X130726961Y-80432017D02*
X130631723Y-80432017D01*
X130631723Y-80432017D02*
X130536485Y-80479636D01*
X130536485Y-80479636D02*
X130488866Y-80574874D01*
X130488866Y-80574874D02*
X130488866Y-80812969D01*
X130488866Y-80812969D02*
X130441247Y-80908207D01*
X130203152Y-81289160D02*
X130869819Y-81527255D01*
X130203152Y-81765350D02*
X130869819Y-81527255D01*
X130869819Y-81527255D02*
X131107914Y-81432017D01*
X131107914Y-81432017D02*
X131155533Y-81384398D01*
X131155533Y-81384398D02*
X131203152Y-81289160D01*
X129869819Y-82051065D02*
X130869819Y-82289160D01*
X130869819Y-82289160D02*
X130155533Y-82479636D01*
X130155533Y-82479636D02*
X130869819Y-82670112D01*
X130869819Y-82670112D02*
X129869819Y-82908208D01*
X130869819Y-83717731D02*
X130346009Y-83717731D01*
X130346009Y-83717731D02*
X130250771Y-83670112D01*
X130250771Y-83670112D02*
X130203152Y-83574874D01*
X130203152Y-83574874D02*
X130203152Y-83384398D01*
X130203152Y-83384398D02*
X130250771Y-83289160D01*
X130822200Y-83717731D02*
X130869819Y-83622493D01*
X130869819Y-83622493D02*
X130869819Y-83384398D01*
X130869819Y-83384398D02*
X130822200Y-83289160D01*
X130822200Y-83289160D02*
X130726961Y-83241541D01*
X130726961Y-83241541D02*
X130631723Y-83241541D01*
X130631723Y-83241541D02*
X130536485Y-83289160D01*
X130536485Y-83289160D02*
X130488866Y-83384398D01*
X130488866Y-83384398D02*
X130488866Y-83622493D01*
X130488866Y-83622493D02*
X130441247Y-83717731D01*
X130203152Y-84098684D02*
X130869819Y-84336779D01*
X130203152Y-84574874D02*
X130869819Y-84336779D01*
X130869819Y-84336779D02*
X131107914Y-84241541D01*
X131107914Y-84241541D02*
X131155533Y-84193922D01*
X131155533Y-84193922D02*
X131203152Y-84098684D01*
X129869819Y-84860589D02*
X130869819Y-85098684D01*
X130869819Y-85098684D02*
X130155533Y-85289160D01*
X130155533Y-85289160D02*
X130869819Y-85479636D01*
X130869819Y-85479636D02*
X129869819Y-85717732D01*
X130869819Y-86527255D02*
X130346009Y-86527255D01*
X130346009Y-86527255D02*
X130250771Y-86479636D01*
X130250771Y-86479636D02*
X130203152Y-86384398D01*
X130203152Y-86384398D02*
X130203152Y-86193922D01*
X130203152Y-86193922D02*
X130250771Y-86098684D01*
X130822200Y-86527255D02*
X130869819Y-86432017D01*
X130869819Y-86432017D02*
X130869819Y-86193922D01*
X130869819Y-86193922D02*
X130822200Y-86098684D01*
X130822200Y-86098684D02*
X130726961Y-86051065D01*
X130726961Y-86051065D02*
X130631723Y-86051065D01*
X130631723Y-86051065D02*
X130536485Y-86098684D01*
X130536485Y-86098684D02*
X130488866Y-86193922D01*
X130488866Y-86193922D02*
X130488866Y-86432017D01*
X130488866Y-86432017D02*
X130441247Y-86527255D01*
X130203152Y-86908208D02*
X130869819Y-87146303D01*
X130203152Y-87384398D02*
X130869819Y-87146303D01*
X130869819Y-87146303D02*
X131107914Y-87051065D01*
X131107914Y-87051065D02*
X131155533Y-87003446D01*
X131155533Y-87003446D02*
X131203152Y-86908208D01*
D12*
G36*
X602861146Y900021243D02*
G01*
X606449532Y899960775D01*
X609681356Y899788648D01*
X611187847Y899636950D01*
X612634340Y899428820D01*
X614030549Y899154754D01*
X615386186Y898805249D01*
X616710975Y898370798D01*
X618014618Y897841898D01*
X619306837Y897209042D01*
X620597346Y896462723D01*
X621895857Y895593439D01*
X623212088Y894591686D01*
X624555748Y893447952D01*
X625936553Y892152740D01*
X627364217Y890696543D01*
X628848457Y889069856D01*
X630398985Y887263170D01*
X632025516Y885266981D01*
X633737766Y883071790D01*
X635545445Y880668082D01*
X639485959Y875197117D01*
X643924766Y868778045D01*
X648939585Y861334827D01*
X661008117Y843071778D01*
X708405347Y771585574D01*
X769966248Y679430423D01*
X807628115Y572556643D01*
X807628115Y539816705D01*
X805661338Y544024523D01*
X798584739Y553688746D01*
X790437580Y565145741D01*
X781099400Y578549094D01*
X770449748Y594052386D01*
X758368152Y611809201D01*
X729427308Y654697757D01*
X634811218Y795341065D01*
X632035339Y654697757D01*
X629259459Y514055665D01*
X609614685Y512399171D01*
X607592858Y512251223D01*
X605587338Y512148439D01*
X601673647Y512073093D01*
X597970441Y512162536D01*
X596228030Y512265748D01*
X594574554Y512406190D01*
X593022113Y512582537D01*
X591582811Y512793467D01*
X590268757Y513037659D01*
X589092052Y513313784D01*
X588064799Y513620520D01*
X587199100Y513956551D01*
X586507062Y514320543D01*
X586000791Y514711183D01*
X585994079Y514694093D01*
X585589633Y516088209D01*
X585196581Y519385066D01*
X584452788Y531287666D01*
X583778916Y549603214D01*
X583191191Y573533052D01*
X582339063Y635040908D01*
X582026183Y709421876D01*
X582026183Y900181153D01*
X602861146Y900021243D01*
G37*
G36*
X734816101Y593114505D02*
G01*
X807045102Y483802981D01*
X807628115Y483643067D01*
X807628115Y483483157D01*
X807628115Y448398559D01*
X803111313Y457407257D01*
X795333636Y466809922D01*
X787802844Y476327412D01*
X780754981Y485680597D01*
X774426083Y494590335D01*
X745863462Y536261476D01*
X744303406Y468198734D01*
X742743344Y400135988D01*
X595500915Y400135988D01*
X563727232Y432245364D01*
X563794370Y432240481D01*
X532020688Y464349857D01*
X532020688Y483561282D01*
X532020688Y955743900D01*
X646694761Y955743900D01*
X682422912Y917952149D01*
X686393897Y913594139D01*
X690903949Y908360864D01*
X701336960Y895546963D01*
X713313356Y880067362D01*
X726424528Y862478976D01*
X740261886Y843338712D01*
X754416833Y823203482D01*
X768480773Y802630203D01*
X782045103Y782175784D01*
X807109609Y744102587D01*
X807628115Y712871586D01*
X807628115Y700043214D01*
X807628115Y699908131D01*
X807628115Y699494232D01*
X807628115Y697857728D01*
X807628115Y695189179D01*
X807628115Y691544070D01*
X807628115Y681546102D01*
X807628115Y681424712D01*
X807628115Y671926758D01*
X778573614Y719537464D01*
X739831357Y777676273D01*
X640364195Y927410159D01*
X597303894Y927729983D01*
X554243588Y928049807D01*
X554243588Y483561282D01*
X659574401Y483561282D01*
X661082581Y592949707D01*
X662586487Y702426028D01*
X734816101Y593114505D01*
G37*
G36*
X807628115Y388930498D02*
G01*
X807628115Y386386597D01*
X807628115Y379961427D01*
X807628115Y371899235D01*
X807628115Y371422926D01*
X807628115Y370901747D01*
X807628115Y370355716D01*
X807628115Y368297849D01*
X807628115Y366551773D01*
X807628115Y363759036D01*
X807628115Y359319337D01*
X807628115Y355873902D01*
X807628115Y352858156D01*
X807628115Y352337132D01*
X807628115Y352142422D01*
X807628115Y351551239D01*
X807628115Y350308152D01*
X807628115Y349164099D01*
X807628115Y348130740D01*
X807628115Y347219728D01*
X807628115Y347212402D01*
X807628115Y346792699D01*
X807628115Y346379873D01*
X807628115Y345974418D01*
X807628115Y345576839D01*
X807628115Y345187637D01*
X807628115Y344807316D01*
X807628115Y344436372D01*
X807628115Y344075313D01*
X807628115Y343724631D01*
X807628115Y343384834D01*
X807628115Y343056424D01*
X807628115Y342739895D01*
X807628115Y342435757D01*
X807628115Y342144500D01*
X807628115Y341866639D01*
X807628115Y341602664D01*
X807628115Y341353080D01*
X807628115Y341118387D01*
X807628115Y340899089D01*
X807628115Y340695683D01*
X807628115Y340508677D01*
X807628115Y340338566D01*
X807628115Y340185852D01*
X807628115Y340116176D01*
X807628115Y340051034D01*
X807628115Y339990495D01*
X807628115Y339934620D01*
X807628115Y339883466D01*
X807628115Y339837104D01*
X807628115Y339795591D01*
X807628115Y339758992D01*
X807628115Y339727369D01*
X807628115Y339700785D01*
X807628115Y339679299D01*
X807628115Y339662979D01*
X807628115Y339646079D01*
X807628115Y338660991D01*
X807628115Y337756838D01*
X807628115Y337339590D01*
X807628115Y336945840D01*
X807628115Y336575787D01*
X807628115Y336229644D01*
X807628115Y335907610D01*
X807628115Y335609889D01*
X807628115Y335336693D01*
X807628115Y335209356D01*
X807628115Y335088227D01*
X807628115Y334973331D01*
X807628115Y334864693D01*
X807628115Y334762342D01*
X807628115Y334666301D01*
X807628115Y334493252D01*
X807628115Y334345754D01*
X807628115Y334224011D01*
X807628115Y334128234D01*
X807628115Y334058621D01*
X807628115Y334015381D01*
X807628115Y333976730D01*
X807628115Y333968009D01*
X807628115Y333910223D01*
X807628115Y333869046D01*
X807628115Y333861288D01*
X807628115Y333345253D01*
X807628115Y332959300D01*
X807628115Y332946851D01*
X807628115Y332902463D01*
X807628115Y332824192D01*
X807628115Y332710090D01*
X807628115Y332558212D01*
X807628115Y332366608D01*
X807628115Y332133327D01*
X807628115Y331856428D01*
X807628115Y331533956D01*
X807628115Y331163974D01*
X807628115Y330744524D01*
X807628115Y330273667D01*
X807628115Y329749449D01*
X807628115Y329169924D01*
X807628115Y329114563D01*
X415356263Y332767822D01*
X-299115682Y335352673D01*
X-548628114Y336255371D01*
X-548628114Y360729197D01*
X-383832317Y360729197D01*
X-365639672Y359924462D01*
X-227951310Y358427004D01*
X29974971Y357181315D01*
X390339780Y356310303D01*
X807628115Y353663820D01*
X807628115Y353886014D01*
X807628115Y354568847D01*
X807628115Y355300026D01*
X807628115Y356082860D01*
X807628115Y356920656D01*
X807628115Y357816714D01*
X807628115Y358774344D01*
X807628115Y359796847D01*
X807628115Y360887535D01*
X807628115Y362049711D01*
X807628115Y363286678D01*
X807628115Y364601749D01*
X807628115Y365998223D01*
X807628115Y367479412D01*
X807628115Y369048614D01*
X807628115Y370709139D01*
X807628115Y371823455D01*
X633678833Y368154768D01*
X251437194Y366230958D01*
X-113078340Y364488253D01*
X-365290713Y361550783D01*
X-383832317Y360729197D01*
X-548628114Y360729197D01*
X-548628114Y375146976D01*
X-515291323Y378811523D01*
X-444915594Y380537887D01*
X-329554922Y381913333D01*
X-277941776Y382528717D01*
X245894589Y386323733D01*
X807628115Y390208924D01*
X807628115Y388930498D01*
G37*
D10*
X115372419Y-81827693D02*
X115372419Y-81256265D01*
X115372419Y-81541979D02*
X114372419Y-81541979D01*
X114372419Y-81541979D02*
X114515276Y-81446741D01*
X114515276Y-81446741D02*
X114610514Y-81351503D01*
X114610514Y-81351503D02*
X114658133Y-81256265D01*
X115372419Y-82780074D02*
X115372419Y-82208646D01*
X115372419Y-82494360D02*
X114372419Y-82494360D01*
X114372419Y-82494360D02*
X114515276Y-82399122D01*
X114515276Y-82399122D02*
X114610514Y-82303884D01*
X114610514Y-82303884D02*
X114658133Y-82208646D01*
X145294247Y-64267544D02*
X144627580Y-64267544D01*
X145675200Y-64505639D02*
X144960914Y-64743734D01*
X144960914Y-64743734D02*
X144960914Y-64124687D01*
X144627580Y-63219925D02*
X144627580Y-63791353D01*
X144627580Y-63505639D02*
X145627580Y-63505639D01*
X145627580Y-63505639D02*
X145484723Y-63600877D01*
X145484723Y-63600877D02*
X145389485Y-63696115D01*
X145389485Y-63696115D02*
X145341866Y-63791353D01*
X115372419Y-84327693D02*
X115372419Y-83756265D01*
X115372419Y-84041979D02*
X114372419Y-84041979D01*
X114372419Y-84041979D02*
X114515276Y-83946741D01*
X114515276Y-83946741D02*
X114610514Y-83851503D01*
X114610514Y-83851503D02*
X114658133Y-83756265D01*
X114467657Y-84708646D02*
X114420038Y-84756265D01*
X114420038Y-84756265D02*
X114372419Y-84851503D01*
X114372419Y-84851503D02*
X114372419Y-85089598D01*
X114372419Y-85089598D02*
X114420038Y-85184836D01*
X114420038Y-85184836D02*
X114467657Y-85232455D01*
X114467657Y-85232455D02*
X114562895Y-85280074D01*
X114562895Y-85280074D02*
X114658133Y-85280074D01*
X114658133Y-85280074D02*
X114800990Y-85232455D01*
X114800990Y-85232455D02*
X115372419Y-84661027D01*
X115372419Y-84661027D02*
X115372419Y-85280074D01*
X114467657Y-106456265D02*
X114420038Y-106503884D01*
X114420038Y-106503884D02*
X114372419Y-106599122D01*
X114372419Y-106599122D02*
X114372419Y-106837217D01*
X114372419Y-106837217D02*
X114420038Y-106932455D01*
X114420038Y-106932455D02*
X114467657Y-106980074D01*
X114467657Y-106980074D02*
X114562895Y-107027693D01*
X114562895Y-107027693D02*
X114658133Y-107027693D01*
X114658133Y-107027693D02*
X114800990Y-106980074D01*
X114800990Y-106980074D02*
X115372419Y-106408646D01*
X115372419Y-106408646D02*
X115372419Y-107027693D01*
X115372419Y-107980074D02*
X115372419Y-107408646D01*
X115372419Y-107694360D02*
X114372419Y-107694360D01*
X114372419Y-107694360D02*
X114515276Y-107599122D01*
X114515276Y-107599122D02*
X114610514Y-107503884D01*
X114610514Y-107503884D02*
X114658133Y-107408646D01*
X114467657Y-108856265D02*
X114420038Y-108903884D01*
X114420038Y-108903884D02*
X114372419Y-108999122D01*
X114372419Y-108999122D02*
X114372419Y-109237217D01*
X114372419Y-109237217D02*
X114420038Y-109332455D01*
X114420038Y-109332455D02*
X114467657Y-109380074D01*
X114467657Y-109380074D02*
X114562895Y-109427693D01*
X114562895Y-109427693D02*
X114658133Y-109427693D01*
X114658133Y-109427693D02*
X114800990Y-109380074D01*
X114800990Y-109380074D02*
X115372419Y-108808646D01*
X115372419Y-108808646D02*
X115372419Y-109427693D01*
X114467657Y-109808646D02*
X114420038Y-109856265D01*
X114420038Y-109856265D02*
X114372419Y-109951503D01*
X114372419Y-109951503D02*
X114372419Y-110189598D01*
X114372419Y-110189598D02*
X114420038Y-110284836D01*
X114420038Y-110284836D02*
X114467657Y-110332455D01*
X114467657Y-110332455D02*
X114562895Y-110380074D01*
X114562895Y-110380074D02*
X114658133Y-110380074D01*
X114658133Y-110380074D02*
X114800990Y-110332455D01*
X114800990Y-110332455D02*
X115372419Y-109761027D01*
X115372419Y-109761027D02*
X115372419Y-110380074D01*
X145627580Y-79791353D02*
X145627580Y-79172306D01*
X145627580Y-79172306D02*
X145246628Y-79505639D01*
X145246628Y-79505639D02*
X145246628Y-79362782D01*
X145246628Y-79362782D02*
X145199009Y-79267544D01*
X145199009Y-79267544D02*
X145151390Y-79219925D01*
X145151390Y-79219925D02*
X145056152Y-79172306D01*
X145056152Y-79172306D02*
X144818057Y-79172306D01*
X144818057Y-79172306D02*
X144722819Y-79219925D01*
X144722819Y-79219925D02*
X144675200Y-79267544D01*
X144675200Y-79267544D02*
X144627580Y-79362782D01*
X144627580Y-79362782D02*
X144627580Y-79648496D01*
X144627580Y-79648496D02*
X144675200Y-79743734D01*
X144675200Y-79743734D02*
X144722819Y-79791353D01*
X145627580Y-78267544D02*
X145627580Y-78743734D01*
X145627580Y-78743734D02*
X145151390Y-78791353D01*
X145151390Y-78791353D02*
X145199009Y-78743734D01*
X145199009Y-78743734D02*
X145246628Y-78648496D01*
X145246628Y-78648496D02*
X145246628Y-78410401D01*
X145246628Y-78410401D02*
X145199009Y-78315163D01*
X145199009Y-78315163D02*
X145151390Y-78267544D01*
X145151390Y-78267544D02*
X145056152Y-78219925D01*
X145056152Y-78219925D02*
X144818057Y-78219925D01*
X144818057Y-78219925D02*
X144722819Y-78267544D01*
X144722819Y-78267544D02*
X144675200Y-78315163D01*
X144675200Y-78315163D02*
X144627580Y-78410401D01*
X144627580Y-78410401D02*
X144627580Y-78648496D01*
X144627580Y-78648496D02*
X144675200Y-78743734D01*
X144675200Y-78743734D02*
X144722819Y-78791353D01*
X145294247Y-59067544D02*
X144627580Y-59067544D01*
X145675200Y-59305639D02*
X144960914Y-59543734D01*
X144960914Y-59543734D02*
X144960914Y-58924687D01*
X145627580Y-58638972D02*
X145627580Y-58019925D01*
X145627580Y-58019925D02*
X145246628Y-58353258D01*
X145246628Y-58353258D02*
X145246628Y-58210401D01*
X145246628Y-58210401D02*
X145199009Y-58115163D01*
X145199009Y-58115163D02*
X145151390Y-58067544D01*
X145151390Y-58067544D02*
X145056152Y-58019925D01*
X145056152Y-58019925D02*
X144818057Y-58019925D01*
X144818057Y-58019925D02*
X144722819Y-58067544D01*
X144722819Y-58067544D02*
X144675200Y-58115163D01*
X144675200Y-58115163D02*
X144627580Y-58210401D01*
X144627580Y-58210401D02*
X144627580Y-58496115D01*
X144627580Y-58496115D02*
X144675200Y-58591353D01*
X144675200Y-58591353D02*
X144722819Y-58638972D01*
X115372419Y-86827693D02*
X115372419Y-86256265D01*
X115372419Y-86541979D02*
X114372419Y-86541979D01*
X114372419Y-86541979D02*
X114515276Y-86446741D01*
X114515276Y-86446741D02*
X114610514Y-86351503D01*
X114610514Y-86351503D02*
X114658133Y-86256265D01*
X114372419Y-87161027D02*
X114372419Y-87780074D01*
X114372419Y-87780074D02*
X114753371Y-87446741D01*
X114753371Y-87446741D02*
X114753371Y-87589598D01*
X114753371Y-87589598D02*
X114800990Y-87684836D01*
X114800990Y-87684836D02*
X114848609Y-87732455D01*
X114848609Y-87732455D02*
X114943847Y-87780074D01*
X114943847Y-87780074D02*
X115181942Y-87780074D01*
X115181942Y-87780074D02*
X115277180Y-87732455D01*
X115277180Y-87732455D02*
X115324800Y-87684836D01*
X115324800Y-87684836D02*
X115372419Y-87589598D01*
X115372419Y-87589598D02*
X115372419Y-87303884D01*
X115372419Y-87303884D02*
X115324800Y-87208646D01*
X115324800Y-87208646D02*
X115277180Y-87161027D01*
X145294247Y-56767544D02*
X144627580Y-56767544D01*
X145675200Y-57005639D02*
X144960914Y-57243734D01*
X144960914Y-57243734D02*
X144960914Y-56624687D01*
X145294247Y-55815163D02*
X144627580Y-55815163D01*
X145675200Y-56053258D02*
X144960914Y-56291353D01*
X144960914Y-56291353D02*
X144960914Y-55672306D01*
X145532342Y-105343734D02*
X145579961Y-105296115D01*
X145579961Y-105296115D02*
X145627580Y-105200877D01*
X145627580Y-105200877D02*
X145627580Y-104962782D01*
X145627580Y-104962782D02*
X145579961Y-104867544D01*
X145579961Y-104867544D02*
X145532342Y-104819925D01*
X145532342Y-104819925D02*
X145437104Y-104772306D01*
X145437104Y-104772306D02*
X145341866Y-104772306D01*
X145341866Y-104772306D02*
X145199009Y-104819925D01*
X145199009Y-104819925D02*
X144627580Y-105391353D01*
X144627580Y-105391353D02*
X144627580Y-104772306D01*
X145627580Y-103867544D02*
X145627580Y-104343734D01*
X145627580Y-104343734D02*
X145151390Y-104391353D01*
X145151390Y-104391353D02*
X145199009Y-104343734D01*
X145199009Y-104343734D02*
X145246628Y-104248496D01*
X145246628Y-104248496D02*
X145246628Y-104010401D01*
X145246628Y-104010401D02*
X145199009Y-103915163D01*
X145199009Y-103915163D02*
X145151390Y-103867544D01*
X145151390Y-103867544D02*
X145056152Y-103819925D01*
X145056152Y-103819925D02*
X144818057Y-103819925D01*
X144818057Y-103819925D02*
X144722819Y-103867544D01*
X144722819Y-103867544D02*
X144675200Y-103915163D01*
X144675200Y-103915163D02*
X144627580Y-104010401D01*
X144627580Y-104010401D02*
X144627580Y-104248496D01*
X144627580Y-104248496D02*
X144675200Y-104343734D01*
X144675200Y-104343734D02*
X144722819Y-104391353D01*
X114467657Y-58756265D02*
X114420038Y-58803884D01*
X114420038Y-58803884D02*
X114372419Y-58899122D01*
X114372419Y-58899122D02*
X114372419Y-59137217D01*
X114372419Y-59137217D02*
X114420038Y-59232455D01*
X114420038Y-59232455D02*
X114467657Y-59280074D01*
X114467657Y-59280074D02*
X114562895Y-59327693D01*
X114562895Y-59327693D02*
X114658133Y-59327693D01*
X114658133Y-59327693D02*
X114800990Y-59280074D01*
X114800990Y-59280074D02*
X115372419Y-58708646D01*
X115372419Y-58708646D02*
X115372419Y-59327693D01*
X145294247Y-61767544D02*
X144627580Y-61767544D01*
X145675200Y-62005639D02*
X144960914Y-62243734D01*
X144960914Y-62243734D02*
X144960914Y-61624687D01*
X145532342Y-61291353D02*
X145579961Y-61243734D01*
X145579961Y-61243734D02*
X145627580Y-61148496D01*
X145627580Y-61148496D02*
X145627580Y-60910401D01*
X145627580Y-60910401D02*
X145579961Y-60815163D01*
X145579961Y-60815163D02*
X145532342Y-60767544D01*
X145532342Y-60767544D02*
X145437104Y-60719925D01*
X145437104Y-60719925D02*
X145341866Y-60719925D01*
X145341866Y-60719925D02*
X145199009Y-60767544D01*
X145199009Y-60767544D02*
X144627580Y-61338972D01*
X144627580Y-61338972D02*
X144627580Y-60719925D01*
X145532342Y-107743734D02*
X145579961Y-107696115D01*
X145579961Y-107696115D02*
X145627580Y-107600877D01*
X145627580Y-107600877D02*
X145627580Y-107362782D01*
X145627580Y-107362782D02*
X145579961Y-107267544D01*
X145579961Y-107267544D02*
X145532342Y-107219925D01*
X145532342Y-107219925D02*
X145437104Y-107172306D01*
X145437104Y-107172306D02*
X145341866Y-107172306D01*
X145341866Y-107172306D02*
X145199009Y-107219925D01*
X145199009Y-107219925D02*
X144627580Y-107791353D01*
X144627580Y-107791353D02*
X144627580Y-107172306D01*
X145294247Y-106315163D02*
X144627580Y-106315163D01*
X145675200Y-106553258D02*
X144960914Y-106791353D01*
X144960914Y-106791353D02*
X144960914Y-106172306D01*
X145627580Y-82491353D02*
X145627580Y-81872306D01*
X145627580Y-81872306D02*
X145246628Y-82205639D01*
X145246628Y-82205639D02*
X145246628Y-82062782D01*
X145246628Y-82062782D02*
X145199009Y-81967544D01*
X145199009Y-81967544D02*
X145151390Y-81919925D01*
X145151390Y-81919925D02*
X145056152Y-81872306D01*
X145056152Y-81872306D02*
X144818057Y-81872306D01*
X144818057Y-81872306D02*
X144722819Y-81919925D01*
X144722819Y-81919925D02*
X144675200Y-81967544D01*
X144675200Y-81967544D02*
X144627580Y-82062782D01*
X144627580Y-82062782D02*
X144627580Y-82348496D01*
X144627580Y-82348496D02*
X144675200Y-82443734D01*
X144675200Y-82443734D02*
X144722819Y-82491353D01*
X145294247Y-81015163D02*
X144627580Y-81015163D01*
X145675200Y-81253258D02*
X144960914Y-81491353D01*
X144960914Y-81491353D02*
X144960914Y-80872306D01*
X145532342Y-110543734D02*
X145579961Y-110496115D01*
X145579961Y-110496115D02*
X145627580Y-110400877D01*
X145627580Y-110400877D02*
X145627580Y-110162782D01*
X145627580Y-110162782D02*
X145579961Y-110067544D01*
X145579961Y-110067544D02*
X145532342Y-110019925D01*
X145532342Y-110019925D02*
X145437104Y-109972306D01*
X145437104Y-109972306D02*
X145341866Y-109972306D01*
X145341866Y-109972306D02*
X145199009Y-110019925D01*
X145199009Y-110019925D02*
X144627580Y-110591353D01*
X144627580Y-110591353D02*
X144627580Y-109972306D01*
X145627580Y-109638972D02*
X145627580Y-109019925D01*
X145627580Y-109019925D02*
X145246628Y-109353258D01*
X145246628Y-109353258D02*
X145246628Y-109210401D01*
X145246628Y-109210401D02*
X145199009Y-109115163D01*
X145199009Y-109115163D02*
X145151390Y-109067544D01*
X145151390Y-109067544D02*
X145056152Y-109019925D01*
X145056152Y-109019925D02*
X144818057Y-109019925D01*
X144818057Y-109019925D02*
X144722819Y-109067544D01*
X144722819Y-109067544D02*
X144675200Y-109115163D01*
X144675200Y-109115163D02*
X144627580Y-109210401D01*
X144627580Y-109210401D02*
X144627580Y-109496115D01*
X144627580Y-109496115D02*
X144675200Y-109591353D01*
X144675200Y-109591353D02*
X144722819Y-109638972D01*
X145627580Y-84991353D02*
X145627580Y-84372306D01*
X145627580Y-84372306D02*
X145246628Y-84705639D01*
X145246628Y-84705639D02*
X145246628Y-84562782D01*
X145246628Y-84562782D02*
X145199009Y-84467544D01*
X145199009Y-84467544D02*
X145151390Y-84419925D01*
X145151390Y-84419925D02*
X145056152Y-84372306D01*
X145056152Y-84372306D02*
X144818057Y-84372306D01*
X144818057Y-84372306D02*
X144722819Y-84419925D01*
X144722819Y-84419925D02*
X144675200Y-84467544D01*
X144675200Y-84467544D02*
X144627580Y-84562782D01*
X144627580Y-84562782D02*
X144627580Y-84848496D01*
X144627580Y-84848496D02*
X144675200Y-84943734D01*
X144675200Y-84943734D02*
X144722819Y-84991353D01*
X145627580Y-84038972D02*
X145627580Y-83419925D01*
X145627580Y-83419925D02*
X145246628Y-83753258D01*
X145246628Y-83753258D02*
X145246628Y-83610401D01*
X145246628Y-83610401D02*
X145199009Y-83515163D01*
X145199009Y-83515163D02*
X145151390Y-83467544D01*
X145151390Y-83467544D02*
X145056152Y-83419925D01*
X145056152Y-83419925D02*
X144818057Y-83419925D01*
X144818057Y-83419925D02*
X144722819Y-83467544D01*
X144722819Y-83467544D02*
X144675200Y-83515163D01*
X144675200Y-83515163D02*
X144627580Y-83610401D01*
X144627580Y-83610401D02*
X144627580Y-83896115D01*
X144627580Y-83896115D02*
X144675200Y-83991353D01*
X144675200Y-83991353D02*
X144722819Y-84038972D01*
X115372419Y-56827693D02*
X115372419Y-56256265D01*
X115372419Y-56541979D02*
X114372419Y-56541979D01*
X114372419Y-56541979D02*
X114515276Y-56446741D01*
X114515276Y-56446741D02*
X114610514Y-56351503D01*
X114610514Y-56351503D02*
X114658133Y-56256265D01*
X145627580Y-87591353D02*
X145627580Y-86972306D01*
X145627580Y-86972306D02*
X145246628Y-87305639D01*
X145246628Y-87305639D02*
X145246628Y-87162782D01*
X145246628Y-87162782D02*
X145199009Y-87067544D01*
X145199009Y-87067544D02*
X145151390Y-87019925D01*
X145151390Y-87019925D02*
X145056152Y-86972306D01*
X145056152Y-86972306D02*
X144818057Y-86972306D01*
X144818057Y-86972306D02*
X144722819Y-87019925D01*
X144722819Y-87019925D02*
X144675200Y-87067544D01*
X144675200Y-87067544D02*
X144627580Y-87162782D01*
X144627580Y-87162782D02*
X144627580Y-87448496D01*
X144627580Y-87448496D02*
X144675200Y-87543734D01*
X144675200Y-87543734D02*
X144722819Y-87591353D01*
X145532342Y-86591353D02*
X145579961Y-86543734D01*
X145579961Y-86543734D02*
X145627580Y-86448496D01*
X145627580Y-86448496D02*
X145627580Y-86210401D01*
X145627580Y-86210401D02*
X145579961Y-86115163D01*
X145579961Y-86115163D02*
X145532342Y-86067544D01*
X145532342Y-86067544D02*
X145437104Y-86019925D01*
X145437104Y-86019925D02*
X145341866Y-86019925D01*
X145341866Y-86019925D02*
X145199009Y-86067544D01*
X145199009Y-86067544D02*
X144627580Y-86638972D01*
X144627580Y-86638972D02*
X144627580Y-86019925D01*
X114372419Y-61208646D02*
X114372419Y-61827693D01*
X114372419Y-61827693D02*
X114753371Y-61494360D01*
X114753371Y-61494360D02*
X114753371Y-61637217D01*
X114753371Y-61637217D02*
X114800990Y-61732455D01*
X114800990Y-61732455D02*
X114848609Y-61780074D01*
X114848609Y-61780074D02*
X114943847Y-61827693D01*
X114943847Y-61827693D02*
X115181942Y-61827693D01*
X115181942Y-61827693D02*
X115277180Y-61780074D01*
X115277180Y-61780074D02*
X115324800Y-61732455D01*
X115324800Y-61732455D02*
X115372419Y-61637217D01*
X115372419Y-61637217D02*
X115372419Y-61351503D01*
X115372419Y-61351503D02*
X115324800Y-61256265D01*
X115324800Y-61256265D02*
X115277180Y-61208646D01*
X114705752Y-64232455D02*
X115372419Y-64232455D01*
X114324800Y-63994360D02*
X115039085Y-63756265D01*
X115039085Y-63756265D02*
X115039085Y-64375312D01*
X115372419Y-91827693D02*
X115372419Y-91256265D01*
X115372419Y-91541979D02*
X114372419Y-91541979D01*
X114372419Y-91541979D02*
X114515276Y-91446741D01*
X114515276Y-91446741D02*
X114610514Y-91351503D01*
X114610514Y-91351503D02*
X114658133Y-91256265D01*
X114372419Y-92732455D02*
X114372419Y-92256265D01*
X114372419Y-92256265D02*
X114848609Y-92208646D01*
X114848609Y-92208646D02*
X114800990Y-92256265D01*
X114800990Y-92256265D02*
X114753371Y-92351503D01*
X114753371Y-92351503D02*
X114753371Y-92589598D01*
X114753371Y-92589598D02*
X114800990Y-92684836D01*
X114800990Y-92684836D02*
X114848609Y-92732455D01*
X114848609Y-92732455D02*
X114943847Y-92780074D01*
X114943847Y-92780074D02*
X115181942Y-92780074D01*
X115181942Y-92780074D02*
X115277180Y-92732455D01*
X115277180Y-92732455D02*
X115324800Y-92684836D01*
X115324800Y-92684836D02*
X115372419Y-92589598D01*
X115372419Y-92589598D02*
X115372419Y-92351503D01*
X115372419Y-92351503D02*
X115324800Y-92256265D01*
X115324800Y-92256265D02*
X115277180Y-92208646D01*
X114372419Y-66780074D02*
X114372419Y-66303884D01*
X114372419Y-66303884D02*
X114848609Y-66256265D01*
X114848609Y-66256265D02*
X114800990Y-66303884D01*
X114800990Y-66303884D02*
X114753371Y-66399122D01*
X114753371Y-66399122D02*
X114753371Y-66637217D01*
X114753371Y-66637217D02*
X114800990Y-66732455D01*
X114800990Y-66732455D02*
X114848609Y-66780074D01*
X114848609Y-66780074D02*
X114943847Y-66827693D01*
X114943847Y-66827693D02*
X115181942Y-66827693D01*
X115181942Y-66827693D02*
X115277180Y-66780074D01*
X115277180Y-66780074D02*
X115324800Y-66732455D01*
X115324800Y-66732455D02*
X115372419Y-66637217D01*
X115372419Y-66637217D02*
X115372419Y-66399122D01*
X115372419Y-66399122D02*
X115324800Y-66303884D01*
X115324800Y-66303884D02*
X115277180Y-66256265D01*
X145627580Y-89991353D02*
X145627580Y-89372306D01*
X145627580Y-89372306D02*
X145246628Y-89705639D01*
X145246628Y-89705639D02*
X145246628Y-89562782D01*
X145246628Y-89562782D02*
X145199009Y-89467544D01*
X145199009Y-89467544D02*
X145151390Y-89419925D01*
X145151390Y-89419925D02*
X145056152Y-89372306D01*
X145056152Y-89372306D02*
X144818057Y-89372306D01*
X144818057Y-89372306D02*
X144722819Y-89419925D01*
X144722819Y-89419925D02*
X144675200Y-89467544D01*
X144675200Y-89467544D02*
X144627580Y-89562782D01*
X144627580Y-89562782D02*
X144627580Y-89848496D01*
X144627580Y-89848496D02*
X144675200Y-89943734D01*
X144675200Y-89943734D02*
X144722819Y-89991353D01*
X144627580Y-88419925D02*
X144627580Y-88991353D01*
X144627580Y-88705639D02*
X145627580Y-88705639D01*
X145627580Y-88705639D02*
X145484723Y-88800877D01*
X145484723Y-88800877D02*
X145389485Y-88896115D01*
X145389485Y-88896115D02*
X145341866Y-88991353D01*
X115372419Y-89327693D02*
X115372419Y-88756265D01*
X115372419Y-89041979D02*
X114372419Y-89041979D01*
X114372419Y-89041979D02*
X114515276Y-88946741D01*
X114515276Y-88946741D02*
X114610514Y-88851503D01*
X114610514Y-88851503D02*
X114658133Y-88756265D01*
X114705752Y-90184836D02*
X115372419Y-90184836D01*
X114324800Y-89946741D02*
X115039085Y-89708646D01*
X115039085Y-89708646D02*
X115039085Y-90327693D01*
D13*
%TO.C,J2*%
X116230000Y-55060000D02*
X118770000Y-55060000D01*
X118770000Y-55060000D02*
X118770000Y-110940000D01*
X118770000Y-110940000D02*
X116230000Y-110940000D01*
X116230000Y-55060000D02*
X116230000Y-110940000D01*
X117600000Y-54410000D02*
G75*
G02*
X117400000Y-54410000I-100000J0D01*
G01*
X117400000Y-54410000D02*
G75*
G02*
X117600000Y-54410000I100000J0D01*
G01*
%TO.C,J3*%
X141230000Y-55060000D02*
X143770000Y-55060000D01*
X143770000Y-55060000D02*
X143770000Y-110940000D01*
X143770000Y-110940000D02*
X141230000Y-110940000D01*
X141230000Y-55060000D02*
X141230000Y-110940000D01*
X142600000Y-54410000D02*
G75*
G02*
X142400000Y-54410000I-100000J0D01*
G01*
X142400000Y-54410000D02*
G75*
G02*
X142600000Y-54410000I100000J0D01*
G01*
%TD*%
M02*
